<?xml version="1.0" ?><!-- Uploaded to: SVG Repo, www.svgrepo.com, Generator: SVG Repo Mixer Tools -->
<svg fill="#000000" width="800px" height="800px" viewBox="0 0 32 32" id="OBJECT" xmlns="http://www.w3.org/2000/svg"><title/><path d="M16,7a5,5,0,0,0-1,9.9v-.24a4.7,4.7,0,0,1,.69-8.61.94.94,0,0,1,.62,0A4.7,4.7,0,0,1,17,16.66v.24A5,5,0,0,0,16,7Z"/><ellipse cx="16" cy="12.5" rx="1.5" ry="2.43"/><path d="M16,1A11,11,0,0,0,5,12c0,5.81,9.8,18.1,10.22,18.63a1,1,0,0,0,1.56,0C17.2,30.1,27,17.81,27,12A11,11,0,0,0,16,1Zm0,18a7,7,0,1,1,7-7A7,7,0,0,1,16,19Z"/></svg>