<?xml version="1.0" encoding="UTF-8"?>
<svg version="1.1" xmlns="http://www.w3.org/2000/svg" width="512" height="512">
<path d="M0 0 C5.58529263 4.76925961 9.50487091 8.70888118 10.375 16.25 C9.82427915 21.75720849 7.9664125 27.0335875 4 31 C3.27971113 43.53302634 8.0363483 57.12539865 13.828125 68.03515625 C15.22706552 71.57447576 15.31315325 74.22426656 15 78 C12.96605118 81.36383843 11.18059238 82.89022816 7.8125 84.9375 C4.79707556 86.73616812 4.79707556 86.73616812 4.0625 89.75 C4.00460719 92.76042593 4.30343356 95.54867922 4.72265625 98.5234375 C6.45581408 113.99980462 6.45581408 113.99980462 3.1875 118.625 C-3.54879297 123.64419868 -10.67453294 125.62833714 -19 125 C-18.7009375 126.08539063 -18.401875 127.17078125 -18.09375 128.2890625 C-17.26926904 131.57124103 -16.73717526 134.78833985 -16.34375 138.1484375 C-13.06335453 163.56576745 -3.05014565 187.18340215 6 211 C11.89686041 209.46224409 17.7924516 207.91968673 23.6875 206.375 C24.98929199 206.03435516 24.98929199 206.03435516 26.31738281 205.68682861 C37.23632662 202.82699655 48.1421134 199.9470446 58.93237305 196.62646484 C63.0744155 195.38689873 66.67285857 194.73982377 71 195 C72.65 197.97 74.3 200.94 76 204 C76.94875 202.824375 77.8975 201.64875 78.875 200.4375 C79.40867187 199.77621094 79.94234375 199.11492187 80.4921875 198.43359375 C84.39538705 192.13387013 84.33435454 185.38099643 84.30273438 178.22851562 C84.4621014 172.51700695 85.86543489 169.97554337 90 166 C93.61468703 164.69256001 95.43493301 164.84178124 99.125 165.875 C104.81270616 170.07895673 106.30989057 177.38040473 108 184 C112.98712074 178.50852139 117.46407649 172.80071555 121.75 166.75 C122.86954931 165.18211858 123.98933287 163.6144044 125.109375 162.046875 C125.59374023 161.36463867 126.07810547 160.68240234 126.57714844 159.97949219 C127.04668945 159.32625977 127.51623047 158.67302734 128 158 C128.49532227 157.27586914 128.99064453 156.55173828 129.50097656 155.80566406 C131 154 131 154 133.875 153.0625 C137.67524217 152.98649516 139.03661936 153.66048897 142 156 C147.93012183 161.75570649 149.11070021 169.2737594 149.35620117 177.21459961 C149.5120791 195.64665828 142.16492441 211.38708257 129.46923828 224.55859375 C119.63252461 234.20896888 107.17739044 239.92992464 95 246 C95.33 248.97 95.66 251.94 96 255 C87.28345681 259.59128809 78.29942805 263.20061014 69.125 266.75 C68.33875244 267.0554776 67.55250488 267.3609552 66.74243164 267.6756897 C19.45990901 286 19.45990901 286 6 286 C7.86692396 293.94857018 9.37530338 300.17771713 16.0703125 305.390625 C22.08118302 309.04941575 29.00848883 310.26755607 35.78961182 311.82278442 C39.84916194 312.75766822 43.89515315 313.74766849 47.94140625 314.73828125 C48.73452209 314.93193771 49.52763794 315.12559418 50.3447876 315.32511902 C74.63054439 321.31245967 107.41883372 331.16847636 122 353.125 C128.56550552 363.98704957 127.30109917 379.6111005 124.375 391.5 C120.97894649 404.02506407 114.31093358 415.26119504 103.1875 422.3125 C92.76841832 428.08306831 82.77269979 430.15292926 70.96716309 430.14044189 C69.63640377 430.14489858 69.63640377 430.14489858 68.27876043 430.1494453 C65.31799207 430.15808904 62.35726434 430.15963684 59.39648438 430.16113281 C57.26890477 430.16576387 55.14132599 430.17078892 53.01374817 430.17617798 C47.24321586 430.18927205 41.47269518 430.19574053 35.70215034 430.20018864 C32.0964098 430.20312284 28.49067242 430.20722819 24.88493347 430.21169281 C13.60127417 430.22535685 2.3176221 430.23503013 -8.9660449 430.2388947 C-21.98872716 430.24337967 -35.01130469 430.26095257 -48.0339551 430.2898953 C-58.10461279 430.31150052 -68.17524098 430.32159828 -78.24592161 430.32293582 C-84.25943247 430.32398423 -90.27284472 430.32990035 -96.28633118 430.34775543 C-101.94000219 430.36421705 -107.59350024 430.36640084 -113.24718666 430.35761642 C-115.32123083 430.35684516 -117.39528423 430.36120049 -119.46930504 430.37107468 C-122.30213079 430.38377023 -125.1343416 430.37793037 -127.96716309 430.36749268 C-128.78633414 430.37554908 -129.60550519 430.38360548 -130.44949961 430.39190602 C-135.72880958 430.34645985 -139.2382354 429.26025795 -144 427 C-146.57827833 427.01275633 -146.57827833 427.01275633 -148.9375 427.75 C-149.79601562 427.95882813 -150.65453125 428.16765625 -151.5390625 428.3828125 C-152.75722656 428.68832031 -152.75722656 428.68832031 -154 429 C-156.71119221 429.44445774 -159.27445816 429.78926223 -162 430 C-163.05960938 430.08894531 -164.11921875 430.17789062 -165.2109375 430.26953125 C-173.85841281 430.68733062 -173.85841281 430.68733062 -176.875 428.87109375 C-180.60252875 424.62215473 -182.04424479 419.45342182 -182.4375 413.9375 C-181.89334758 409.04012819 -180.62962031 408.1952641 -177 405 C-175.07510301 403.63893524 -173.11508733 402.32633468 -171.125 401.0625 C-160.03513048 394.03617513 -160.03513048 394.03617513 -154.453125 382.5703125 C-153.65714302 376.29852342 -153.67737387 369.96505851 -153.5703125 363.6484375 C-153.25402173 352.78912099 -151.92873381 341.31707882 -144.2109375 333.09375 C-138.62014719 327.82675063 -133.72193332 325.88160579 -126 326 C-126.55508168 313.18906257 -127.52087648 300.45864513 -128.77249336 287.69775581 C-129.0760107 284.59316507 -129.3726597 281.48798268 -129.66746521 278.3825531 C-130.50473207 269.56694973 -131.34722759 260.75189576 -132.2097168 251.9387207 C-140.87440783 163.21659039 -140.87440783 163.21659039 -113.0390625 129.33203125 C-109.4254131 125.04278902 -105.72984058 120.8317833 -101.87890625 116.75390625 C-97.20898469 111.77330383 -93.29653841 106.36863472 -89.4375 100.75 C-88.88771484 99.96850586 -88.33792969 99.18701172 -87.77148438 98.38183594 C-87.26810547 97.63192383 -86.76472656 96.88201172 -86.24609375 96.109375 C-85.78904053 95.43874023 -85.3319873 94.76810547 -84.86108398 94.07714844 C-82.86165021 89.25401758 -86.08119798 83.94751109 -87.875 79.375 C-90.02505484 73.79515633 -91.81316974 68.27116247 -93.28125 62.46875 C-94.24949648 59.14303382 -95.63054374 56.08782597 -97.1328125 52.97265625 C-100.95384425 44.28066962 -100.1818509 31.48750444 -97.4375 22.5625 C-91.3418203 7.18524528 -80.91626686 -2.57466895 -66.0859375 -9.3359375 C-43.54331605 -18.91522558 -19.32246297 -14.03720104 0 0 Z " fill="#709357" transform="translate(267,48)"/>
<path d="M0 0 C5.58529263 4.76925961 9.50487091 8.70888118 10.375 16.25 C9.82427915 21.75720849 7.9664125 27.0335875 4 31 C3.27971113 43.53302634 8.0363483 57.12539865 13.828125 68.03515625 C15.22706552 71.57447576 15.31315325 74.22426656 15 78 C12.96605118 81.36383843 11.18059238 82.89022816 7.8125 84.9375 C4.79707556 86.73616812 4.79707556 86.73616812 4.0625 89.75 C4.00460719 92.76042593 4.30343356 95.54867922 4.72265625 98.5234375 C6.45581408 113.99980462 6.45581408 113.99980462 3.1875 118.625 C-3.54879297 123.64419868 -10.67453294 125.62833714 -19 125 C-18.7009375 126.08539063 -18.401875 127.17078125 -18.09375 128.2890625 C-17.26926904 131.57124103 -16.73717526 134.78833985 -16.34375 138.1484375 C-13.06335453 163.56576745 -3.05014565 187.18340215 6 211 C11.89686041 209.46224409 17.7924516 207.91968673 23.6875 206.375 C24.98929199 206.03435516 24.98929199 206.03435516 26.31738281 205.68682861 C37.23632662 202.82699655 48.1421134 199.9470446 58.93237305 196.62646484 C63.0744155 195.38689873 66.67285857 194.73982377 71 195 C72.65 197.97 74.3 200.94 76 204 C76.94875 202.824375 77.8975 201.64875 78.875 200.4375 C79.40867187 199.77621094 79.94234375 199.11492187 80.4921875 198.43359375 C84.39538705 192.13387013 84.33435454 185.38099643 84.30273438 178.22851562 C84.4621014 172.51700695 85.86543489 169.97554337 90 166 C93.61468703 164.69256001 95.43493301 164.84178124 99.125 165.875 C104.81270616 170.07895673 106.30989057 177.38040473 108 184 C112.98712074 178.50852139 117.46407649 172.80071555 121.75 166.75 C122.86954931 165.18211858 123.98933287 163.6144044 125.109375 162.046875 C125.59374023 161.36463867 126.07810547 160.68240234 126.57714844 159.97949219 C127.04668945 159.32625977 127.51623047 158.67302734 128 158 C128.49532227 157.27586914 128.99064453 156.55173828 129.50097656 155.80566406 C131 154 131 154 133.875 153.0625 C137.67524217 152.98649516 139.03661936 153.66048897 142 156 C147.93012183 161.75570649 149.11070021 169.2737594 149.35620117 177.21459961 C149.5120791 195.64665828 142.16492441 211.38708257 129.46923828 224.55859375 C119.63252461 234.20896888 107.17739044 239.92992464 95 246 C95.33 248.97 95.66 251.94 96 255 C87.28345681 259.59128809 78.29942805 263.20061014 69.125 266.75 C68.33875244 267.0554776 67.55250488 267.3609552 66.74243164 267.6756897 C19.45990901 286 19.45990901 286 6 286 C7.86692396 293.94857018 9.37530338 300.17771713 16.0703125 305.390625 C22.08118302 309.04941575 29.00848883 310.26755607 35.78961182 311.82278442 C39.84916194 312.75766822 43.89515315 313.74766849 47.94140625 314.73828125 C48.73452209 314.93193771 49.52763794 315.12559418 50.3447876 315.32511902 C74.63054439 321.31245967 107.41883372 331.16847636 122 353.125 C128.56550552 363.98704957 127.30109917 379.6111005 124.375 391.5 C120.97894649 404.02506407 114.31093358 415.26119504 103.1875 422.3125 C92.76841832 428.08306831 82.77269979 430.15292926 70.96716309 430.14044189 C69.63640377 430.14489858 69.63640377 430.14489858 68.27876043 430.1494453 C65.31799207 430.15808904 62.35726434 430.15963684 59.39648438 430.16113281 C57.26890477 430.16576387 55.14132599 430.17078892 53.01374817 430.17617798 C47.24321586 430.18927205 41.47269518 430.19574053 35.70215034 430.20018864 C32.0964098 430.20312284 28.49067242 430.20722819 24.88493347 430.21169281 C13.60127417 430.22535685 2.3176221 430.23503013 -8.9660449 430.2388947 C-21.98872716 430.24337967 -35.01130469 430.26095257 -48.0339551 430.2898953 C-58.10461279 430.31150052 -68.17524098 430.32159828 -78.24592161 430.32293582 C-84.25943247 430.32398423 -90.27284472 430.32990035 -96.28633118 430.34775543 C-101.94000219 430.36421705 -107.59350024 430.36640084 -113.24718666 430.35761642 C-115.32123083 430.35684516 -117.39528423 430.36120049 -119.46930504 430.37107468 C-122.30213079 430.38377023 -125.1343416 430.37793037 -127.96716309 430.36749268 C-128.78633414 430.37554908 -129.60550519 430.38360548 -130.44949961 430.39190602 C-135.72880958 430.34645985 -139.2382354 429.26025795 -144 427 C-146.57827833 427.01275633 -146.57827833 427.01275633 -148.9375 427.75 C-149.79601562 427.95882813 -150.65453125 428.16765625 -151.5390625 428.3828125 C-152.75722656 428.68832031 -152.75722656 428.68832031 -154 429 C-156.71119221 429.44445774 -159.27445816 429.78926223 -162 430 C-163.05960938 430.08894531 -164.11921875 430.17789062 -165.2109375 430.26953125 C-173.85841281 430.68733062 -173.85841281 430.68733062 -176.875 428.87109375 C-180.60252875 424.62215473 -182.04424479 419.45342182 -182.4375 413.9375 C-181.89334758 409.04012819 -180.62962031 408.1952641 -177 405 C-175.07510301 403.63893524 -173.11508733 402.32633468 -171.125 401.0625 C-160.03513048 394.03617513 -160.03513048 394.03617513 -154.453125 382.5703125 C-153.65714302 376.29852342 -153.67737387 369.96505851 -153.5703125 363.6484375 C-153.25402173 352.78912099 -151.92873381 341.31707882 -144.2109375 333.09375 C-138.62014719 327.82675063 -133.72193332 325.88160579 -126 326 C-126.55508168 313.18906257 -127.52087648 300.45864513 -128.77249336 287.69775581 C-129.0760107 284.59316507 -129.3726597 281.48798268 -129.66746521 278.3825531 C-130.50473207 269.56694973 -131.34722759 260.75189576 -132.2097168 251.9387207 C-140.87440783 163.21659039 -140.87440783 163.21659039 -113.0390625 129.33203125 C-109.4254131 125.04278902 -105.72984058 120.8317833 -101.87890625 116.75390625 C-97.20898469 111.77330383 -93.29653841 106.36863472 -89.4375 100.75 C-88.88771484 99.96850586 -88.33792969 99.18701172 -87.77148438 98.38183594 C-87.26810547 97.63192383 -86.76472656 96.88201172 -86.24609375 96.109375 C-85.78904053 95.43874023 -85.3319873 94.76810547 -84.86108398 94.07714844 C-82.86165021 89.25401758 -86.08119798 83.94751109 -87.875 79.375 C-90.02505484 73.79515633 -91.81316974 68.27116247 -93.28125 62.46875 C-94.24949648 59.14303382 -95.63054374 56.08782597 -97.1328125 52.97265625 C-100.95384425 44.28066962 -100.1818509 31.48750444 -97.4375 22.5625 C-91.3418203 7.18524528 -80.91626686 -2.57466895 -66.0859375 -9.3359375 C-43.54331605 -18.91522558 -19.32246297 -14.03720104 0 0 Z M-97 123 C-111.90797203 136.61162664 -122.88708376 154.33548604 -127.5625 174.0625 C-127.71895996 174.69639648 -127.87541992 175.33029297 -128.03662109 175.98339844 C-131.59678207 193.47929205 -128.15283725 212.4123402 -126.45744324 229.96567535 C-125.89305501 235.840523 -125.34918774 241.71733834 -124.8010025 247.59371567 C-124.59401103 249.80970547 -124.38600815 252.02559877 -124.17791748 254.2414856 C-122.7542802 269.44219008 -121.50072019 284.65613225 -120.29394531 299.87548828 C-119.95376767 304.13654335 -119.59229623 308.39514144 -119.20825195 312.65246582 C-119.06912302 314.22080608 -118.93682518 315.78976695 -118.8112793 317.35925293 C-118.63071961 319.57292402 -118.42103443 321.78192212 -118.203125 323.9921875 C-118.09129883 325.23081543 -117.97947266 326.46944336 -117.86425781 327.74560547 C-116.80097707 331.74942814 -115.07774846 333.30652465 -112 336 C-107.4215363 342.61333645 -106.65772913 349.05282742 -106.375 356.875 C-106.33632812 357.75414062 -106.29765625 358.63328125 -106.2578125 359.5390625 C-106.16418966 361.69238793 -106.08103541 363.84616414 -106 366 C-95.31884408 368.33304293 -85.16223221 369.49676871 -74.1875 369.375 C-73.48166779 369.37234131 -72.77583557 369.36968262 -72.0486145 369.36694336 C-61.14121066 369.31932944 -50.48307547 368.46903795 -39.65820312 367.07885742 C-31.98122124 366.12270948 -24.4239754 365.69695707 -16.6875 365.6875 C-15.6967749 365.68234375 -14.7060498 365.6771875 -13.68530273 365.671875 C-8.7349154 365.72024309 -4.63658015 366.05061706 0 368 C0 369.32 0 370.64 0 372 C-0.84369141 371.98428955 -1.68738281 371.9685791 -2.55664062 371.95239258 C-23.30735811 371.5601246 -23.30735811 371.5601246 -43.9375 373.5 C-53.69966292 374.96661603 -63.27357251 375.31029014 -73.125 375.3125 C-73.81488007 375.31572266 -74.50476013 375.31894531 -75.21554565 375.32226562 C-85.29857983 375.35119786 -95.53795279 375.01141994 -105.32861328 372.37231445 C-105.8801709 372.24945068 -106.43172852 372.12658691 -107 372 C-108.64330561 373.64330561 -108.36278346 375.79707106 -108.625 378.0625 C-110.98616766 392.46904469 -118.4248472 407.03926887 -129.86328125 416.32421875 C-131.60065509 417.5357114 -133.36515732 418.71003624 -135.1640625 419.828125 C-135.76992187 420.21484375 -136.37578125 420.6015625 -137 421 C-137 421.33 -137 421.66 -137 422 C-108.48828781 422.07010979 -79.97658856 422.12299789 -51.46480751 422.15543652 C-38.22602073 422.17089928 -24.98728754 422.19197762 -11.74853516 422.22631836 C-0.20840143 422.25623866 11.33169348 422.27557929 22.87186491 422.28226548 C28.98115763 422.28617325 35.09033931 422.29534498 41.19959641 422.31719017 C46.95330739 422.33759675 52.70686189 422.34382531 58.46060562 422.33932304 C60.56886394 422.34014637 62.67712766 422.34608702 64.78535461 422.35761642 C67.67222774 422.37262576 70.55851632 422.36892286 73.44540405 422.36076355 C74.27228426 422.36950207 75.09916447 422.3782406 75.95110166 422.38724393 C86.98378309 422.30342939 97.01505798 418.37701446 105.23046875 410.99609375 C115.28164321 400.4546181 118.35230607 387.7318862 118.5 373.5625 C118.54125 372.57701172 118.5825 371.59152344 118.625 370.57617188 C118.71786829 361.81753172 115.57632956 357.15134726 110.0078125 350.6875 C97.41774981 339.40346041 81.7577378 333.45833749 66 328 C65.30438965 327.75797852 64.6087793 327.51595703 63.89208984 327.26660156 C53.26548858 323.6291472 42.37017823 320.99724529 31.46875 318.33203125 C30.53272949 318.10265869 29.59670898 317.87328613 28.63232422 317.63696289 C26.98523285 317.23840405 25.33607395 316.84819148 23.68408203 316.47045898 C15.71265719 314.60983684 9.23125708 311.34301328 4.5 304.5 C1.10537606 298.78173206 -0.09797663 293.55316121 -1 287 C-1.68400879 286.96559814 -2.36801758 286.93119629 -3.07275391 286.89575195 C-26.87385364 285.60504157 -43.55410745 281.1239046 -61 264 C-61.66515625 263.35933594 -62.3303125 262.71867188 -63.015625 262.05859375 C-75.42441774 249.17059967 -90.06484476 225.27420223 -91.1875 206.9375 C-91.0946875 205.9784375 -91.0946875 205.9784375 -91 205 C-89.68 205 -88.36 205 -87 205 C-86.77449463 205.57741943 -86.54898926 206.15483887 -86.31665039 206.74975586 C-75.17749423 235.08738744 -62.07166655 262.92855235 -32.9375 276.41796875 C-25.09907539 279.43358488 -17.35221238 280.18587553 -9 280.25 C-8.35933594 280.270625 -7.71867188 280.29125 -7.05859375 280.3125 C6.83396569 280.41794637 20.2637902 275.95217866 33.25 271.5 C34.81728069 270.97072308 36.38458245 270.44150856 37.9519043 269.91235352 C54.54744986 264.26711736 70.92404183 257.99453244 87 251 C86.34615986 246.6782389 84.83585131 243.11493906 83.015625 239.15234375 C82.71815369 238.49980118 82.42068237 237.84725861 82.11419678 237.17494202 C81.16441658 235.09348671 80.20763358 233.01535228 79.25 230.9375 C78.00245038 228.21870442 76.75803122 225.49849331 75.515625 222.77734375 C75.21458862 222.11882416 74.91355225 221.46030457 74.60339355 220.78182983 C71.93230287 214.91077105 69.42789969 208.97577057 67 203 C60.1995771 204.27360626 53.54045983 205.83755768 46.875 207.6875 C45.94139648 207.94297607 45.00779297 208.19845215 44.04589844 208.46166992 C38.87430639 209.88750272 33.72369754 211.37070991 28.5859375 212.9140625 C27.52777832 213.23028564 26.46961914 213.54650879 25.37939453 213.87231445 C23.34918925 214.48226301 21.32133843 215.10012563 19.29638672 215.72729492 C17.88897217 216.1503894 17.88897217 216.1503894 16.453125 216.58203125 C15.64004883 216.83186768 14.82697266 217.0817041 13.98925781 217.33911133 C9.69816118 218.28782078 5.37415714 218.62982396 1 219 C0.78115646 218.38914047 0.56231293 217.77828094 0.33683777 217.14891052 C-1.94805538 210.77241199 -4.23597724 204.39700605 -6.52563477 198.0222168 C-7.37894639 195.64521535 -8.23149392 193.26793945 -9.08325195 190.89038086 C-10.30998589 187.46655428 -11.53949394 184.04373474 -12.76953125 180.62109375 C-13.14777542 179.56353378 -13.52601959 178.50597382 -13.91572571 177.41636658 C-15.79422512 172.19778738 -17.78424344 167.08340491 -20 162 C-20.44946193 160.36799652 -20.85552158 158.72239208 -21.1875 157.0625 C-21.34605469 156.29035156 -21.50460938 155.51820313 -21.66796875 154.72265625 C-21.83232422 153.86994141 -21.83232422 153.86994141 -22 153 C-23.09054688 152.97421875 -24.18109375 152.9484375 -25.3046875 152.921875 C-48.52946914 152.1419965 -70.11474834 146.67523806 -87.44140625 130.28515625 C-88.92049493 128.78793947 -88.92049493 128.78793947 -91 129 C-91.2475 128.38125 -91.495 127.7625 -91.75 127.125 C-93.22047178 124.62519797 -94.41403076 124.16683978 -97 123 Z " fill="#25201F" transform="translate(267,48)"/>
<path d="M0 0 C1.8125 1.0625 1.8125 1.0625 3 3 C3.74289736 7.64310848 2.97062336 10.39156154 0.625 14.3125 C-4.68876432 23.23418953 -4.85899975 32.64239256 -2.3515625 42.56640625 C0.67090127 51.42582986 6.7659355 58.64078814 15.0625 63 C16.69231569 63.70492028 18.33778047 64.37530965 20 65 C20.96679688 65.38285156 20.96679688 65.38285156 21.953125 65.7734375 C30.55033968 68.55488931 40.25200736 66.97683409 48.1953125 63.03515625 C49.83853808 62.09261344 51.42380215 61.05079856 53 60 C59.06706793 59.45829751 59.06706793 59.45829751 61.9375 61.125 C63.48086807 63.8485907 63.21115651 65.90052402 63 69 C58.3105555 81.43162542 48.64461349 90.99399908 37 97 C33.38800196 98.54061815 29.75913801 99.86677525 26 101 C25.39800781 101.19207031 24.79601562 101.38414062 24.17578125 101.58203125 C10.88059891 104.13604294 -3.24577767 101.71082261 -14.8125 94.8125 C-26.92054449 86.4258986 -35.65104923 74.84331122 -38.55859375 60.18359375 C-40.74592494 44.40770948 -37.58088798 29.46651631 -28.18359375 16.4921875 C-22.01519089 9.13994975 -10.54367296 -1.75727883 0 0 Z " fill="#C9C9C9" transform="translate(364,53)"/>
<path d="M0 0 C4.05020695 4.42991385 4.54374036 10.79143713 5.63671875 16.53125 C7.15987762 24.34954525 9.39474155 30.97691957 12.79296875 38.12890625 C13.99006861 41.16233405 14.59306848 42.98382164 14 46.1875 C12.3203125 47.62890625 12.3203125 47.62890625 10.125 48.75 C6.81623061 50.46368164 5.27334035 51.62478606 4 55.1875 C2.98013105 63.95145857 4.42896065 73.39757284 5 82.1875 C3.730447 82.83584654 2.45930294 83.48107815 1.1875 84.125 C0.12595703 84.66447266 0.12595703 84.66447266 -0.95703125 85.21484375 C-11.71840506 90.33832765 -27.77150025 87.86681502 -38.7578125 84.453125 C-46.19849738 81.54856849 -55.41092847 77.00308981 -58.8527832 69.27197266 C-59.48019862 67.16984135 -59.95707164 65.09090176 -60.375 62.9375 C-60.53363525 62.18678223 -60.69227051 61.43606445 -60.85571289 60.66259766 C-62.58093884 52.03739793 -63.15205195 45.14559957 -59 37.1875 C-54.83783725 36.86105586 -52.63686538 36.78099018 -49.0625 39.0625 C-47 41.1875 -47 41.1875 -47 43.1875 C-44.22093849 44.57703075 -42.18509748 45.18356176 -39.0625 45.25 C-34.55927598 43.68765697 -32.3755265 41.2810412 -30 37.1875 C-28.14701611 32.03774893 -27.27445519 26.69547878 -26.296875 21.32421875 C-23.58811993 6.60058969 -23.58811993 6.60058969 -17.4375 0.75 C-11.70751731 -1.85453758 -6.02367488 -1.63141195 0 0 Z " fill="#EDCE90" transform="translate(260,78.8125)"/>
<path d="M0 0 C0.66 0.33 1.32 0.66 2 1 C1.50371094 1.74121094 1.00742188 2.48242188 0.49609375 3.24609375 C-19.3469696 34.00848987 -16.7541346 64.76417851 -13.40785336 99.88120437 C-13.03850601 103.7833602 -12.68210526 107.68670083 -12.32420349 111.58992004 C-11.64699382 118.95514466 -10.95893685 126.31931047 -10.26656812 133.68312389 C-9.40483156 142.85365275 -8.55669616 152.02543147 -7.70898438 161.19726562 C-7.40992105 164.43248869 -7.11077582 167.66770416 -6.81150818 170.90290833 C-6.73891106 171.68775284 -6.66631394 172.47259735 -6.59151691 173.28122503 C-6.09595204 178.63449191 -5.59648391 183.98738536 -5.09535217 189.34013367 C-4.89561235 191.47782804 -4.69595421 193.61553002 -4.49632645 195.75323486 C-4.31478646 197.69361912 -4.13212724 199.63389855 -3.94941711 201.57417297 C-1.82237918 224.35831167 -1.82237918 224.35831167 -1.9375 235.3125 C-1.94201172 236.16005859 -1.94652344 237.00761719 -1.95117188 237.88085938 C-1.96269586 239.9206053 -1.98061544 241.96031363 -2 244 C-4.31 243.67 -6.62 243.34 -9 243 C-9.02578125 241.74445313 -9.0515625 240.48890625 -9.078125 239.1953125 C-9.4402887 227.10628819 -9.78654294 217.72853827 -19 209 C-20.97987213 204.26444379 -21.51031735 199.54415111 -21.9296875 194.4765625 C-22.00475021 193.63917038 -22.07981293 192.80177826 -22.15715027 191.93901062 C-22.40354325 189.16824854 -22.63935934 186.39669558 -22.875 183.625 C-23.0469144 181.66556213 -23.21936938 179.70617162 -23.39233398 177.74682617 C-24.84041759 161.24456626 -26.21061551 144.73512481 -27.56103516 128.22460938 C-28.35991718 118.48278601 -29.19502409 108.74742668 -30.13562012 99.01821899 C-33.14549896 67.87170439 -33.24701342 40.38747709 -13.0546875 14.4375 C-8.86817663 9.4709928 -4.59453339 4.59453339 0 0 Z " fill="#617B49" transform="translate(170,171)"/>
<path d="M0 0 C1.98 0.66 3.96 1.32 6 2 C5.69191967 7.58793978 5.21427864 12.79466409 3.4375 18.125 C1.93650742 22.80631348 1.13148928 27.10645574 2 32 C4.22438719 36.27403857 4.22438719 36.27403857 8 39 C10.65777054 39.0957238 13.28921981 39.13012931 15.94717407 39.12025452 C16.77784405 39.12110894 17.60851403 39.12196337 18.46435583 39.12284368 C21.2635309 39.12449822 24.0626468 39.11897753 26.86181641 39.11352539 C28.86208596 39.11324349 30.86235562 39.11340131 32.86262512 39.1139679 C38.30655695 39.11425575 43.75046691 39.108361 49.19439363 39.10139394 C54.87856722 39.09515836 60.56274125 39.09455644 66.24691772 39.09336853 C77.01685163 39.09025582 87.78677543 39.08204324 98.55670488 39.07201904 C110.8152833 39.06085604 123.07386219 39.05534698 135.33244443 39.05032361 C160.55496856 39.03986058 185.77748372 39.02226229 211 39 C205.51023523 44.58559186 205.51023523 44.58559186 202.1875 46.1875 C201.58292969 46.49042969 200.97835937 46.79335938 200.35546875 47.10546875 C193.73076078 49.62131971 187.69787971 50.28956536 180.68591309 50.24050903 C179.32808771 50.24307231 179.32808771 50.24307231 177.94283152 50.24568737 C174.92730043 50.2489663 171.91199476 50.23800493 168.89648438 50.22705078 C166.72784429 50.22648632 164.55920383 50.2268039 162.39056396 50.22793579 C156.5151584 50.22850895 150.63983472 50.21676052 144.76444817 50.20278788 C138.61986584 50.19027444 132.47528158 50.18910953 126.33068848 50.18673706 C114.70033316 50.18052411 103.0700155 50.16411575 91.43967676 50.14403808 C78.1967013 50.12167337 64.95372402 50.1106842 51.71073437 50.10064721 C24.47380205 50.07974939 -2.76309687 50.04457696 -30 50 C-25.21289063 46.15576172 -25.21289063 46.15576172 -23.296875 44.75390625 C-11.73004326 35.84510908 -3.99896857 20.32430777 -1.6875 6.1875 C-1.56761719 5.21167969 -1.44773438 4.23585938 -1.32421875 3.23046875 C-1 1 -1 1 0 0 Z " fill="#627C4A" transform="translate(160,420)"/>
<path d="M0 0 C5.46478167 1.99674715 8.33757308 4.9272109 11.08203125 10 C16.1532916 26.5733104 11.27607326 47.14441917 3.625 62.1875 C-4.07683004 75.22772296 -14.40312515 82.77099887 -29 87 C-32.99030115 87.99594792 -36.70488413 88.10399107 -40.8125 88.0625 C-41.97394531 88.05347656 -43.13539062 88.04445313 -44.33203125 88.03515625 C-45.65267578 88.01775391 -45.65267578 88.01775391 -47 88 C-50.06295555 82.60919822 -50.06295555 82.60919822 -49.7878418 79.94702148 C-48.38748168 76.48626166 -44.87598771 74.95866822 -41.8125 73.0625 C-32.01306107 67.18010221 -32.01306107 67.18010221 -25.25 58.25 C-24.66992188 57.08210938 -24.66992188 57.08210938 -24.078125 55.890625 C-20.46733695 46.2095266 -20.6526246 36.53321785 -20.609375 26.3046875 C-20.44396262 17.79513952 -19.40368092 11.41191414 -14.140625 4.58984375 C-9.25640327 0.32119542 -6.49553493 -1.04766692 0 0 Z " fill="#EBBA73" transform="translate(142,382)"/>
<path d="M0 0 C0.85529297 -0.00773437 1.71058594 -0.01546875 2.59179688 -0.0234375 C10.49455616 0.00067466 17.06888791 1.64182261 24.375 4.75 C25.88513672 5.38421875 25.88513672 5.38421875 27.42578125 6.03125 C30.0625 7.25 30.0625 7.25 33.0625 9.25 C31.92877186 12.65118442 31.50286408 12.87637189 28.5546875 14.59765625 C27.82306396 15.03271484 27.09144043 15.46777344 26.33764648 15.91601562 C25.54559814 16.37685547 24.7535498 16.83769531 23.9375 17.3125 C22.27847842 18.3009231 20.62094624 19.29184997 18.96484375 20.28515625 C18.13452637 20.78289551 17.30420898 21.28063477 16.44873047 21.79345703 C13.07025068 23.85566395 9.77879755 26.03374279 6.5 28.25 C-0.72231152 33.11750116 -8.01410681 37.86783729 -15.33984375 42.578125 C-17.81426886 44.17068732 -20.28622482 45.76703595 -22.75778198 47.36404419 C-25.04020804 48.83771834 -27.32460469 50.30831776 -29.60943604 51.77825928 C-31.2902728 52.86068611 -32.96912529 53.9461922 -34.64794922 55.03173828 C-35.67936035 55.69415527 -36.71077148 56.35657227 -37.7734375 57.0390625 C-38.69688965 57.63412598 -39.6203418 58.22918945 -40.57177734 58.84228516 C-42.9375 60.25 -42.9375 60.25 -45.9375 61.25 C-50.67857399 52.25465873 -51.72359434 42.76354405 -49.01953125 32.90234375 C-43.50540715 18.78689985 -33.91509834 9.56108668 -20.1484375 3.4765625 C-13.21337949 0.82740409 -7.35333917 -0.0661966 0 0 Z " fill="#F3BF28" transform="translate(224.9375,41.75)"/>
<path d="M0 0 C1.8125 1.0625 1.8125 1.0625 3 3 C3.74289736 7.64310848 2.97062336 10.39156154 0.625 14.3125 C-4.68876432 23.23418953 -4.85899975 32.64239256 -2.3515625 42.56640625 C0.67090127 51.42582986 6.7659355 58.64078814 15.0625 63 C16.69231569 63.70492028 18.33778047 64.37530965 20 65 C20.96679688 65.38285156 20.96679688 65.38285156 21.953125 65.7734375 C30.55033968 68.55488931 40.25200736 66.97683409 48.1953125 63.03515625 C49.83853808 62.09261344 51.42380215 61.05079856 53 60 C59.06706793 59.45829751 59.06706793 59.45829751 61.9375 61.125 C63.48086807 63.8485907 63.21115651 65.90052402 63 69 C58.3105555 81.43162542 48.64461349 90.99399908 37 97 C33.38800196 98.54061815 29.75913801 99.86677525 26 101 C25.39800781 101.19207031 24.79601562 101.38414062 24.17578125 101.58203125 C10.88059891 104.13604294 -3.24577767 101.71082261 -14.8125 94.8125 C-26.92054449 86.4258986 -35.65104923 74.84331122 -38.55859375 60.18359375 C-40.74592494 44.40770948 -37.58088798 29.46651631 -28.18359375 16.4921875 C-22.01519089 9.13994975 -10.54367296 -1.75727883 0 0 Z M-19.71484375 18.6015625 C-29.58899335 29.23526207 -31.57951687 41.30520469 -31.34375 55.1796875 C-30.88873198 64.89811407 -26.29799666 72.8134246 -20 80 C-19.24976563 80.90685547 -19.24976563 80.90685547 -18.484375 81.83203125 C-11.79956269 89.27943137 -1.28738924 94.41316778 8.66796875 95.21484375 C21.53837003 95.63109217 33.65118428 92.28932388 43.546875 83.8203125 C47.61210708 79.87464607 51.12119762 75.88144751 54 71 C53.67 70.34 53.34 69.68 53 69 C52.33613281 69.27714844 51.67226563 69.55429688 50.98828125 69.83984375 C49.66376953 70.38318359 49.66376953 70.38318359 48.3125 70.9375 C47.00732422 71.47697266 47.00732422 71.47697266 45.67578125 72.02734375 C35.00218205 75.90723601 23.28823209 75.10547988 13.0078125 70.609375 C0.20862483 63.76097848 -6.29479234 53.70845619 -10.5859375 40.1484375 C-12.31064088 31.19950486 -11.45907349 22.3997228 -7.875 14.07421875 C-6.87044084 12.06807934 -6.87044084 12.06807934 -7 10 C-11.72223546 10 -16.40896169 15.51406445 -19.71484375 18.6015625 Z " fill="#242020" transform="translate(364,53)"/>
<path d="M0 0 C3 1 3 1 3.9140625 2.70703125 C4.14867187 3.40183594 4.38328125 4.09664062 4.625 4.8125 C4.86476563 5.49957031 5.10453125 6.18664062 5.3515625 6.89453125 C9.26042905 19.58657386 6.23984374 32.00779699 0.375 43.6875 C-7.37795358 56.90055372 -18.89239303 65.59524386 -32.3125 72.4375 C-32.9823291 72.77998779 -33.6521582 73.12247559 -34.34228516 73.4753418 C-34.98858887 73.79156494 -35.63489258 74.10778809 -36.30078125 74.43359375 C-36.86966064 74.71259521 -37.43854004 74.99159668 -38.0246582 75.27905273 C-40 76 -40 76 -46 77 C-49.63 68.75 -53.26 60.5 -57 52 C-51 45 -51 45 -48.8125 42.625 C-42.92377665 34.09650412 -43.33243572 23.9845348 -43 14 C-41.68 13.34 -40.36 12.68 -39 12 C-36.21655187 16.83481127 -35.34842508 20.93708129 -34.8125 26.375 C-34.73064453 27.11105469 -34.64878906 27.84710938 -34.56445312 28.60546875 C-34.36607444 30.40254625 -34.18159423 32.20114893 -34 34 C-30.94813661 34.96956854 -30.33484121 35.1635271 -27.3125 33.6875 C-15.93620365 25.22602585 -7.76347488 11.64521231 0 0 Z " fill="#EBCD90" transform="translate(402,209)"/>
<path d="M0 0 C3.68637545 1.84318772 4.80431099 2.66600557 7.25 5.6875 C19.52836341 20.01225731 34.64257309 24.8368005 53 27 C53.50423557 29.74928442 54.00353426 32.49931143 54.5 35.25 C54.64308594 36.02730469 54.78617187 36.80460937 54.93359375 37.60546875 C55.06894531 38.35957031 55.20429688 39.11367187 55.34375 39.890625 C55.53227539 40.92751465 55.53227539 40.92751465 55.72460938 41.98535156 C56 44 56 44 56 48 C33.29965158 48.94439046 11.88399137 42.42919718 -5.02954102 27.04638672 C-8.08960842 24.14879618 -9.76719608 21.72133987 -12 18 C-8.04 12.06 -4.08 6.12 0 0 Z " fill="#E3E2E2" transform="translate(188,146)"/>
<path d="M0 0 C0.66 0.33 1.32 0.66 2 1 C1.2575 1.721875 0.515 2.44375 -0.25 3.1875 C-6.69736692 11.00083449 -7.62528263 22.6424974 -9.09375 32.37109375 C-10.11696932 36.46838146 -11.48660859 38.66769622 -14 42 C-16.74876408 40.83706135 -18.86660742 39.35270547 -21.125 37.4375 C-24.90028049 34.23671872 -26.90826682 33.6359259 -31.90234375 33.7265625 C-35.45500147 34.189665 -37.38125709 35.62486108 -40 38 C-44.01468728 44.36812465 -43.70425482 51.647163 -44 59 C-46.65245887 55.80464019 -48.1321264 52.61498564 -49.625 48.75 C-50.05039063 47.67234375 -50.47578125 46.5946875 -50.9140625 45.484375 C-52.12708735 41.59222333 -52.60208973 38.04984234 -53 34 C-51.87464844 33.32195312 -50.74929687 32.64390625 -49.58984375 31.9453125 C-42.18380264 27.46334992 -34.80767429 22.95903163 -27.625 18.125 C-27.04137695 17.7328833 -26.45775391 17.3407666 -25.85644531 16.93676758 C-24.61104465 16.09946337 -23.36576962 15.26197229 -22.12060547 14.42431641 C-17.82087701 11.53637998 -13.51002054 8.66621036 -9.1875 5.8125 C-8.30852051 5.22291504 -7.42954102 4.63333008 -6.52392578 4.02587891 C-5.70520996 3.48753418 -4.88649414 2.94918945 -4.04296875 2.39453125 C-3.31102295 1.90831299 -2.57907715 1.42209473 -1.82495117 0.92114258 C-0.92160034 0.465177 -0.92160034 0.465177 0 0 Z " fill="#7E7E7E" transform="translate(235,75)"/>
<path d="M0 0 C0.80642679 2.99580309 1.00585679 5.33856548 0.8125 8.4375 C0.69913613 21.24761768 6.95122708 33.53364912 15.4921875 42.7890625 C24.69423269 50.901769 35.55506133 55.39436353 47.8125 55.3125 C48.99791382 55.31165405 48.99791382 55.31165405 50.20727539 55.31079102 C55.53667344 55.22710038 60.15862302 54.54022896 65.15234375 52.55859375 C67 52 67 52 70 53 C62.55160404 57.36630108 55.74305807 61.25446792 47 62 C46.05511719 62.08121094 45.11023438 62.16242188 44.13671875 62.24609375 C31.5404485 62.78523372 21.27902262 58.23727844 11.84375 50.15234375 C7.07143973 45.67385109 3.67386222 40.97131069 1 35 C0.73888428 34.42958984 0.47776855 33.85917969 0.20874023 33.27148438 C-2.04164787 27.93388042 -2.42789359 23.25121644 -2.3125 17.5 C-2.31572266 16.69691406 -2.31894531 15.89382812 -2.32226562 15.06640625 C-2.27480102 9.74174049 -1.47266806 5.11620139 0 0 Z " fill="#AEAEAE" transform="translate(335,86)"/>
<path d="M0 0 C2 3 2 3 3.5 5.875 C6.52889532 10.32403671 10.99578476 12.35623128 16 14 C20.33737 14.65036639 24.61708406 14.92443248 29 15 C26.59919655 17.61304554 23.98825491 19.41844896 21 21.3203125 C20.030625 21.93777344 19.06125 22.55523437 18.0625 23.19140625 C17.051875 23.82949219 16.04125 24.46757813 15 25.125 C13.989375 25.77082031 12.97875 26.41664062 11.9375 27.08203125 C4.38825479 31.87058174 4.38825479 31.87058174 1 33 C-3.57732629 24.31534075 -4.71132889 14.85509459 -2.31640625 5.26171875 C-1.5 3.0625 -1.5 3.0625 0 0 Z " fill="#E2AD27" transform="translate(178,70)"/>
<path d="M0 0 C1.83374023 1.28393555 1.83374023 1.28393555 3.83374023 3.28393555 C4.27733389 8.69577809 4.19387379 11.80375747 0.83374023 16.28393555 C0.13249023 16.06737305 -0.56875977 15.85081055 -1.29125977 15.62768555 C-9.96922848 13.08089038 -16.49877501 12.39477396 -25.16625977 15.28393555 C-21.40893922 11.27185585 -16.78510561 8.49287649 -12.22875977 5.47143555 C-10.86847656 4.53654297 -10.86847656 4.53654297 -9.48071289 3.58276367 C-8.60479492 3.00333008 -7.72887695 2.42389648 -6.82641602 1.8269043 C-6.02856689 1.290896 -5.23071777 0.7548877 -4.40869141 0.20263672 C-2.16625977 -0.71606445 -2.16625977 -0.71606445 0 0 Z " fill="#7C7C7C" transform="translate(265.166259765625,57.716064453125)"/>
<path d="M0 0 C1.27515797 2.55031595 0.77789768 3.24889113 0 5.9375 C-2.25279732 15.63229674 -0.15613354 23.63991065 5 32 C5.98110762 33.34729567 6.97572925 34.68521971 8 36 C3.40551532 34.55044856 0.32442647 31.92617597 -3.125 28.6875 C-3.64964844 28.21376953 -4.17429688 27.74003906 -4.71484375 27.25195312 C-7.92003451 24.28613737 -9.69308417 21.84485972 -12 18 C-8.04 12.06 -4.08 6.12 0 0 Z " fill="#C7C7C7" transform="translate(188,146)"/>
<path d="M0 0 C0.1176305 10.06394247 -0.12198822 19.96557967 -1 30 C-6.68246334 23.15445937 -9.48322766 13.78512984 -10 5 C-8.71186658 4.16121545 -7.41936744 3.32913217 -6.125 2.5 C-5.40570313 2.0359375 -4.68640625 1.571875 -3.9453125 1.09375 C-2 0 -2 0 0 0 Z " fill="#656464" transform="translate(192,104)"/>
</svg>
