<?xml version="1.0" encoding="UTF-8"?>
<svg version="1.1" xmlns="http://www.w3.org/2000/svg" width="512" height="512">
<path d="M0 0 C1.299375 -0.00257812 2.59875 -0.00515625 3.9375 -0.0078125 C4.60523437 -0.00362305 5.27296875 0.00056641 5.9609375 0.00488281 C7.99509494 0.01559916 10.0283695 0.0049499 12.0625 -0.0078125 C14.0115625 -0.00394531 14.0115625 -0.00394531 16 0 C17.175625 0.00225586 18.35125 0.00451172 19.5625 0.00683594 C24.73747214 0.39642901 28.74254239 1.20821746 32.75 4.578125 C45.23850963 19.49495595 38 26.21536563 38 53.265625 C70.01 53.265625 102.02 53.265625 135 53.265625 C135 40.395625 135 27.525625 135 14.265625 C138.57915058 5.91427365 138.57915058 5.91427365 144 2.265625 C150.7658247 -0.05711539 157.22402195 -0.07237256 164.27832031 -0.05004883 C166.3631646 -0.04689292 168.44658086 -0.07038226 170.53125 -0.09570312 C186.87404808 -0.17512534 186.87404808 -0.17512534 192.5715332 4.57617188 C203.85770477 16.98591763 198 40.55838818 198 53.265625 C228.03 53.265625 258.06 53.265625 289 53.265625 C289 39.405625 289 25.545625 289 11.265625 C292.47453291 6.05382563 294.81888601 2.64052377 300.80932617 0.6706543 C305.8867694 -0.26810401 311.16656726 0.08083767 316.3125 0.078125 C318.12911133 0.05975586 318.12911133 0.05975586 319.98242188 0.04101562 C334.23093307 0.01761905 334.23093307 0.01761905 339.1796875 4.03515625 C339.73914063 4.70933594 340.29859375 5.38351563 340.875 6.078125 C341.44992187 6.74457031 342.02484375 7.41101563 342.6171875 8.09765625 C345.68657954 12.90983868 345.13297293 18.55538401 345.09765625 24.06640625 C345.09553383 25.3209687 345.09553383 25.3209687 345.09336853 26.60087585 C345.08779184 29.259996 345.07524365 31.9190305 345.0625 34.578125 C345.05748199 36.38606649 345.05291961 38.1940093 345.04882812 40.00195312 C345.03783004 44.42320984 345.0205815 48.84440293 345 53.265625 C345.56883408 53.25674255 346.13766815 53.24786011 346.72373962 53.2387085 C352.67778409 53.14978289 358.63163798 53.08970439 364.58618164 53.04589844 C366.80435863 53.025861 369.02248332 52.99862327 371.24047852 52.96386719 C374.44039872 52.91500247 377.63961674 52.89257688 380.83984375 52.875 C381.82145981 52.85435486 382.80307587 52.83370972 383.81443787 52.81243896 C393.19710881 52.80942424 400.33075809 55.8346804 407.20703125 62.203125 C413.31880093 69.23365744 415.12204489 77.00840745 415.13142776 86.09987926 C415.1334804 86.778002 415.13553303 87.45612473 415.13764787 88.15479663 C415.14331123 90.43160043 415.14186144 92.7083436 415.14044189 94.9851532 C415.14302591 96.6322624 415.14603917 98.27937098 415.1494453 99.92647868 C415.15751425 104.45650847 415.15930481 108.98652241 415.16004276 113.51655853 C415.1618935 118.40082911 415.16944093 123.28509147 415.17617798 128.1693573 C415.18976104 138.85120905 415.19578596 149.53305704 415.20018864 160.21491599 C415.20295108 166.88442105 415.20718843 173.55392465 415.21169281 180.22342873 C415.22388539 198.68852872 415.23418476 217.15362756 415.2375679 235.6187315 C415.23778747 236.80058477 415.23800703 237.98243805 415.23823325 239.20010506 C415.23845153 240.38478916 415.23866981 241.56947326 415.2388947 242.79005688 C415.23933817 245.19068571 415.23978473 247.59131453 415.24023438 249.99194336 C415.2404558 251.18273866 415.24067723 252.37353395 415.24090537 253.60041396 C415.24485346 272.89593935 415.26230788 292.19142698 415.2855939 311.48693778 C415.30930708 331.29626325 415.32176974 351.10556977 415.32293582 370.91490966 C415.32385259 382.03755456 415.3296055 393.16015025 415.34775543 404.2827816 C415.36315594 413.75390372 415.36827715 423.22496144 415.36001733 432.6960937 C415.35611069 437.5276766 415.3570412 442.35912978 415.37107468 447.19069672 C415.3838125 451.61669113 415.38261709 456.04245834 415.37048396 460.46845243 C415.36852677 462.06672283 415.37160645 463.66500931 415.38032833 465.26325711 C415.44114732 477.16482218 415.01907244 488.15459965 406.2109375 497.078125 C397.83180745 504.84256983 389.64761083 506.42840566 378.32618999 506.39425945 C377.58160138 506.39601249 376.83701276 506.39776553 376.06986085 506.39957169 C373.57900039 506.40421744 371.08819867 506.40176987 368.59733582 506.39933777 C366.79175831 506.40120646 364.98618121 506.40350739 363.18060476 506.40620309 C358.22183239 506.41232031 353.26307689 506.41218759 348.30430162 506.41100872 C342.95516918 506.41080469 337.60604215 506.41632362 332.25691223 506.42106628 C321.77821699 506.42937287 311.29952737 506.43212113 300.82082912 506.43267866 C292.30372711 506.4331538 283.78662695 506.43520843 275.26952553 506.43837929 C251.12370082 506.44718572 226.97788055 506.45179866 202.83205422 506.45104881 C201.53033521 506.45100886 200.22861621 506.4509689 198.88745117 506.45092773 C197.58414352 506.45088685 196.28083586 506.45084597 194.93803404 506.45080385 C173.8126186 506.45039734 152.68722098 506.45996827 131.56181069 506.4740661 C109.87208151 506.48842636 88.18236102 506.49533648 66.49262697 506.49447232 C54.3147963 506.49414024 42.13698433 506.49689221 29.95915794 506.50765038 C19.59144794 506.51675073 9.2237651 506.51893442 -1.14394716 506.51214095 C-6.43322465 506.50887347 -11.72245002 506.50882734 -17.01172256 506.5174942 C-21.85578885 506.52534991 -26.69976161 506.52393722 -31.54382559 506.51521007 C-33.29411958 506.51367305 -35.04442052 506.51549886 -36.79470632 506.52107015 C-62.32982953 506.5969526 -62.32982953 506.5969526 -71.9453125 497.40625 C-79.18138319 489.59492683 -81.12243267 481.91809313 -81.12863445 471.33676434 C-81.13126401 470.3224652 -81.13126401 470.3224652 -81.13394669 469.28767517 C-81.13859596 467.02344312 -81.13614396 464.75927559 -81.13371277 462.49504089 C-81.13558128 460.85460572 -81.13788214 459.21417099 -81.14057809 457.57373697 C-81.14669751 453.06683713 -81.14656233 448.55995583 -81.14538372 444.05305278 C-81.14517975 439.19199708 -81.15069811 434.33094734 -81.15544128 429.46989441 C-81.16374913 419.94658357 -81.16649618 410.42327893 -81.16705366 400.89996477 C-81.16752875 393.15943213 -81.16958314 385.41890152 -81.17275429 377.67836952 C-81.18156116 355.73507204 -81.1861736 333.79177945 -81.18542381 311.84848019 C-81.18538386 310.66541288 -81.1853439 309.48234557 -81.18530273 308.26342773 C-81.18526185 307.07891686 -81.18522097 305.89440598 -81.18517885 304.67400084 C-81.18477235 285.47487037 -81.19434281 266.27575952 -81.2084411 247.07663473 C-81.22280116 227.36559362 -81.22971149 207.65456207 -81.22884732 187.9435156 C-81.22851523 176.87626239 -81.23126774 165.80902974 -81.24202538 154.74178123 C-81.25112549 145.3193388 -81.25330963 135.89692623 -81.24651595 126.47448131 C-81.24324831 121.66734619 -81.2432029 116.86026841 -81.2518692 112.05313873 C-81.25972426 107.65071594 -81.25831292 103.24839605 -81.24958507 98.84597579 C-81.2480479 97.25515717 -81.24987443 95.6643309 -81.25544515 94.07352128 C-81.29854427 80.89050664 -80.67156715 70.51211053 -71.33203125 60.47265625 C-64.96287217 54.56988868 -58.03409696 52.79155113 -49.5625 52.97265625 C-48.79695801 52.97690109 -48.03141602 52.98114594 -47.24267578 52.98551941 C-44.82807313 53.00214172 -42.41434489 53.03975994 -40 53.078125 C-38.35027258 53.09319322 -36.70053191 53.10687786 -35.05078125 53.11914062 C-31.0335238 53.15199083 -27.01690948 53.20365527 -23 53.265625 C-23.01571045 52.1919165 -23.0314209 51.11820801 -23.04760742 50.01196289 C-23.10229954 45.99202101 -23.13649158 41.97211138 -23.16479492 37.9519043 C-23.17979269 36.21877494 -23.20019772 34.48568296 -23.22631836 32.75268555 C-23.26310203 30.24778975 -23.27981651 27.7433998 -23.29296875 25.23828125 C-23.30845261 24.47540298 -23.32393646 23.71252472 -23.33988953 22.92652893 C-23.34171391 16.96781516 -22.55704156 10.4689259 -18.72477722 5.66810608 C-13.37251969 0.80505034 -6.96851064 0.01337159 0 0 Z " fill="#E8E8E8" transform="translate(89,2.734375)"/>
<path d="M0 0 C1.299375 -0.00257812 2.59875 -0.00515625 3.9375 -0.0078125 C4.60523437 -0.00362305 5.27296875 0.00056641 5.9609375 0.00488281 C7.99509494 0.01559916 10.0283695 0.0049499 12.0625 -0.0078125 C14.0115625 -0.00394531 14.0115625 -0.00394531 16 0 C17.175625 0.00225586 18.35125 0.00451172 19.5625 0.00683594 C24.73747214 0.39642901 28.74254239 1.20821746 32.75 4.578125 C45.23850963 19.49495595 38 26.21536563 38 53.265625 C70.01 53.265625 102.02 53.265625 135 53.265625 C135 40.395625 135 27.525625 135 14.265625 C138.57915058 5.91427365 138.57915058 5.91427365 144 2.265625 C150.7658247 -0.05711539 157.22402195 -0.07237256 164.27832031 -0.05004883 C166.3631646 -0.04689292 168.44658086 -0.07038226 170.53125 -0.09570312 C186.87404808 -0.17512534 186.87404808 -0.17512534 192.5715332 4.57617188 C203.85770477 16.98591763 198 40.55838818 198 53.265625 C228.03 53.265625 258.06 53.265625 289 53.265625 C289 39.405625 289 25.545625 289 11.265625 C292.47453291 6.05382563 294.81888601 2.64052377 300.80932617 0.6706543 C305.8867694 -0.26810401 311.16656726 0.08083767 316.3125 0.078125 C318.12911133 0.05975586 318.12911133 0.05975586 319.98242188 0.04101562 C334.23093307 0.01761905 334.23093307 0.01761905 339.1796875 4.03515625 C339.73914063 4.70933594 340.29859375 5.38351563 340.875 6.078125 C341.44992187 6.74457031 342.02484375 7.41101563 342.6171875 8.09765625 C345.68657954 12.90983868 345.13297293 18.55538401 345.09765625 24.06640625 C345.09553383 25.3209687 345.09553383 25.3209687 345.09336853 26.60087585 C345.08779184 29.259996 345.07524365 31.9190305 345.0625 34.578125 C345.05748199 36.38606649 345.05291961 38.1940093 345.04882812 40.00195312 C345.03783004 44.42320984 345.0205815 48.84440293 345 53.265625 C345.56883408 53.25674255 346.13766815 53.24786011 346.72373962 53.2387085 C352.67778409 53.14978289 358.63163798 53.08970439 364.58618164 53.04589844 C366.80435863 53.025861 369.02248332 52.99862327 371.24047852 52.96386719 C374.44039872 52.91500247 377.63961674 52.89257688 380.83984375 52.875 C381.82145981 52.85435486 382.80307587 52.83370972 383.81443787 52.81243896 C393.19710881 52.80942424 400.33075809 55.8346804 407.20703125 62.203125 C413.31880093 69.23365744 415.12204489 77.00840745 415.13142776 86.09987926 C415.1334804 86.778002 415.13553303 87.45612473 415.13764787 88.15479663 C415.14331123 90.43160043 415.14186144 92.7083436 415.14044189 94.9851532 C415.14302591 96.6322624 415.14603917 98.27937098 415.1494453 99.92647868 C415.15751425 104.45650847 415.15930481 108.98652241 415.16004276 113.51655853 C415.1618935 118.40082911 415.16944093 123.28509147 415.17617798 128.1693573 C415.18976104 138.85120905 415.19578596 149.53305704 415.20018864 160.21491599 C415.20295108 166.88442105 415.20718843 173.55392465 415.21169281 180.22342873 C415.22388539 198.68852872 415.23418476 217.15362756 415.2375679 235.6187315 C415.23778747 236.80058477 415.23800703 237.98243805 415.23823325 239.20010506 C415.23845153 240.38478916 415.23866981 241.56947326 415.2388947 242.79005688 C415.23933817 245.19068571 415.23978473 247.59131453 415.24023438 249.99194336 C415.2404558 251.18273866 415.24067723 252.37353395 415.24090537 253.60041396 C415.24485346 272.89593935 415.26230788 292.19142698 415.2855939 311.48693778 C415.30930708 331.29626325 415.32176974 351.10556977 415.32293582 370.91490966 C415.32385259 382.03755456 415.3296055 393.16015025 415.34775543 404.2827816 C415.36315594 413.75390372 415.36827715 423.22496144 415.36001733 432.6960937 C415.35611069 437.5276766 415.3570412 442.35912978 415.37107468 447.19069672 C415.3838125 451.61669113 415.38261709 456.04245834 415.37048396 460.46845243 C415.36852677 462.06672283 415.37160645 463.66500931 415.38032833 465.26325711 C415.44114732 477.16482218 415.01907244 488.15459965 406.2109375 497.078125 C397.83180745 504.84256983 389.64761083 506.42840566 378.32618999 506.39425945 C377.58160138 506.39601249 376.83701276 506.39776553 376.06986085 506.39957169 C373.57900039 506.40421744 371.08819867 506.40176987 368.59733582 506.39933777 C366.79175831 506.40120646 364.98618121 506.40350739 363.18060476 506.40620309 C358.22183239 506.41232031 353.26307689 506.41218759 348.30430162 506.41100872 C342.95516918 506.41080469 337.60604215 506.41632362 332.25691223 506.42106628 C321.77821699 506.42937287 311.29952737 506.43212113 300.82082912 506.43267866 C292.30372711 506.4331538 283.78662695 506.43520843 275.26952553 506.43837929 C251.12370082 506.44718572 226.97788055 506.45179866 202.83205422 506.45104881 C201.53033521 506.45100886 200.22861621 506.4509689 198.88745117 506.45092773 C197.58414352 506.45088685 196.28083586 506.45084597 194.93803404 506.45080385 C173.8126186 506.45039734 152.68722098 506.45996827 131.56181069 506.4740661 C109.87208151 506.48842636 88.18236102 506.49533648 66.49262697 506.49447232 C54.3147963 506.49414024 42.13698433 506.49689221 29.95915794 506.50765038 C19.59144794 506.51675073 9.2237651 506.51893442 -1.14394716 506.51214095 C-6.43322465 506.50887347 -11.72245002 506.50882734 -17.01172256 506.5174942 C-21.85578885 506.52534991 -26.69976161 506.52393722 -31.54382559 506.51521007 C-33.29411958 506.51367305 -35.04442052 506.51549886 -36.79470632 506.52107015 C-62.32982953 506.5969526 -62.32982953 506.5969526 -71.9453125 497.40625 C-79.18138319 489.59492683 -81.12243267 481.91809313 -81.12863445 471.33676434 C-81.13126401 470.3224652 -81.13126401 470.3224652 -81.13394669 469.28767517 C-81.13859596 467.02344312 -81.13614396 464.75927559 -81.13371277 462.49504089 C-81.13558128 460.85460572 -81.13788214 459.21417099 -81.14057809 457.57373697 C-81.14669751 453.06683713 -81.14656233 448.55995583 -81.14538372 444.05305278 C-81.14517975 439.19199708 -81.15069811 434.33094734 -81.15544128 429.46989441 C-81.16374913 419.94658357 -81.16649618 410.42327893 -81.16705366 400.89996477 C-81.16752875 393.15943213 -81.16958314 385.41890152 -81.17275429 377.67836952 C-81.18156116 355.73507204 -81.1861736 333.79177945 -81.18542381 311.84848019 C-81.18538386 310.66541288 -81.1853439 309.48234557 -81.18530273 308.26342773 C-81.18526185 307.07891686 -81.18522097 305.89440598 -81.18517885 304.67400084 C-81.18477235 285.47487037 -81.19434281 266.27575952 -81.2084411 247.07663473 C-81.22280116 227.36559362 -81.22971149 207.65456207 -81.22884732 187.9435156 C-81.22851523 176.87626239 -81.23126774 165.80902974 -81.24202538 154.74178123 C-81.25112549 145.3193388 -81.25330963 135.89692623 -81.24651595 126.47448131 C-81.24324831 121.66734619 -81.2432029 116.86026841 -81.2518692 112.05313873 C-81.25972426 107.65071594 -81.25831292 103.24839605 -81.24958507 98.84597579 C-81.2480479 97.25515717 -81.24987443 95.6643309 -81.25544515 94.07352128 C-81.29854427 80.89050664 -80.67156715 70.51211053 -71.33203125 60.47265625 C-64.96287217 54.56988868 -58.03409696 52.79155113 -49.5625 52.97265625 C-48.79695801 52.97690109 -48.03141602 52.98114594 -47.24267578 52.98551941 C-44.82807313 53.00214172 -42.41434489 53.03975994 -40 53.078125 C-38.35027258 53.09319322 -36.70053191 53.10687786 -35.05078125 53.11914062 C-31.0335238 53.15199083 -27.01690948 53.20365527 -23 53.265625 C-23.01571045 52.1919165 -23.0314209 51.11820801 -23.04760742 50.01196289 C-23.10229954 45.99202101 -23.13649158 41.97211138 -23.16479492 37.9519043 C-23.17979269 36.21877494 -23.20019772 34.48568296 -23.22631836 32.75268555 C-23.26310203 30.24778975 -23.27981651 27.7433998 -23.29296875 25.23828125 C-23.30845261 24.47540298 -23.32393646 23.71252472 -23.33988953 22.92652893 C-23.34171391 16.96781516 -22.55704156 10.4689259 -18.72477722 5.66810608 C-13.37251969 0.80505034 -6.96851064 0.01337159 0 0 Z M-63 147.265625 C-63.061875 201.9425 -63.12375 256.619375 -63.1875 312.953125 C-63.21481201 330.24033936 -63.24212402 347.52755371 -63.27026367 365.33862305 C-63.28029475 380.7864142 -63.28029475 380.7864142 -63.28633118 396.23420715 C-63.28913486 403.13401843 -63.30016494 410.03375727 -63.31672668 416.93354797 C-63.33578652 424.88578267 -63.34451633 432.83794762 -63.34033485 440.79020535 C-63.33852302 444.86048492 -63.34144951 448.93060848 -63.35764539 453.00085962 C-63.37219269 456.67905177 -63.37300414 460.35697689 -63.36270332 464.03518105 C-63.36082134 466.00001644 -63.37379664 467.96484857 -63.38724232 469.92963886 C-63.3782834 471.67984994 -63.3782834 471.67984994 -63.36914349 473.46541882 C-63.37028265 474.47205741 -63.37142181 475.47869601 -63.37259549 476.5158388 C-62.76879375 480.97194665 -60.43043726 484.40692729 -57 487.265625 C-53.50653288 488.43011404 -50.37817323 488.40755224 -46.74473858 488.39984608 C-45.99681346 488.40219831 -45.24888833 488.40455054 -44.47829881 488.40697405 C-41.95204545 488.41367336 -39.42584342 488.41320555 -36.89958191 488.41279602 C-35.07810634 488.41609405 -33.2566315 488.41981949 -31.4351576 488.4239375 C-26.4140226 488.43397229 -21.39289956 488.43767666 -16.37175596 488.44032681 C-10.96264026 488.44422541 -5.55353408 488.45380396 -0.14442444 488.46253967 C12.92528429 488.48231528 25.9949938 488.49237108 39.06471375 488.50126746 C45.21495889 488.50564803 51.36520316 488.51101538 57.51544762 488.51625633 C77.95178073 488.53326869 98.38811329 488.54776425 118.8244524 488.55500507 C124.12946892 488.55691506 129.43448545 488.55883538 134.73950195 488.56079102 C136.05808332 488.56127476 137.37666468 488.5617585 138.73520305 488.5622569 C160.10932314 488.57039178 181.48338407 488.59590807 202.85748009 488.62837169 C224.78662581 488.6614077 246.7157431 488.67945065 268.64491385 488.68264931 C280.96355032 488.68481747 293.28210528 488.69361095 305.60071754 488.71911049 C316.08869854 488.74077016 326.57657823 488.74889124 337.06457905 488.73914371 C342.41820185 488.73458543 347.77161543 488.73657374 353.12520981 488.75590515 C358.02359349 488.77344057 362.92161383 488.77261777 367.82000085 488.75700786 C369.59457315 488.75461711 371.36916999 488.75903073 373.14370463 488.77083651 C375.5519864 488.78586954 377.95896639 488.77634365 380.36721516 488.76060963 C381.40596675 488.77594294 381.40596675 488.77594294 382.46570322 488.79158601 C387.4151867 488.72078147 390.23611838 487.43392981 394 484.265625 C396.81373541 480.6381864 397.37428459 478.00843912 397.36914349 473.46541882 C397.37810241 471.71520774 397.37810241 471.71520774 397.38724232 469.92963886 C397.37413533 468.01434014 397.37413533 468.01434014 397.36076355 466.06034851 C397.3620762 464.68991415 397.36470764 463.31948052 397.36854553 461.9490509 C397.37527815 458.17649541 397.36322939 454.40419509 397.34821819 450.63167201 C397.33512941 446.50356561 397.33950128 442.37547121 397.34167194 438.24734974 C397.34326777 430.23189642 397.3294076 422.21654383 397.31016796 414.2011164 C397.28858164 404.93082055 397.28618447 395.66058533 397.28381348 386.39025879 C397.26805762 361.91119821 397.22617435 337.4321601 397.1875 312.953125 C397.125625 258.27625 397.06375 203.599375 397 147.265625 C245.2 147.265625 93.4 147.265625 -63 147.265625 Z " fill="#4E5292" transform="translate(89,2.734375)"/>
<path d="M0 0 C1.01938156 0.00636726 1.01938156 0.00636726 2.05935669 0.01286316 C4.20926174 0.02952609 6.35819549 0.06715159 8.5078125 0.10546875 C9.9739447 0.12053175 11.44009174 0.13421732 12.90625 0.14648438 C16.48208125 0.17938795 20.05735191 0.23108212 23.6328125 0.29296875 C23.64683105 1.36611328 23.64683105 1.36611328 23.66113281 2.4609375 C23.71520095 5.73895067 23.79877721 9.01559236 23.8828125 12.29296875 C23.89699219 13.41832031 23.91117188 14.54367188 23.92578125 15.703125 C24.15232208 25.20167916 24.15232208 25.20167916 28.6328125 33.29296875 C33.63156118 36.75057832 37.39502511 37.88922135 43.5078125 37.7890625 C44.60005127 37.79124535 44.60005127 37.79124535 45.71435547 37.79347229 C47.24385608 37.79182271 48.77337494 37.78036757 50.30273438 37.75952148 C52.62702862 37.73054087 54.94903956 37.7389361 57.2734375 37.75195312 C58.76824011 37.74571477 60.2630356 37.73732306 61.7578125 37.7265625 C62.44343262 37.72949814 63.12905273 37.73243378 63.83544922 37.73545837 C68.8556247 37.63862379 72.24349584 36.56401912 76.6328125 34.29296875 C80.68732157 29.91836686 81.74809037 27.32099089 81.9140625 21.4453125 C81.95144531 20.28322266 81.98882812 19.12113281 82.02734375 17.92382812 C82.09776771 15.45768547 82.16807986 12.99153962 82.23828125 10.52539062 C82.27566406 9.36458984 82.31304687 8.20378906 82.3515625 7.0078125 C82.38185547 5.936521 82.41214844 4.86522949 82.44335938 3.76147461 C82.6328125 1.29296875 82.6328125 1.29296875 83.6328125 0.29296875 C86.67683672 0.19765894 89.69812958 0.16745236 92.74243164 0.17944336 C93.69842758 0.17929733 94.65442352 0.17915131 95.63938904 0.17900085 C98.81560495 0.1797004 101.99176302 0.18749472 105.16796875 0.1953125 C107.36372343 0.19717653 109.55947852 0.1986005 111.75523376 0.19960022 C117.54701883 0.20342656 123.338779 0.21325784 129.1305542 0.2243042 C135.03560041 0.23451582 140.94065063 0.2390973 146.84570312 0.24414062 C158.44141722 0.25488 170.03711279 0.27195782 181.6328125 0.29296875 C181.6421582 1.04392822 181.65150391 1.7948877 181.66113281 2.56860352 C181.71508814 5.99820519 181.79868797 9.42647983 181.8828125 12.85546875 C181.89699219 14.03689453 181.91117188 15.21832031 181.92578125 16.43554688 C182.11553077 23.20960484 182.4608264 27.8440662 186.6328125 33.29296875 C193.4502547 38.45414892 201.1834349 37.87182588 209.37817383 37.75952148 C211.69359802 37.73049025 214.00673615 37.73895142 216.32226562 37.75195312 C217.81251098 37.74571603 219.30274921 37.73732531 220.79296875 37.7265625 C221.81669334 37.73096596 221.81669334 37.73096596 222.86109924 37.73545837 C228.76327691 37.62104921 233.32926115 36.16071309 237.9453125 32.41796875 C245.1681911 23.322492 242.18199558 11.56339187 242.6328125 0.29296875 C272.9928125 0.29296875 303.3528125 0.29296875 334.6328125 0.29296875 C334.9628125 8.54296875 335.2928125 16.79296875 335.6328125 25.29296875 C338.71412356 32.52879255 338.71412356 32.52879255 344.27734375 36.65283203 C349.27865402 38.01201896 354.44502004 37.83965978 359.59375 37.75952148 C361.62843409 37.73053113 363.66050964 37.73894099 365.6953125 37.75195312 C375.09795756 37.73531359 375.09795756 37.73531359 383.6328125 34.29296875 C387.89221435 29.80938786 388.74244287 26.36807921 388.94921875 20.3125 C388.99111328 19.14912109 389.03300781 17.98574219 389.07617188 16.78710938 C389.13514648 14.96469727 389.13514648 14.96469727 389.1953125 13.10546875 C389.23849609 11.87892578 389.28167969 10.65238281 389.32617188 9.38867188 C389.4323434 6.35688494 389.53439202 3.3250156 389.6328125 0.29296875 C395.7891778 0.19388153 401.945076 0.12139622 408.10205078 0.07324219 C410.19523203 0.05316216 412.28835742 0.02589235 414.38134766 -0.00878906 C417.39499719 -0.05746559 420.40790323 -0.08003637 423.421875 -0.09765625 C424.35335358 -0.11830139 425.28483215 -0.13894653 426.24453735 -0.16021729 C431.86727951 -0.16214669 435.27290699 0.3798262 439.6328125 4.29296875 C449.25050453 20.32245547 442.6328125 41.59953556 442.6328125 60.29296875 C290.8328125 60.29296875 139.0328125 60.29296875 -17.3671875 60.29296875 C-17.3671875 9.29296875 -17.3671875 9.29296875 -13.3671875 3.29296875 C-8.87653544 0.30404796 -5.32988549 -0.06607296 0 0 Z " fill="#FDDB7C" transform="translate(43.3671875,72.70703125)"/>
<path d="M0 0 C151.8 0 303.6 0 460 0 C460.0928125 82.0153125 460.0928125 82.0153125 460.1875 165.6875 C460.21481201 182.97471436 460.24212402 200.26192871 460.27026367 218.07299805 C460.28381348 239.12463379 460.28381348 239.12463379 460.28633118 248.96858215 C460.28913486 255.86839343 460.30016494 262.76813227 460.31672668 269.66792297 C460.33578652 277.62015767 460.34451633 285.57232262 460.34033485 293.52458035 C460.33852302 297.59485992 460.34144951 301.66498348 460.35764539 305.73523462 C460.37219269 309.41342677 460.37300414 313.09135189 460.36270332 316.76955605 C460.36082134 318.73439144 460.37379664 320.69922357 460.38724232 322.66401386 C460.3782834 324.41422494 460.3782834 324.41422494 460.36914349 326.19979382 C460.37085223 327.70975171 460.37085223 327.70975171 460.37259549 329.2502138 C459.73610699 333.94755269 457.87633163 336.26254237 454.28919989 339.2812143 C450.51180553 341.25510815 447.53052109 341.55856 443.37280178 341.50057125 C442.2452724 341.5088425 442.2452724 341.5088425 441.09496465 341.51728085 C438.57367209 341.53088697 436.05336352 341.51597339 433.53208923 341.50120544 C431.70730819 341.50509791 429.88253018 341.51073792 428.05775934 341.51797634 C423.04136522 341.5327566 418.02528418 341.52253446 413.00890005 341.50823963 C407.59984553 341.49714844 402.19083561 341.50906626 396.78178406 341.51808167 C386.18494001 341.53202848 375.58821497 341.52444742 364.99137657 341.50940608 C352.65714034 341.49256361 340.3229339 341.49575399 327.98868973 341.49950016 C305.98551841 341.50538132 283.98240429 341.49119678 261.97924805 341.46655273 C240.61626821 341.44262831 219.25337169 341.43554929 197.89038086 341.44604492 C174.63990419 341.45744737 151.38946288 341.45939275 128.13898665 341.44494683 C125.66105847 341.44342095 123.18313029 341.44190059 120.7052021 341.44038582 C119.48593885 341.439628 118.2666756 341.43887019 117.01046498 341.43808941 C108.40759019 341.43334161 99.80473116 341.43520152 91.20185661 341.43945122 C80.72233476 341.44437159 70.24288524 341.43842156 59.76337998 341.41855692 C54.4139552 341.40866742 49.06464068 341.4035977 43.71520996 341.41144943 C38.82196865 341.41848479 33.92895025 341.411752 29.03573842 341.3938458 C27.26195515 341.38978737 25.4881517 341.39082441 23.71437585 341.39736467 C21.30976713 341.40547472 18.90591686 341.39525217 16.50135708 341.38031673 C15.80708655 341.38705439 15.11281601 341.39379204 14.39750698 341.40073386 C9.17035868 341.33762172 6.15186237 339.84445346 2.25 336.5 C-0.12899521 333.64520574 -0.11383982 330.85494764 -0.0625 327.3125 C-0.05347656 326.50425781 -0.04445313 325.69601562 -0.03515625 324.86328125 C-0.02355469 324.24839844 -0.01195313 323.63351562 0 323 C1.36773086 322.99853479 1.36773086 322.99853479 2.76309264 322.99703997 C56.77420806 322.93880044 110.78528317 322.86502834 164.79634879 322.77101372 C171.27780655 322.75974521 177.75926453 322.74860681 184.24072266 322.73754883 C185.53109438 322.73534514 186.82146609 322.73314146 188.15093999 322.730871 C209.05962687 322.69547384 229.96831372 322.67062336 250.87701948 322.64965298 C272.32244782 322.62791019 293.76783719 322.59487428 315.2132324 322.55129844 C328.45207324 322.5247555 341.69086551 322.50707959 354.92973165 322.50065396 C364.0012996 322.49540816 373.07280636 322.47921843 382.14434154 322.45433434 C387.38245396 322.44029164 392.62045675 322.43115886 397.85858917 322.43499184 C402.65159262 322.43839284 407.44436161 322.4280906 412.23731701 322.40676448 C413.97360881 322.40148015 415.70992486 322.40127884 417.44621654 322.40660437 C419.80276181 322.41309752 422.15852859 322.40124279 424.51500893 322.38476086 C425.82504407 322.38286225 427.13507921 322.38096365 428.48481238 322.37900752 C433.33702457 321.85584201 436.76393478 320.52950087 439.859375 316.69921875 C441.19613104 313.53586799 441.33504757 311.23566484 441.25 307.8125 C441.23453125 306.76707031 441.2190625 305.72164063 441.203125 304.64453125 C441.16915119 302.02380114 441.16915119 302.02380114 440 300 C439.98304706 296.94751836 440.02970118 293.92087608 440.12109375 290.87109375 C440.17030124 288.89193246 440.21928076 286.91276549 440.26806641 284.93359375 C440.29588196 283.87640137 440.32369751 282.81920898 440.35235596 281.72998047 C440.89740826 260.65306186 441.11576605 239.58312902 441.125 218.5 C441.12740692 217.23364716 441.12981384 215.96729431 441.1322937 214.66256714 C441.1381575 211.07710026 441.13686145 207.49171785 441.1328125 203.90625 C441.13480148 202.82835709 441.13679047 201.75046417 441.13883972 200.63990784 C441.13416435 199.16783119 441.13416435 199.16783119 441.12939453 197.66601562 C441.12859894 196.80866821 441.12780334 195.9513208 441.12698364 195.06799316 C441.13158842 192.93688146 441.13158842 192.93688146 440 191 C439.93870598 189.62431125 439.94177323 188.24546627 439.97827148 186.86889648 C439.9983577 186.00441895 440.01844391 185.13994141 440.03913879 184.24926758 C440.06618393 183.29947021 440.09322906 182.34967285 440.12109375 181.37109375 C440.17019989 179.30460886 440.21918517 177.23812109 440.26806641 175.17163086 C440.29588196 174.07398407 440.32369751 172.97633728 440.35235596 171.84542847 C440.84710586 152.04284206 441.11478063 132.24616255 441.125 112.4375 C441.12740692 111.36426483 441.12981384 110.29102966 441.1322937 109.18527222 C441.13814044 106.16384627 441.13687511 103.14252075 441.1328125 100.12109375 C441.13480148 99.22140869 441.13679047 98.32172363 441.13883972 97.39477539 C441.25480148 93.0610829 441.25480148 93.0610829 440 89 C440.66 59.96 441.32 30.92 442 1 C296.14 1 150.28 1 0 1 C0 0.67 0 0.34 0 0 Z " fill="#DBDADB" transform="translate(26,150)"/>
<path d="M0 0 C1.14846909 -0.00145523 2.29693817 -0.00291046 3.48020935 -0.00440979 C5.8982091 -0.00275608 8.31621996 0.0087456 10.73413086 0.02954102 C14.42542398 0.05852959 18.11528219 0.05013047 21.80664062 0.03710938 C24.16276736 0.04334651 26.51888959 0.05173726 28.875 0.0625 C29.97308487 0.05956436 31.07116974 0.05662872 32.20252991 0.05360413 C38.82624477 0.13479899 44.4281205 0.46226306 49.61328125 5.03125 C52.72548519 9.22735945 53.99258114 11.31063151 54.0480957 16.49316406 C54.06734856 18.05553802 54.06734856 18.05553802 54.08699036 19.6494751 C54.09437729 20.7796405 54.10176422 21.90980591 54.109375 23.07421875 C54.11744675 24.23354919 54.12551849 25.39287964 54.13383484 26.58734131 C54.1476851 29.04535421 54.15840302 31.50338642 54.16625977 33.96142578 C54.18345978 37.71684361 54.22733766 41.47137844 54.27148438 45.2265625 C54.28161216 47.61327477 54.290128 49.99999453 54.296875 52.38671875 C54.31438309 53.50878723 54.33189117 54.63085571 54.34992981 55.78692627 C54.33262883 62.02111657 54.08255486 65.77431344 49.87109375 70.49609375 C45.22397562 74.79467802 41.87509599 75.60595572 35.67871094 75.6730957 C34.64373474 75.68593094 33.60875854 75.69876617 32.54241943 75.71199036 C31.42885071 75.71937729 30.31528198 75.72676422 29.16796875 75.734375 C28.01621155 75.74244675 26.86445435 75.75051849 25.67779541 75.75883484 C23.24012756 75.77266156 20.80244046 75.78339002 18.36474609 75.79125977 C14.64903819 75.80846436 10.93422202 75.85236407 7.21875 75.89648438 C4.84766278 75.90661252 2.47656801 75.91512824 0.10546875 75.921875 C-1.00000305 75.93938309 -2.10547485 75.95689117 -3.2444458 75.97492981 C-9.65336456 75.95703176 -14.86688727 75.4110668 -20.12890625 71.49609375 C-23.72267423 66.9808468 -25.23604315 63.40885506 -25.32177734 57.69262695 C-25.33784027 56.71763748 -25.3539032 55.74264801 -25.37045288 54.7381134 C-25.41506001 50.27439156 -25.45597971 45.81081671 -25.47900391 41.34692383 C-25.49554318 38.99688805 -25.52280605 36.64690216 -25.56103516 34.29711914 C-25.61597791 30.90094011 -25.63770683 27.50593945 -25.65234375 24.109375 C-25.67501312 23.06638748 -25.6976825 22.02339996 -25.72103882 20.94880676 C-25.70191462 14.30071387 -24.86137524 9.4021453 -20.12890625 4.49609375 C-14.1558144 -0.32210766 -7.35311258 -0.07536509 0 0 Z " fill="#505493" transform="translate(413.12890625,276.50390625)"/>
<path d="M0 0 C1.14609741 -0.0038269 2.29219482 -0.00765381 3.47302246 -0.01159668 C5.88680911 -0.01430852 8.30062551 -0.00699863 10.71435547 0.00976562 C14.39487648 0.03118381 18.07344547 0.00993717 21.75390625 -0.015625 C24.10677511 -0.0129816 26.45964277 -0.00785636 28.8125 0 C30.45188538 -0.01214539 30.45188538 -0.01214539 32.12438965 -0.02453613 C38.54028664 0.05364863 43.5884814 0.74530445 48.90625 4.53125 C52.67609538 8.59108349 54.0246999 11.06222363 54.08325195 16.52832031 C54.10250481 18.09069427 54.10250481 18.09069427 54.12214661 19.68463135 C54.12953354 20.81479675 54.13692047 21.94496216 54.14453125 23.109375 C54.152603 24.26870544 54.16067474 25.42803589 54.16899109 26.62249756 C54.18284135 29.08051046 54.19355927 31.53854267 54.20141602 33.99658203 C54.21861603 37.75199986 54.26249391 41.50653469 54.30664062 45.26171875 C54.31676841 47.64843102 54.32528425 50.03515078 54.33203125 52.421875 C54.34953934 53.54394348 54.36704742 54.66601196 54.38508606 55.82208252 C54.36779027 62.05440035 54.12164768 65.81370917 49.90625 70.53125 C45.53311709 74.4777358 42.46972176 75.64494372 36.64379883 75.72412109 C35.5687056 75.74018402 34.49361237 75.75624695 33.38594055 75.77279663 C28.46425051 75.81735302 23.54269435 75.85832075 18.62084961 75.88134766 C16.02831029 75.89789267 13.4358163 75.92516303 10.84350586 75.96337891 C7.09985759 76.01826761 3.35727827 76.04004261 -0.38671875 76.0546875 C-1.53907516 76.07735687 -2.69143158 76.10002625 -3.87870789 76.12338257 C-10.77252957 76.10537132 -16.03582808 75.53700948 -21.09375 70.53125 C-25.71175006 64.69478906 -25.69475762 58.26048474 -25.66015625 51.09375 C-25.66635483 50.01424072 -25.67255341 48.93473145 -25.67893982 47.82250977 C-25.68601428 45.54997658 -25.68290574 43.2773913 -25.67016602 41.00488281 C-25.65629043 37.54134236 -25.69042213 34.08050074 -25.72851562 30.6171875 C-25.72946686 28.40104101 -25.72760779 26.18489116 -25.72265625 23.96875 C-25.73591446 22.94144775 -25.74917267 21.91414551 -25.76283264 20.85571289 C-25.67817773 14.27269653 -24.75954599 9.39704548 -20.09375 4.53125 C-14.13504485 -0.27105501 -7.33618505 -0.05435012 0 0 Z " fill="#505493" transform="translate(413.09375,174.46875)"/>
<path d="M0 0 C1.03505173 -0.01283524 2.07010345 -0.02567047 3.13652039 -0.03889465 C4.2552504 -0.04628159 5.37398041 -0.05366852 6.52661133 -0.0612793 C7.67978348 -0.06935104 8.83295563 -0.07742279 10.02107239 -0.08573914 C12.46471656 -0.09957874 14.90838006 -0.11030144 17.35205078 -0.11816406 C21.07662979 -0.13535033 24.80031513 -0.17923625 28.5246582 -0.22338867 C30.90030273 -0.23351809 33.27595479 -0.24203341 35.65161133 -0.2487793 C36.76022018 -0.26628738 37.86882904 -0.28379547 39.0110321 -0.30183411 C45.48819215 -0.28380104 50.56004758 0.33228878 55.92114258 4.17700195 C59.70029544 8.24685889 61.04169495 10.71017592 61.08227539 16.18994141 C61.09188293 17.23475174 61.10149048 18.27956207 61.11138916 19.35603333 C61.11563904 20.48933578 61.11988892 21.62263824 61.12426758 22.7902832 C61.12996765 23.95198532 61.13566772 25.11368744 61.14154053 26.31059265 C61.15100054 28.77280768 61.15752847 31.23503543 61.16137695 33.69726562 C61.17107568 37.46352268 61.20208766 41.22923261 61.23364258 44.99536133 C61.24017313 47.38533204 61.24542339 49.77530666 61.24926758 52.1652832 C61.26161438 53.29251297 61.27396118 54.41974274 61.28668213 55.58113098 C61.28368103 56.6353978 61.28067993 57.68966461 61.27758789 58.77587891 C61.28305634 60.16248466 61.28305634 60.16248466 61.28863525 61.57710266 C60.66403498 65.9959603 58.35320052 69.17420548 54.92114258 71.92700195 C51.0025553 74.86594241 48.42105431 75.30515002 43.65869141 75.36987305 C42.58359818 75.38593597 41.50850494 75.4019989 40.40083313 75.41854858 C35.47914309 75.46310497 30.55758693 75.50407271 25.63574219 75.52709961 C23.04320286 75.54364463 20.45070888 75.57091498 17.85839844 75.60913086 C14.11475016 75.66401956 10.37217084 75.68579456 6.62817383 75.70043945 C5.47581741 75.72310883 4.323461 75.7457782 3.13618469 75.76913452 C-3.75805731 75.75112217 -9.02036607 75.18246007 -14.07885742 70.17700195 C-18.71451122 64.32781199 -18.66654856 57.88721783 -18.61010742 50.7043457 C-18.61393433 49.62246475 -18.61776123 48.5405838 -18.6217041 47.42591858 C-18.6244146 45.14917057 -18.61711417 42.87239096 -18.6003418 40.59570312 C-18.57890026 37.12144295 -18.60018505 33.6492457 -18.62573242 30.17504883 C-18.6230894 27.95564325 -18.61796496 25.73623895 -18.61010742 23.5168457 C-18.61820435 22.48438217 -18.62630127 21.45191864 -18.63464355 20.38816833 C-18.55344329 14.11113509 -17.82324742 10.27725082 -14.07885742 5.17700195 C-9.39672619 1.54596141 -5.86956003 0.06344365 0 0 Z " fill="#505493" transform="translate(71.078857421875,174.822998046875)"/>
<path d="M0 0 C1.14846909 -0.00145523 2.29693817 -0.00291046 3.48020935 -0.00440979 C5.8982091 -0.00275608 8.31621996 0.0087456 10.73413086 0.02954102 C14.42542398 0.05852959 18.11528219 0.05013047 21.80664062 0.03710938 C24.16276736 0.04334651 26.51888959 0.05173726 28.875 0.0625 C29.97308487 0.05956436 31.07116974 0.05662872 32.20252991 0.05360413 C38.82624477 0.13479899 44.4281205 0.46226306 49.61328125 5.03125 C52.73424388 9.23916858 53.993736 11.31147364 54.03222656 16.5090332 C54.04183411 17.55384354 54.05144165 18.59865387 54.06134033 19.67512512 C54.06559021 20.80842758 54.06984009 21.94173004 54.07421875 23.109375 C54.07991882 24.27107712 54.0856189 25.43277924 54.0914917 26.62968445 C54.10095171 29.09189948 54.10747964 31.55412723 54.11132812 34.01635742 C54.12102685 37.78261448 54.15203883 41.5483244 54.18359375 45.31445312 C54.1901243 47.70442384 54.19537457 50.09439846 54.19921875 52.484375 C54.21156555 53.61160477 54.22391235 54.73883453 54.2366333 55.90022278 C54.2336322 56.95448959 54.2306311 58.00875641 54.22753906 59.0949707 C54.23300751 60.48157646 54.23300751 60.48157646 54.23858643 61.89619446 C53.61896172 66.27985145 51.31689988 69.48201341 47.93359375 72.24609375 C43.75490209 75.31615293 40.78142977 75.61780597 35.67871094 75.6730957 C34.64373474 75.68593094 33.60875854 75.69876617 32.54241943 75.71199036 C31.42885071 75.71937729 30.31528198 75.72676422 29.16796875 75.734375 C28.01621155 75.74244675 26.86445435 75.75051849 25.67779541 75.75883484 C23.24012756 75.77266156 20.80244046 75.78339002 18.36474609 75.79125977 C14.64903819 75.80846436 10.93422202 75.85236407 7.21875 75.89648438 C4.84766278 75.90661252 2.47656801 75.91512824 0.10546875 75.921875 C-1.00000305 75.93938309 -2.10547485 75.95689117 -3.2444458 75.97492981 C-9.65336456 75.95703176 -14.86688727 75.4110668 -20.12890625 71.49609375 C-23.72267423 66.9808468 -25.23604315 63.40885506 -25.32177734 57.69262695 C-25.33784027 56.71763748 -25.3539032 55.74264801 -25.37045288 54.7381134 C-25.41506001 50.27439156 -25.45597971 45.81081671 -25.47900391 41.34692383 C-25.49554318 38.99688805 -25.52280605 36.64690216 -25.56103516 34.29711914 C-25.61597791 30.90094011 -25.63770683 27.50593945 -25.65234375 24.109375 C-25.67501312 23.06638748 -25.6976825 22.02339996 -25.72103882 20.94880676 C-25.70191462 14.30071387 -24.86137524 9.4021453 -20.12890625 4.49609375 C-14.1558144 -0.32210766 -7.35311258 -0.07536509 0 0 Z " fill="#515493" transform="translate(78.12890625,276.50390625)"/>
<path d="M0 0 C1.03505173 -0.01283524 2.07010345 -0.02567047 3.13652039 -0.03889465 C4.2552504 -0.04628159 5.37398041 -0.05366852 6.52661133 -0.0612793 C7.67978348 -0.06935104 8.83295563 -0.07742279 10.02107239 -0.08573914 C12.46471656 -0.09957874 14.90838006 -0.11030144 17.35205078 -0.11816406 C21.07662979 -0.13535033 24.80031513 -0.17923625 28.5246582 -0.22338867 C30.90030273 -0.23351809 33.27595479 -0.24203341 35.65161133 -0.2487793 C36.76022018 -0.26628738 37.86882904 -0.28379547 39.0110321 -0.30183411 C45.48819215 -0.28380104 50.56004758 0.33228878 55.92114258 4.17700195 C59.70029544 8.24685889 61.04169495 10.71017592 61.08227539 16.18994141 C61.09188293 17.23475174 61.10149048 18.27956207 61.11138916 19.35603333 C61.11563904 20.48933578 61.11988892 21.62263824 61.12426758 22.7902832 C61.12996765 23.95198532 61.13566772 25.11368744 61.14154053 26.31059265 C61.15100054 28.77280768 61.15752847 31.23503543 61.16137695 33.69726562 C61.17107568 37.46352268 61.20208766 41.22923261 61.23364258 44.99536133 C61.24017313 47.38533204 61.24542339 49.77530666 61.24926758 52.1652832 C61.26161438 53.29251297 61.27396118 54.41974274 61.28668213 55.58113098 C61.28368103 56.6353978 61.28067993 57.68966461 61.27758789 58.77587891 C61.28305634 60.16248466 61.28305634 60.16248466 61.28863525 61.57710266 C60.66403498 65.9959603 58.35320052 69.17420548 54.92114258 71.92700195 C51.0025553 74.86594241 48.42105431 75.30515002 43.65869141 75.36987305 C42.58359818 75.38593597 41.50850494 75.4019989 40.40083313 75.41854858 C35.47914309 75.46310497 30.55758693 75.50407271 25.63574219 75.52709961 C23.04320286 75.54364463 20.45070888 75.57091498 17.85839844 75.60913086 C14.11475016 75.66401956 10.37217084 75.68579456 6.62817383 75.70043945 C5.47581741 75.72310883 4.323461 75.7457782 3.13618469 75.76913452 C-3.75653407 75.75112615 -9.02245682 75.18352943 -14.07885742 70.17700195 C-18.6491083 64.38019666 -18.66739516 58.07190691 -18.61010742 50.95825195 C-18.61393433 49.90093872 -18.61776123 48.84362549 -18.6217041 47.75427246 C-18.62441439 45.52879885 -18.61711545 43.30329291 -18.6003418 41.07788086 C-18.57892068 37.68701616 -18.60017487 34.29827013 -18.62573242 30.9074707 C-18.62308899 28.73689315 -18.6179637 26.5663169 -18.61010742 24.39575195 C-18.62225281 22.88760925 -18.62225281 22.88760925 -18.63464355 21.34899902 C-18.55336649 15.19557218 -17.75715353 10.25044682 -14.07885742 5.17700195 C-9.44780237 1.49106017 -5.852057 0.06325446 0 0 Z " fill="#505494" transform="translate(179.078857421875,174.822998046875)"/>
<path d="M0 0 C1.55741913 -0.01441132 1.55741913 -0.01441132 3.14630127 -0.02911377 C4.82910187 -0.03548859 4.82910187 -0.03548859 6.54589844 -0.04199219 C7.70144226 -0.04769226 8.85698608 -0.05339233 10.04754639 -0.05926514 C12.4953927 -0.06871787 14.94325175 -0.0752502 17.39111328 -0.07910156 C21.12652977 -0.08879262 24.8613927 -0.11980833 28.59667969 -0.15136719 C30.97558267 -0.15789878 33.35448959 -0.16314864 35.73339844 -0.16699219 C36.84716858 -0.17933899 37.96093872 -0.19168579 39.10845947 -0.20440674 C45.80619495 -0.18527952 51.40094923 0.07324175 56.64746094 4.69628906 C59.76842356 8.90420764 61.02791569 10.9765127 61.06640625 16.17407227 C61.07601379 17.2188826 61.08562134 18.26369293 61.09552002 19.34016418 C61.0997699 20.47346664 61.10401978 21.6067691 61.10839844 22.77441406 C61.11409851 23.93611618 61.11979858 25.0978183 61.12567139 26.29472351 C61.1351314 28.75693854 61.14165933 31.21916629 61.14550781 33.68139648 C61.15520654 37.44765354 61.18621852 41.21336347 61.21777344 44.97949219 C61.22430399 47.3694629 61.22955425 49.75943752 61.23339844 52.14941406 C61.24574524 53.27664383 61.25809204 54.4038736 61.27081299 55.56526184 C61.26781189 56.61952866 61.26481079 57.67379547 61.26171875 58.76000977 C61.26718719 60.14661552 61.26718719 60.14661552 61.27276611 61.56123352 C60.65314141 65.94489051 58.35107957 69.14705247 54.96777344 71.91113281 C50.78908178 74.98119199 47.81560946 75.28284504 42.71289062 75.33813477 C41.67791443 75.35097 40.64293823 75.36380524 39.57659912 75.37702942 C38.4630304 75.38441635 37.34946167 75.39180328 36.20214844 75.39941406 C35.05039124 75.40748581 33.89863403 75.41555756 32.7119751 75.4238739 C30.27430724 75.43770062 27.83662014 75.44842908 25.39892578 75.45629883 C21.68321788 75.47350342 17.96840171 75.51740313 14.25292969 75.56152344 C11.88184246 75.57165158 9.51074769 75.5801673 7.13964844 75.58691406 C6.03417664 75.60442215 4.92870483 75.62193024 3.78973389 75.63996887 C-2.61918488 75.62207082 -7.83270758 75.07610586 -13.09472656 71.16113281 C-16.66022408 66.68140516 -18.20517647 63.12619928 -18.27172852 57.44946289 C-18.28456375 56.49449417 -18.29739899 55.53952545 -18.31062317 54.55561829 C-18.3180101 53.52438339 -18.32539703 52.4931485 -18.33300781 51.43066406 C-18.34511543 49.83408211 -18.34511543 49.83408211 -18.35746765 48.20524597 C-18.37130479 45.94991686 -18.3820286 43.69456684 -18.38989258 41.43920898 C-18.40707312 38.0043112 -18.45095997 34.570384 -18.49511719 31.13574219 C-18.50524724 28.94238988 -18.51376237 26.74902939 -18.52050781 24.55566406 C-18.5380159 23.53455032 -18.55552399 22.51343658 -18.57356262 21.46138 C-18.55482594 15.24438148 -17.83239988 10.28005707 -14.09472656 5.16113281 C-9.45423932 1.46768378 -5.86418502 0.04381949 0 0 Z " fill="#515493" transform="translate(179.0947265625,276.8388671875)"/>
<path d="M0 0 C1.03505173 -0.01283524 2.07010345 -0.02567047 3.13652039 -0.03889465 C4.2552504 -0.04628159 5.37398041 -0.05366852 6.52661133 -0.0612793 C7.67978348 -0.06935104 8.83295563 -0.07742279 10.02107239 -0.08573914 C12.46471656 -0.09957874 14.90838006 -0.11030144 17.35205078 -0.11816406 C21.07662979 -0.13535033 24.80031513 -0.17923625 28.5246582 -0.22338867 C30.90030273 -0.23351809 33.27595479 -0.24203341 35.65161133 -0.2487793 C36.76022018 -0.26628738 37.86882904 -0.28379547 39.0110321 -0.30183411 C45.48819215 -0.28380104 50.56004758 0.33228878 55.92114258 4.17700195 C59.70029544 8.24685889 61.04169495 10.71017592 61.08227539 16.18994141 C61.09188293 17.23475174 61.10149048 18.27956207 61.11138916 19.35603333 C61.11563904 20.48933578 61.11988892 21.62263824 61.12426758 22.7902832 C61.12996765 23.95198532 61.13566772 25.11368744 61.14154053 26.31059265 C61.15100054 28.77280768 61.15752847 31.23503543 61.16137695 33.69726562 C61.17107568 37.46352268 61.20208766 41.22923261 61.23364258 44.99536133 C61.24017313 47.38533204 61.24542339 49.77530666 61.24926758 52.1652832 C61.26161438 53.29251297 61.27396118 54.41974274 61.28668213 55.58113098 C61.28368103 56.6353978 61.28067993 57.68966461 61.27758789 58.77587891 C61.28305634 60.16248466 61.28305634 60.16248466 61.28863525 61.57710266 C60.66403498 65.9959603 58.35320052 69.17420548 54.92114258 71.92700195 C51.01254452 74.8584505 48.42498392 75.30578487 43.67456055 75.38574219 C42.60269501 75.40503281 41.53082947 75.42432343 40.42648315 75.44419861 C35.51458182 75.5020778 30.60282563 75.55123699 25.69067383 75.58203125 C23.10492582 75.60358996 20.51925036 75.63766681 17.93383789 75.68457031 C14.19750505 75.75171725 10.46268201 75.77905875 6.72583008 75.7980957 C5.00503738 75.83984169 5.00503738 75.83984169 3.2494812 75.88243103 C-4.32283888 75.86317007 -9.58754091 74.6188937 -15.07885742 69.17700195 C-18.73560253 63.46402305 -18.53156097 57.63443138 -18.51245117 51.0559082 C-18.51769302 49.99718002 -18.52293488 48.93845184 -18.52833557 47.84764099 C-18.53473796 45.61620966 -18.53344198 43.38474449 -18.52490234 41.15332031 C-18.51639295 37.75369731 -18.54517964 34.35575613 -18.5769043 30.95629883 C-18.57851661 28.78116912 -18.5779382 26.60603646 -18.57495117 24.4309082 C-18.58618515 23.42234268 -18.59741913 22.41377716 -18.60899353 21.37464905 C-18.54857516 15.20578104 -17.77175634 10.26119923 -14.07885742 5.17700195 C-9.44780237 1.49106017 -5.852057 0.06325446 0 0 Z " fill="#505494" transform="translate(287.078857421875,174.822998046875)"/>
<path d="M0 0 C1.55741913 -0.01441132 1.55741913 -0.01441132 3.14630127 -0.02911377 C4.82910187 -0.03548859 4.82910187 -0.03548859 6.54589844 -0.04199219 C7.70144226 -0.04769226 8.85698608 -0.05339233 10.04754639 -0.05926514 C12.4953927 -0.06871787 14.94325175 -0.0752502 17.39111328 -0.07910156 C21.12652977 -0.08879262 24.8613927 -0.11980833 28.59667969 -0.15136719 C30.97558267 -0.15789878 33.35448959 -0.16314864 35.73339844 -0.16699219 C36.84716858 -0.17933899 37.96093872 -0.19168579 39.10845947 -0.20440674 C45.80619495 -0.18527952 51.40094923 0.07324175 56.64746094 4.69628906 C59.75966487 8.89239851 61.02676083 10.97567057 61.08227539 16.15820312 C61.10152824 17.72057709 61.10152824 17.72057709 61.12117004 19.31451416 C61.12855698 20.44467957 61.13594391 21.57484497 61.14355469 22.73925781 C61.15162643 23.89858826 61.15969818 25.0579187 61.16801453 26.25238037 C61.18186478 28.71039327 61.19258271 31.16842548 61.20043945 33.62646484 C61.21763947 37.38188268 61.26151734 41.1364175 61.30566406 44.89160156 C61.31579185 47.27831383 61.32430768 49.66503359 61.33105469 52.05175781 C61.34856277 53.17382629 61.36607086 54.29589478 61.3841095 55.45196533 C61.36680851 61.68615563 61.11673455 65.4393525 56.90527344 70.16113281 C52.2581553 74.45971709 48.90927568 75.27099478 42.71289062 75.33813477 C41.67791443 75.35097 40.64293823 75.36380524 39.57659912 75.37702942 C38.4630304 75.38441635 37.34946167 75.39180328 36.20214844 75.39941406 C35.05039124 75.40748581 33.89863403 75.41555756 32.7119751 75.4238739 C30.27430724 75.43770062 27.83662014 75.44842908 25.39892578 75.45629883 C21.68321788 75.47350342 17.96840171 75.51740313 14.25292969 75.56152344 C11.88184246 75.57165158 9.51074769 75.5801673 7.13964844 75.58691406 C6.03417664 75.60442215 4.92870483 75.62193024 3.78973389 75.63996887 C-2.61918488 75.62207082 -7.83270758 75.07610586 -13.09472656 71.16113281 C-16.66022408 66.68140516 -18.20517647 63.12619928 -18.27172852 57.44946289 C-18.28456375 56.49449417 -18.29739899 55.53952545 -18.31062317 54.55561829 C-18.3180101 53.52438339 -18.32539703 52.4931485 -18.33300781 51.43066406 C-18.34511543 49.83408211 -18.34511543 49.83408211 -18.35746765 48.20524597 C-18.37130479 45.94991686 -18.3820286 43.69456684 -18.38989258 41.43920898 C-18.40707312 38.0043112 -18.45095997 34.570384 -18.49511719 31.13574219 C-18.50524724 28.94238988 -18.51376237 26.74902939 -18.52050781 24.55566406 C-18.5380159 23.53455032 -18.55552399 22.51343658 -18.57356262 21.46138 C-18.55482594 15.24438148 -17.83239988 10.28005707 -14.09472656 5.16113281 C-9.45423932 1.46768378 -5.86418502 0.04381949 0 0 Z " fill="#515493" transform="translate(287.0947265625,276.8388671875)"/>
<path d="M0 0 C1.28684692 -0.0038269 2.57369385 -0.00765381 3.89953613 -0.01159668 C6.61632614 -0.01747549 9.33258807 -0.00898231 12.04931641 0.00976562 C15.51960539 0.03255564 18.9886568 0.01942365 22.45890045 -0.00452423 C25.78519767 -0.02251143 29.1111677 -0.00989205 32.4375 0 C33.67826294 -0.00809692 34.91902588 -0.01619385 36.1973877 -0.02453613 C47.13366688 0.09419216 47.13366688 0.09419216 51.71875 4.53125 C56.75966091 9.92164024 56.30111881 15.47984603 56.25 22.46484375 C56.25574036 24.19179222 56.25574036 24.19179222 56.26159668 25.95362854 C56.26431345 28.38356401 56.25696886 30.81352884 56.24023438 33.2434082 C56.21884283 36.95265293 56.24003593 40.65995634 56.265625 44.36914062 C56.2629813 46.73437926 56.25785546 49.09961669 56.25 51.46484375 C56.25809692 52.56920273 56.26619385 53.67356171 56.27453613 54.81138611 C56.19682822 61.22840276 55.86523368 65.49547196 51.71875 70.53125 C45.63943388 75.42219017 38.61718384 75.11552843 31.15234375 75.0625 C29.95948257 75.0663269 28.7666214 75.07015381 27.53761292 75.07409668 C25.02547355 75.07680903 22.51330562 75.06949558 20.0012207 75.05273438 C16.16488527 75.03129825 12.33041859 75.05257111 8.49414062 75.078125 C6.04687088 75.07548198 3.5996023 75.07035753 1.15234375 75.0625 C0.01051132 75.07059692 -1.13132111 75.07869385 -2.30775452 75.08703613 C-8.85841717 75.01018868 -12.96704838 74.46053299 -18.28125 70.53125 C-22.5393368 66.04905337 -23.38900638 62.6354339 -23.45825195 56.59838867 C-23.47108719 55.62024704 -23.48392242 54.64210541 -23.49714661 53.63432312 C-23.50453354 52.58323868 -23.51192047 51.53215424 -23.51953125 50.44921875 C-23.527603 49.36167801 -23.53567474 48.27413727 -23.54399109 47.15364075 C-23.55781409 44.85301296 -23.56854421 42.55236483 -23.57641602 40.25170898 C-23.59363456 36.74227907 -23.63753873 33.23378996 -23.68164062 29.72460938 C-23.69176761 27.48698608 -23.70028369 25.24935479 -23.70703125 23.01171875 C-23.72453934 21.966707 -23.74204742 20.92169525 -23.76008606 19.84501648 C-23.74132526 13.51184169 -23.20413673 9.59686763 -19.28125 4.53125 C-13.83043723 -0.88436785 -7.2128165 -0.04706912 0 0 Z " fill="#4E5293" transform="translate(411.28125,386.46875)"/>
<path d="M0 0 C1.28543198 -0.00099701 2.57086395 -0.00199402 3.89524841 -0.00302124 C6.6063482 -0.00284256 9.31624891 0.01785308 12.02709961 0.05419922 C15.48959472 0.09962168 18.95034509 0.10064721 22.41305637 0.08716393 C25.73390076 0.07884871 29.05421551 0.10284312 32.375 0.125 C33.61262589 0.12317719 34.85025177 0.12135437 36.12538147 0.11947632 C47.03308053 0.29902107 47.03308053 0.29902107 51.62109375 4.7265625 C56.72470943 10.14942019 56.20273252 15.87317248 56.15234375 22.9140625 C56.15808411 24.67786255 56.15808411 24.67786255 56.16394043 26.47729492 C56.16665726 28.95850482 56.15931224 31.43974348 56.14257812 33.92089844 C56.12116726 37.71354169 56.14238971 41.5042905 56.16796875 45.296875 C56.16532544 47.71094167 56.16020039 50.12500717 56.15234375 52.5390625 C56.16044067 53.67045654 56.1685376 54.80185059 56.17687988 55.9675293 C56.1056732 61.96117587 56.05330262 66.25575165 51.62109375 70.7265625 C45.38478501 75.47515191 38.6486281 75.32595154 31.08984375 75.29296875 C29.89935425 75.29916733 28.70886475 75.30536591 27.4822998 75.31175232 C24.97437352 75.31883157 22.46640005 75.31570981 19.95849609 75.30297852 C16.13290584 75.28910534 12.30975939 75.32322669 8.484375 75.36132812 C6.04036399 75.36227934 3.59634993 75.36042036 1.15234375 75.35546875 C0.01567261 75.36872696 -1.12099854 75.38198517 -2.29211426 75.39564514 C-9.12606594 75.31594901 -14.35715967 74.66673465 -19.37890625 69.7265625 C-23.97746586 63.91190794 -23.95425895 57.57535298 -23.875 50.4375 C-23.87645523 49.37544342 -23.87791046 48.31338684 -23.87940979 47.21914673 C-23.87775716 44.98526247 -23.86626767 42.75136607 -23.84545898 40.51757812 C-23.81643528 37.10497614 -23.82487827 33.69392316 -23.83789062 30.28125 C-23.83165446 28.10415915 -23.82326449 25.92707317 -23.8125 23.75 C-23.81543564 22.73424896 -23.81837128 21.71849792 -23.82139587 20.67196655 C-23.72568849 13.46803876 -22.57078561 8.75672197 -17.52758789 3.39697266 C-12.34986938 -0.74658768 -6.34170585 -0.09453776 0 0 Z " fill="#4F5393" transform="translate(184.37890625,386.2734375)"/>
<path d="M0 0 C1.28543198 -0.00099701 2.57086395 -0.00199402 3.89524841 -0.00302124 C6.6063482 -0.00284256 9.31624891 0.01785308 12.02709961 0.05419922 C15.48959472 0.09962168 18.95034509 0.10064721 22.41305637 0.08716393 C25.73390076 0.07884871 29.05421551 0.10284312 32.375 0.125 C33.61262589 0.12317719 34.85025177 0.12135437 36.12538147 0.11947632 C47.03308053 0.29902107 47.03308053 0.29902107 51.62109375 4.7265625 C56.72470943 10.14942019 56.20273252 15.87317248 56.15234375 22.9140625 C56.15808411 24.67786255 56.15808411 24.67786255 56.16394043 26.47729492 C56.16665726 28.95850482 56.15931224 31.43974348 56.14257812 33.92089844 C56.12116726 37.71354169 56.14238971 41.5042905 56.16796875 45.296875 C56.16532544 47.71094167 56.16020039 50.12500717 56.15234375 52.5390625 C56.16044067 53.67045654 56.1685376 54.80185059 56.17687988 55.9675293 C56.1056732 61.96117587 56.05330262 66.25575165 51.62109375 70.7265625 C45.38478501 75.47515191 38.6486281 75.32595154 31.08984375 75.29296875 C29.89935425 75.29916733 28.70886475 75.30536591 27.4822998 75.31175232 C24.97437352 75.31883157 22.46640005 75.31570981 19.95849609 75.30297852 C16.13290584 75.28910534 12.30975939 75.32322669 8.484375 75.36132812 C6.04036399 75.36227934 3.59634993 75.36042036 1.15234375 75.35546875 C0.01567261 75.36872696 -1.12099854 75.38198517 -2.29211426 75.39564514 C-9.12606594 75.31594901 -14.35715967 74.66673465 -19.37890625 69.7265625 C-23.97746586 63.91190794 -23.95425895 57.57535298 -23.875 50.4375 C-23.87645523 49.37544342 -23.87791046 48.31338684 -23.87940979 47.21914673 C-23.87775716 44.98526247 -23.86626767 42.75136607 -23.84545898 40.51757812 C-23.81643528 37.10497614 -23.82487827 33.69392316 -23.83789062 30.28125 C-23.83165446 28.10415915 -23.82326449 25.92707317 -23.8125 23.75 C-23.81543564 22.73424896 -23.81837128 21.71849792 -23.82139587 20.67196655 C-23.72568849 13.46803876 -22.57078561 8.75672197 -17.52758789 3.39697266 C-12.34986938 -0.74658768 -6.34170585 -0.09453776 0 0 Z " fill="#4F5393" transform="translate(76.37890625,386.2734375)"/>
<path d="M0 0 C1.28543198 -0.00099701 2.57086395 -0.00199402 3.89524841 -0.00302124 C6.6063482 -0.00284256 9.31624891 0.01785308 12.02709961 0.05419922 C15.48959472 0.09962168 18.95034509 0.10064721 22.41305637 0.08716393 C25.73390076 0.07884871 29.05421551 0.10284312 32.375 0.125 C33.61262589 0.12317719 34.85025177 0.12135437 36.12538147 0.11947632 C47.03308053 0.29902107 47.03308053 0.29902107 51.62109375 4.7265625 C56.72470943 10.14942019 56.20273252 15.87317248 56.15234375 22.9140625 C56.15808411 24.67786255 56.15808411 24.67786255 56.16394043 26.47729492 C56.16665726 28.95850482 56.15931224 31.43974348 56.14257812 33.92089844 C56.12116726 37.71354169 56.14238971 41.5042905 56.16796875 45.296875 C56.16532544 47.71094167 56.16020039 50.12500717 56.15234375 52.5390625 C56.16044067 53.67045654 56.1685376 54.80185059 56.17687988 55.9675293 C56.1056732 61.96117587 56.05330262 66.25575165 51.62109375 70.7265625 C45.38478501 75.47515191 38.6486281 75.32595154 31.08984375 75.29296875 C29.89935425 75.29916733 28.70886475 75.30536591 27.4822998 75.31175232 C24.97437352 75.31883157 22.46640005 75.31570981 19.95849609 75.30297852 C16.13290584 75.28910534 12.30975939 75.32322669 8.484375 75.36132812 C6.04036399 75.36227934 3.59634993 75.36042036 1.15234375 75.35546875 C0.01567261 75.36872696 -1.12099854 75.38198517 -2.29211426 75.39564514 C-9.12606594 75.31594901 -14.35715967 74.66673465 -19.37890625 69.7265625 C-23.97746586 63.91190794 -23.95425895 57.57535298 -23.875 50.4375 C-23.87645523 49.37544342 -23.87791046 48.31338684 -23.87940979 47.21914673 C-23.87775716 44.98526247 -23.86626767 42.75136607 -23.84545898 40.51757812 C-23.81643528 37.10497614 -23.82487827 33.69392316 -23.83789062 30.28125 C-23.83165446 28.10415915 -23.82326449 25.92707317 -23.8125 23.75 C-23.81543564 22.73424896 -23.81837128 21.71849792 -23.82139587 20.67196655 C-23.72568849 13.46803876 -22.57078561 8.75672197 -17.52758789 3.39697266 C-12.34986938 -0.74658768 -6.34170585 -0.09453776 0 0 Z " fill="#4F5393" transform="translate(292.37890625,386.2734375)"/>
<path d="M0 0 C6.1563653 -0.09908722 12.3122635 -0.17157253 18.46923828 -0.21972656 C20.56241953 -0.23980659 22.65554492 -0.2670764 24.74853516 -0.30175781 C27.76218469 -0.35043434 30.77509073 -0.37300512 33.7890625 -0.390625 C34.72054108 -0.41127014 35.65201965 -0.43191528 36.61172485 -0.45318604 C42.23446701 -0.45511544 45.64009449 0.08685745 50 4 C59.61769203 20.02948672 53 41.30656681 53 60 C-98.8 60 -250.6 60 -407 60 C-407 56.7 -407 53.4 -407 50 C-405.61696895 49.99853479 -405.61696895 49.99853479 -404.20599788 49.99703997 C-349.58523724 49.93890976 -294.96451644 49.86501832 -240.34380519 49.77101372 C-233.78852982 49.75974527 -227.23325424 49.74860686 -220.67797852 49.73754883 C-219.37291603 49.73534514 -218.06785355 49.73314146 -216.72324372 49.730871 C-195.57920411 49.69547818 -174.43516454 49.67062525 -153.29110628 49.64965298 C-131.60272072 49.62790674 -109.91437368 49.59486752 -88.22602087 49.55129844 C-74.83824212 49.52476147 -61.45051137 49.50708116 -48.06270761 49.50065396 C-38.88787775 49.49540635 -29.71310836 49.47921045 -20.53831088 49.45433434 C-15.2413422 49.44029791 -9.94448181 49.43115654 -4.64749336 49.43499184 C0.20045711 49.43839564 5.04817608 49.42807427 9.89607912 49.40676448 C11.65123121 49.40148505 13.40640729 49.40127374 15.16155923 49.40660437 C17.54594084 49.41310921 19.92955643 49.40122295 22.31387424 49.38476086 C23.33793904 49.3941759 23.33793904 49.3941759 24.38269201 49.40378115 C29.34000075 49.34066745 32.67574906 48.27053717 37 46 C41.46958534 40.35420799 42.16512785 35.8281949 42.31640625 28.83203125 C42.34438293 27.77502014 42.34438293 27.77502014 42.3729248 26.69665527 C42.44113311 24.06872893 42.50133886 21.4405998 42.5625 18.8125 C42.706875 12.934375 42.85125 7.05625 43 1 C28.81 1 14.62 1 0 1 C0 0.67 0 0.34 0 0 Z " fill="#E1BB62" transform="translate(433,73)"/>
<path d="M0 0 C8.91 0 17.82 0 27 0 C27 24.09 27 48.18 27 73 C18.09 73 9.18 73 0 73 C0 48.91 0 24.82 0 0 Z " fill="#F27874" transform="translate(242,21)"/>
<path d="M0 0 C8.25 0 16.5 0 25 0 C25 24.09 25 48.18 25 73 C16.75 73 8.5 73 0 73 C0 48.91 0 24.82 0 0 Z " fill="#F27874" transform="translate(84,21)"/>
<path d="M0 0 C14.85 0 29.7 0 45 0 C45 13.2 45 26.4 45 40 C30.15 40 15.3 40 0 40 C0 26.8 0 13.6 0 0 Z " fill="#FEDB7B" transform="translate(405,404)"/>
<path d="M0 0 C14.85 0 29.7 0 45 0 C45 13.2 45 26.4 45 40 C30.15 40 15.3 40 0 40 C0 26.8 0 13.6 0 0 Z " fill="#FEDB7B" transform="translate(286,404)"/>
<path d="M0 0 C14.85 0 29.7 0 45 0 C45 13.2 45 26.4 45 40 C30.15 40 15.3 40 0 40 C0 26.8 0 13.6 0 0 Z " fill="#FEDB7B" transform="translate(178,404)"/>
<path d="M0 0 C14.85 0 29.7 0 45 0 C45 13.2 45 26.4 45 40 C30.15 40 15.3 40 0 40 C0 26.8 0 13.6 0 0 Z " fill="#FEDB7B" transform="translate(70,404)"/>
<path d="M0 0 C14.85 0 29.7 0 45 0 C45 13.2 45 26.4 45 40 C30.15 40 15.3 40 0 40 C0 26.8 0 13.6 0 0 Z " fill="#EFC86D" transform="translate(405,295)"/>
<path d="M0 0 C14.85 0 29.7 0 45 0 C45 13.2 45 26.4 45 40 C30.15 40 15.3 40 0 40 C0 26.8 0 13.6 0 0 Z " fill="#FEDB7B" transform="translate(405,193)"/>
<path d="M0 0 C14.85 0 29.7 0 45 0 C45 13.2 45 26.4 45 40 C30.15 40 15.3 40 0 40 C0 26.8 0 13.6 0 0 Z " fill="#FEDB7B" transform="translate(286,193)"/>
<path d="M0 0 C14.85 0 29.7 0 45 0 C45 13.2 45 26.4 45 40 C30.15 40 15.3 40 0 40 C0 26.8 0 13.6 0 0 Z " fill="#FEDB7B" transform="translate(178,193)"/>
<path d="M0 0 C14.85 0 29.7 0 45 0 C45 13.2 45 26.4 45 40 C30.15 40 15.3 40 0 40 C0 26.8 0 13.6 0 0 Z " fill="#FEDB7B" transform="translate(70,193)"/>
<path d="M0 0 C14.85 0 29.7 0 45 0 C45 13.2 45 26.4 45 40 C38.75198914 40.02290513 32.50412285 40.04283339 26.25610352 40.05493164 C24.12881986 40.05997298 22.00153969 40.06680591 19.87426758 40.07543945 C16.82372174 40.08751379 13.77322155 40.09323014 10.72265625 40.09765625 C9.28672874 40.10539818 9.28672874 40.10539818 7.8217926 40.11329651 C6.94095505 40.11337204 6.06011749 40.11344757 5.15258789 40.11352539 C3.9834359 40.11685631 3.9834359 40.11685631 2.79066467 40.12025452 C1 40 1 40 0 39 C-0.08864512 36.11588825 -0.11528526 33.25517191 -0.09765625 30.37109375 C-0.09664917 29.60543091 -0.09564209 28.83976807 -0.09460449 28.05090332 C-0.08935663 25.17975373 -0.07539547 22.30862542 -0.0625 19.4375 C-0.041875 13.023125 -0.02125 6.60875 0 0 Z " fill="#FEDB7B" transform="translate(286,295)"/>
<path d="M0 0 C14.85 0 29.7 0 45 0 C45 13.2 45 26.4 45 40 C38.75198914 40.02290513 32.50412285 40.04283339 26.25610352 40.05493164 C24.12881986 40.05997298 22.00153969 40.06680591 19.87426758 40.07543945 C16.82372174 40.08751379 13.77322155 40.09323014 10.72265625 40.09765625 C9.28672874 40.10539818 9.28672874 40.10539818 7.8217926 40.11329651 C6.94095505 40.11337204 6.06011749 40.11344757 5.15258789 40.11352539 C3.9834359 40.11685631 3.9834359 40.11685631 2.79066467 40.12025452 C1 40 1 40 0 39 C-0.08864512 36.11588825 -0.11528526 33.25517191 -0.09765625 30.37109375 C-0.09664917 29.60543091 -0.09564209 28.83976807 -0.09460449 28.05090332 C-0.08935663 25.17975373 -0.07539547 22.30862542 -0.0625 19.4375 C-0.041875 13.023125 -0.02125 6.60875 0 0 Z " fill="#FEDB7B" transform="translate(178,295)"/>
<path d="M0 0 C14.85 0 29.7 0 45 0 C45 13.2 45 26.4 45 40 C38.75198914 40.02290513 32.50412285 40.04283339 26.25610352 40.05493164 C24.12881986 40.05997298 22.00153969 40.06680591 19.87426758 40.07543945 C16.82372174 40.08751379 13.77322155 40.09323014 10.72265625 40.09765625 C9.28672874 40.10539818 9.28672874 40.10539818 7.8217926 40.11329651 C6.94095505 40.11337204 6.06011749 40.11344757 5.15258789 40.11352539 C3.9834359 40.11685631 3.9834359 40.11685631 2.79066467 40.12025452 C1 40 1 40 0 39 C-0.08864512 36.11588825 -0.11528526 33.25517191 -0.09765625 30.37109375 C-0.09664917 29.60543091 -0.09564209 28.83976807 -0.09460449 28.05090332 C-0.08935663 25.17975373 -0.07539547 22.30862542 -0.0625 19.4375 C-0.041875 13.023125 -0.02125 6.60875 0 0 Z " fill="#FEDB7B" transform="translate(70,295)"/>
<path d="M0 0 C6.93 0 13.86 0 21 0 C21 24.09 21 48.18 21 73 C14.07 73 7.14 73 0 73 C0 48.91 0 24.82 0 0 Z " fill="#EE7774" transform="translate(395,21)"/>
<path d="M0 0 C0.33 0 0.66 0 1 0 C1 9.57 1 19.14 1 29 C4.34125 28.896875 7.6825 28.79375 11.125 28.6875 C12.16672363 28.66260498 13.20844727 28.63770996 14.28173828 28.61206055 C21.27599668 28.33559967 25.52252293 27.254744 30.82421875 22.4296875 C33.94116322 18.39599466 33.77913998 14.04745644 33.8125 9.125 C33.83763672 8.24585938 33.86277344 7.36671875 33.88867188 6.4609375 C33.94718195 4.3077668 33.97654236 2.15383779 34 0 C37.63 0 41.26 0 45 0 C45 13.2 45 26.4 45 40 C30.15 40 15.3 40 0 40 C0 26.8 0 13.6 0 0 Z " fill="#EEC86D" transform="translate(405,193)"/>
<path d="M0 0 C0.33 0 0.66 0 1 0 C1 9.57 1 19.14 1 29 C4.34125 28.896875 7.6825 28.79375 11.125 28.6875 C12.16672363 28.66260498 13.20844727 28.63770996 14.28173828 28.61206055 C19.61102607 28.40141068 23.31756666 27.7900122 28 25 C28.66 25 29.32 25 30 25 C31.94925284 21.23144452 33.10544474 18.01889874 33.31640625 13.76953125 C33.37924805 12.56586914 33.37924805 12.56586914 33.44335938 11.33789062 C33.48267578 10.50451172 33.52199219 9.67113281 33.5625 8.8125 C33.62727539 7.5450293 33.62727539 7.5450293 33.69335938 6.25195312 C33.79931518 4.16815567 33.9001502 2.08409897 34 0 C37.63 0 41.26 0 45 0 C45 13.2 45 26.4 45 40 C30.15 40 15.3 40 0 40 C0 26.8 0 13.6 0 0 Z " fill="#EEC86D" transform="translate(405,404)"/>
<path d="M0 0 C0.33 0 0.66 0 1 0 C1 9.57 1 19.14 1 29 C4.3 28.9175 7.6 28.835 11 28.75 C12.02351563 28.73420898 13.04703125 28.71841797 14.1015625 28.70214844 C20.15466694 28.47960783 25.02674137 27.61948223 30 24 C33.88186552 19.76171569 33.54469525 14.65896211 33.6875 9.1875 C33.72166016 8.30384766 33.75582031 7.42019531 33.79101562 6.50976562 C33.87310433 4.34027833 33.93823879 2.1701611 34 0 C37.63 0 41.26 0 45 0 C45 13.2 45 26.4 45 40 C30.15 40 15.3 40 0 40 C0 26.8 0 13.6 0 0 Z " fill="#F0C96C" transform="translate(286,193)"/>
<path d="M0 0 C0.33 0 0.66 0 1 0 C1 9.57 1 19.14 1 29 C4.3 28.9175 7.6 28.835 11 28.75 C12.02351562 28.73420898 13.04703125 28.71841797 14.1015625 28.70214844 C20.15466694 28.47960783 25.02674137 27.61948223 30 24 C33.88186552 19.76171569 33.54469525 14.65896211 33.6875 9.1875 C33.72166016 8.30384766 33.75582031 7.42019531 33.79101562 6.50976562 C33.87310433 4.34027833 33.93823879 2.1701611 34 0 C37.63 0 41.26 0 45 0 C45 13.2 45 26.4 45 40 C30.15 40 15.3 40 0 40 C0 26.8 0 13.6 0 0 Z " fill="#F0C96C" transform="translate(178,193)"/>
<path d="M0 0 C0.33 0 0.66 0 1 0 C1 9.57 1 19.14 1 29 C4.3 28.9175 7.6 28.835 11 28.75 C12.02351563 28.73420898 13.04703125 28.71841797 14.1015625 28.70214844 C20.15466694 28.47960783 25.02674137 27.61948223 30 24 C33.88186552 19.76171569 33.54469525 14.65896211 33.6875 9.1875 C33.72166016 8.30384766 33.75582031 7.42019531 33.79101562 6.50976562 C33.87310433 4.34027833 33.93823879 2.1701611 34 0 C37.63 0 41.26 0 45 0 C45 13.2 45 26.4 45 40 C30.15 40 15.3 40 0 40 C0 26.8 0 13.6 0 0 Z " fill="#F0C96C" transform="translate(70,193)"/>
<path d="M0 0 C0.33 0 0.66 0 1 0 C1 9.57 1 19.14 1 29 C4.3 28.9175 7.6 28.835 11 28.75 C12.02351563 28.73420898 13.04703125 28.71841797 14.1015625 28.70214844 C20.15466694 28.47960783 25.02674137 27.61948223 30 24 C33.88186552 19.76171569 33.54469525 14.65896211 33.6875 9.1875 C33.72166016 8.30384766 33.75582031 7.42019531 33.79101562 6.50976562 C33.87310433 4.34027833 33.93823879 2.1701611 34 0 C37.63 0 41.26 0 45 0 C45 13.2 45 26.4 45 40 C30.15 40 15.3 40 0 40 C0 26.8 0 13.6 0 0 Z " fill="#F0C96C" transform="translate(286,404)"/>
<path d="M0 0 C0.33 0 0.66 0 1 0 C1 9.57 1 19.14 1 29 C4.3 28.9175 7.6 28.835 11 28.75 C12.02351563 28.73420898 13.04703125 28.71841797 14.1015625 28.70214844 C20.15466694 28.47960783 25.02674137 27.61948223 30 24 C33.88186552 19.76171569 33.54469525 14.65896211 33.6875 9.1875 C33.72166016 8.30384766 33.75582031 7.42019531 33.79101562 6.50976562 C33.87310433 4.34027833 33.93823879 2.1701611 34 0 C37.63 0 41.26 0 45 0 C45 13.2 45 26.4 45 40 C38.75198914 40.02290513 32.50412285 40.04283339 26.25610352 40.05493164 C24.12881986 40.05997298 22.00153969 40.06680591 19.87426758 40.07543945 C16.82372174 40.08751379 13.77322155 40.09323014 10.72265625 40.09765625 C9.28672874 40.10539818 9.28672874 40.10539818 7.8217926 40.11329651 C6.94095505 40.11337204 6.06011749 40.11344757 5.15258789 40.11352539 C3.9834359 40.11685631 3.9834359 40.11685631 2.79066467 40.12025452 C1 40 1 40 0 39 C-0.08865208 36.1156618 -0.11521296 33.25537842 -0.09765625 30.37109375 C-0.0962413 29.50686295 -0.09482635 28.64263214 -0.09336853 27.75221252 C-0.08775239 24.98060708 -0.07519719 22.2090812 -0.0625 19.4375 C-0.05748708 17.5631522 -0.05292381 15.68880315 -0.04882812 13.81445312 C-0.03777772 9.20960456 -0.0205023 4.60481579 0 0 Z " fill="#F0C96B" transform="translate(286,295)"/>
<path d="M0 0 C0.33 0 0.66 0 1 0 C1 9.57 1 19.14 1 29 C4.3 28.9175 7.6 28.835 11 28.75 C12.02351562 28.73420898 13.04703125 28.71841797 14.1015625 28.70214844 C20.15466694 28.47960783 25.02674137 27.61948223 30 24 C33.88186552 19.76171569 33.54469525 14.65896211 33.6875 9.1875 C33.72166016 8.30384766 33.75582031 7.42019531 33.79101562 6.50976562 C33.87310433 4.34027833 33.93823879 2.1701611 34 0 C37.63 0 41.26 0 45 0 C45 13.2 45 26.4 45 40 C38.75198914 40.02290513 32.50412285 40.04283339 26.25610352 40.05493164 C24.12881986 40.05997298 22.00153969 40.06680591 19.87426758 40.07543945 C16.82372174 40.08751379 13.77322155 40.09323014 10.72265625 40.09765625 C9.28672874 40.10539818 9.28672874 40.10539818 7.8217926 40.11329651 C6.94095505 40.11337204 6.06011749 40.11344757 5.15258789 40.11352539 C3.9834359 40.11685631 3.9834359 40.11685631 2.79066467 40.12025452 C1 40 1 40 0 39 C-0.08865208 36.1156618 -0.11521296 33.25537842 -0.09765625 30.37109375 C-0.0962413 29.50686295 -0.09482635 28.64263214 -0.09336853 27.75221252 C-0.08775239 24.98060708 -0.07519719 22.2090812 -0.0625 19.4375 C-0.05748708 17.5631522 -0.05292381 15.68880315 -0.04882812 13.81445312 C-0.03777772 9.20960456 -0.0205023 4.60481579 0 0 Z " fill="#F0C96B" transform="translate(178,295)"/>
<path d="M0 0 C0.33 0 0.66 0 1 0 C1 9.57 1 19.14 1 29 C4.3 28.9175 7.6 28.835 11 28.75 C12.02351563 28.73420898 13.04703125 28.71841797 14.1015625 28.70214844 C20.15466694 28.47960783 25.02674137 27.61948223 30 24 C33.88186552 19.76171569 33.54469525 14.65896211 33.6875 9.1875 C33.72166016 8.30384766 33.75582031 7.42019531 33.79101562 6.50976562 C33.87310433 4.34027833 33.93823879 2.1701611 34 0 C37.63 0 41.26 0 45 0 C45 13.2 45 26.4 45 40 C38.75198914 40.02290513 32.50412285 40.04283339 26.25610352 40.05493164 C24.12881986 40.05997298 22.00153969 40.06680591 19.87426758 40.07543945 C16.82372174 40.08751379 13.77322155 40.09323014 10.72265625 40.09765625 C9.28672874 40.10539818 9.28672874 40.10539818 7.8217926 40.11329651 C6.94095505 40.11337204 6.06011749 40.11344757 5.15258789 40.11352539 C3.9834359 40.11685631 3.9834359 40.11685631 2.79066467 40.12025452 C1 40 1 40 0 39 C-0.08865208 36.1156618 -0.11521296 33.25537842 -0.09765625 30.37109375 C-0.0962413 29.50686295 -0.09482635 28.64263214 -0.09336853 27.75221252 C-0.08775239 24.98060708 -0.07519719 22.2090812 -0.0625 19.4375 C-0.05748708 17.5631522 -0.05292381 15.68880315 -0.04882812 13.81445312 C-0.03777772 9.20960456 -0.0205023 4.60481579 0 0 Z " fill="#F0C96B" transform="translate(70,295)"/>
<path d="M0 0 C0.33 0 0.66 0 1 0 C1 9.57 1 19.14 1 29 C4.485625 28.9175 7.97125 28.835 11.5625 28.75 C13.18973999 28.72631348 13.18973999 28.72631348 14.84985352 28.70214844 C21.0407621 28.48574284 25.02611755 27.79086967 30 24 C33.83413469 19.6757285 33.54369877 14.69714124 33.6875 9.1875 C33.72166016 8.30384766 33.75582031 7.42019531 33.79101562 6.50976562 C33.87310433 4.34027833 33.93823879 2.1701611 34 0 C37.63 0 41.26 0 45 0 C45 13.2 45 26.4 45 40 C30.15 40 15.3 40 0 40 C0 26.8 0 13.6 0 0 Z " fill="#F0C96C" transform="translate(70,404)"/>
<path d="M0 0 C0.33 0 0.66 0 1 0 C1 9.57 1 19.14 1 29 C4.465 28.938125 7.93 28.87625 11.5 28.8125 C12.57572266 28.80581299 13.65144531 28.79912598 14.75976562 28.79223633 C21.18630281 28.58533029 26.20790533 27.52713253 31 23 C32.80904172 20.12793233 33.27761276 17.81888537 33.4140625 14.453125 C33.45273438 13.60878906 33.49140625 12.76445312 33.53125 11.89453125 C33.5621875 11.02183594 33.593125 10.14914062 33.625 9.25 C33.66367188 8.36183594 33.70234375 7.47367187 33.7421875 6.55859375 C33.83620322 4.37272833 33.91918002 2.18639308 34 0 C37.63 0 41.26 0 45 0 C45 13.2 45 26.4 45 40 C30.15 40 15.3 40 0 40 C0 26.8 0 13.6 0 0 Z " fill="#F0C96C" transform="translate(178,404)"/>
<path d="M0 0 C10.89 0 21.78 0 33 0 C33.061875 2.68125 33.12375 5.3625 33.1875 8.125 C33.22846802 9.37434326 33.22846802 9.37434326 33.27026367 10.64892578 C33.33691975 16.65657322 32.00953932 20.67647016 28 25.3125 C24.68824178 28.106796 21.84257603 28.12067722 17.67578125 28.09765625 C16.74934814 28.09515869 15.82291504 28.09266113 14.8684082 28.09008789 C13.6949585 28.08098389 12.52150879 28.07187988 11.3125 28.0625 C7.579375 28.041875 3.84625 28.02125 0 28 C0 18.76 0 9.52 0 0 Z " fill="#FEDB7B" transform="translate(406,295)"/>
<path d="M0 0 C0.33 0 0.66 0 1 0 C1 11.55 1 23.1 1 35 C7.9609375 34.8453125 7.9609375 34.8453125 15.0625 34.6875 C16.51277588 34.66260498 17.96305176 34.63770996 19.45727539 34.61206055 C28.70868726 34.52141674 28.70868726 34.52141674 37 31 C41.25034619 25.65420376 40.55856926 18.65257902 40.6875 12.125 C40.72166016 10.9596875 40.75582031 9.794375 40.79101562 8.59375 C40.87319354 5.72926282 40.94244421 2.86507015 41 0 C42.32 0 43.64 0 45 0 C45 13.2 45 26.4 45 40 C38.75198914 40.02290513 32.50412285 40.04283339 26.25610352 40.05493164 C24.12881986 40.05997298 22.00153969 40.06680591 19.87426758 40.07543945 C16.82372174 40.08751379 13.77322155 40.09323014 10.72265625 40.09765625 C9.28672874 40.10539818 9.28672874 40.10539818 7.8217926 40.11329651 C6.94095505 40.11337204 6.06011749 40.11344757 5.15258789 40.11352539 C3.9834359 40.11685631 3.9834359 40.11685631 2.79066467 40.12025452 C1 40 1 40 0 39 C-0.08865208 36.1156618 -0.11521296 33.25537842 -0.09765625 30.37109375 C-0.0962413 29.50686295 -0.09482635 28.64263214 -0.09336853 27.75221252 C-0.08775239 24.98060708 -0.07519719 22.2090812 -0.0625 19.4375 C-0.05748708 17.5631522 -0.05292381 15.68880315 -0.04882812 13.81445312 C-0.03777772 9.20960456 -0.0205023 4.60481579 0 0 Z " fill="#DAB667" transform="translate(286,295)"/>
<path d="M0 0 C0.33 0 0.66 0 1 0 C1 11.55 1 23.1 1 35 C8.486875 34.87625 8.486875 34.87625 16.125 34.75 C17.68879395 34.73420898 19.25258789 34.71841797 20.86376953 34.70214844 C22.10755371 34.6715332 23.35133789 34.64091797 24.6328125 34.609375 C26.53377686 34.5779541 26.53377686 34.5779541 28.47314453 34.54589844 C32.59811894 33.90742116 34.79022772 32.63049562 38 30 C40.66009126 24.01868368 40.43243372 17.52550562 40.625 11.0625 C40.66367187 9.99708984 40.70234375 8.93167969 40.7421875 7.83398438 C40.83586146 5.22282266 40.92158335 2.61165696 41 0 C42.32 0 43.64 0 45 0 C45 13.2 45 26.4 45 40 C30.15 40 15.3 40 0 40 C0 26.8 0 13.6 0 0 Z " fill="#DDB866" transform="translate(286,404)"/>
<path d="M0 0 C0.33 0 0.66 0 1 0 C1 11.55 1 23.1 1 35 C5.82625 34.896875 10.6525 34.79375 15.625 34.6875 C17.13658691 34.66260498 18.64817383 34.63770996 20.20556641 34.61206055 C22.01033447 34.56239136 22.01033447 34.56239136 23.8515625 34.51171875 C25.07697754 34.48553467 26.30239258 34.45935059 27.56494141 34.43237305 C31.3235148 33.95927898 33.7729877 32.95593506 37 31 C41.19242411 25.54716694 40.5574613 18.70867382 40.6875 12.125 C40.72166016 10.9596875 40.75582031 9.794375 40.79101562 8.59375 C40.87319354 5.72926282 40.94244421 2.86507015 41 0 C42.32 0 43.64 0 45 0 C45 13.2 45 26.4 45 40 C30.15 40 15.3 40 0 40 C0 26.8 0 13.6 0 0 Z " fill="#DCB866" transform="translate(286,193)"/>
<path d="M0 0 C0.33 0 0.66 0 1 0 C1 11.55 1 23.1 1 35 C5.82625 34.896875 10.6525 34.79375 15.625 34.6875 C17.13658691 34.66260498 18.64817383 34.63770996 20.20556641 34.61206055 C22.01033447 34.56239136 22.01033447 34.56239136 23.8515625 34.51171875 C25.07697754 34.48553467 26.30239258 34.45935059 27.56494141 34.43237305 C31.3235148 33.95927898 33.7729877 32.95593506 37 31 C41.19242411 25.54716694 40.5574613 18.70867382 40.6875 12.125 C40.72166016 10.9596875 40.75582031 9.794375 40.79101562 8.59375 C40.87319354 5.72926282 40.94244421 2.86507015 41 0 C42.32 0 43.64 0 45 0 C45 13.2 45 26.4 45 40 C30.15 40 15.3 40 0 40 C0 26.8 0 13.6 0 0 Z " fill="#DCB866" transform="translate(178,193)"/>
<path d="M0 0 C0.33 0 0.66 0 1 0 C1 11.55 1 23.1 1 35 C5.82625 34.896875 10.6525 34.79375 15.625 34.6875 C17.13658691 34.66260498 18.64817383 34.63770996 20.20556641 34.61206055 C22.01033447 34.56239136 22.01033447 34.56239136 23.8515625 34.51171875 C25.07697754 34.48553467 26.30239258 34.45935059 27.56494141 34.43237305 C31.3235148 33.95927898 33.7729877 32.95593506 37 31 C41.19242411 25.54716694 40.5574613 18.70867382 40.6875 12.125 C40.72166016 10.9596875 40.75582031 9.794375 40.79101562 8.59375 C40.87319354 5.72926282 40.94244421 2.86507015 41 0 C42.32 0 43.64 0 45 0 C45 13.2 45 26.4 45 40 C30.15 40 15.3 40 0 40 C0 26.8 0 13.6 0 0 Z " fill="#DCB866" transform="translate(70,193)"/>
<path d="M0 0 C0.33 0 0.66 0 1 0 C1 11.55 1 23.1 1 35 C6.011875 34.896875 11.02375 34.79375 16.1875 34.6875 C17.76039795 34.66260498 19.3332959 34.63770996 20.95385742 34.61206055 C22.20013916 34.57894775 23.4464209 34.54583496 24.73046875 34.51171875 C26.00301514 34.48553467 27.27556152 34.45935059 28.58666992 34.43237305 C32.20552457 33.97396581 34.10436521 33.17139823 37 31 C41.13013797 25.43844556 40.55629107 18.76792071 40.6875 12.125 C40.72166016 10.9596875 40.75582031 9.794375 40.79101562 8.59375 C40.87319354 5.72926282 40.94244421 2.86507015 41 0 C42.32 0 43.64 0 45 0 C45 13.2 45 26.4 45 40 C38.75198914 40.02290513 32.50412285 40.04283339 26.25610352 40.05493164 C24.12881986 40.05997298 22.00153969 40.06680591 19.87426758 40.07543945 C16.82372174 40.08751379 13.77322155 40.09323014 10.72265625 40.09765625 C9.28672874 40.10539818 9.28672874 40.10539818 7.8217926 40.11329651 C6.94095505 40.11337204 6.06011749 40.11344757 5.15258789 40.11352539 C3.9834359 40.11685631 3.9834359 40.11685631 2.79066467 40.12025452 C1 40 1 40 0 39 C-0.08865208 36.1156618 -0.11521296 33.25537842 -0.09765625 30.37109375 C-0.0962413 29.50686295 -0.09482635 28.64263214 -0.09336853 27.75221252 C-0.08775239 24.98060708 -0.07519719 22.2090812 -0.0625 19.4375 C-0.05748708 17.5631522 -0.05292381 15.68880315 -0.04882812 13.81445312 C-0.03777772 9.20960456 -0.0205023 4.60481579 0 0 Z " fill="#DAB667" transform="translate(178,295)"/>
<path d="M0 0 C0.33 0 0.66 0 1 0 C1 11.55 1 23.1 1 35 C6.011875 34.896875 11.02375 34.79375 16.1875 34.6875 C17.76039795 34.66260498 19.3332959 34.63770996 20.95385742 34.61206055 C22.20013916 34.57894775 23.4464209 34.54583496 24.73046875 34.51171875 C26.00301514 34.48553467 27.27556152 34.45935059 28.58666992 34.43237305 C32.20552457 33.97396581 34.10436521 33.17139823 37 31 C41.13013797 25.43844556 40.55629107 18.76792071 40.6875 12.125 C40.72166016 10.9596875 40.75582031 9.794375 40.79101562 8.59375 C40.87319354 5.72926282 40.94244421 2.86507015 41 0 C42.32 0 43.64 0 45 0 C45 13.2 45 26.4 45 40 C38.75198914 40.02290513 32.50412285 40.04283339 26.25610352 40.05493164 C24.12881986 40.05997298 22.00153969 40.06680591 19.87426758 40.07543945 C16.82372174 40.08751379 13.77322155 40.09323014 10.72265625 40.09765625 C9.28672874 40.10539818 9.28672874 40.10539818 7.8217926 40.11329651 C6.94095505 40.11337204 6.06011749 40.11344757 5.15258789 40.11352539 C3.9834359 40.11685631 3.9834359 40.11685631 2.79066467 40.12025452 C1 40 1 40 0 39 C-0.08865208 36.1156618 -0.11521296 33.25537842 -0.09765625 30.37109375 C-0.0962413 29.50686295 -0.09482635 28.64263214 -0.09336853 27.75221252 C-0.08775239 24.98060708 -0.07519719 22.2090812 -0.0625 19.4375 C-0.05748708 17.5631522 -0.05292381 15.68880315 -0.04882812 13.81445312 C-0.03777772 9.20960456 -0.0205023 4.60481579 0 0 Z " fill="#DAB667" transform="translate(70,295)"/>
<path d="M0 0 C0.33 0 0.66 0 1 0 C1 11.55 1 23.1 1 35 C8.486875 34.87625 8.486875 34.87625 16.125 34.75 C17.68879395 34.73420898 19.25258789 34.71841797 20.86376953 34.70214844 C22.10755371 34.6715332 23.35133789 34.64091797 24.6328125 34.609375 C26.53377686 34.5779541 26.53377686 34.5779541 28.47314453 34.54589844 C32.64935022 33.89949141 34.79657874 32.73438451 38 30 C40.04241638 26.40045366 40.28808384 23.1372751 40.4140625 19.04296875 C40.45273438 17.93115234 40.49140625 16.81933594 40.53125 15.67382812 C40.5621875 14.52333984 40.593125 13.37285156 40.625 12.1875 C40.66367188 11.01767578 40.70234375 9.84785156 40.7421875 8.64257812 C40.8362513 5.76187436 40.92189877 2.88117346 41 0 C42.32 0 43.64 0 45 0 C45 13.2 45 26.4 45 40 C30.15 40 15.3 40 0 40 C0 26.8 0 13.6 0 0 Z " fill="#DDB866" transform="translate(178,404)"/>
<path d="M0 0 C0.33 0 0.66 0 1 0 C1 11.55 1 23.1 1 35 C8.486875 34.87625 8.486875 34.87625 16.125 34.75 C17.68879395 34.73420898 19.25258789 34.71841797 20.86376953 34.70214844 C22.10755371 34.6715332 23.35133789 34.64091797 24.6328125 34.609375 C26.53377686 34.5779541 26.53377686 34.5779541 28.47314453 34.54589844 C32.62341506 33.90350574 34.78428918 32.66944658 38 30 C40.30213302 26.80884204 40.30027291 23.79072105 40.4140625 19.921875 C40.45273438 18.76171875 40.49140625 17.6015625 40.53125 16.40625 C40.57765625 14.59640625 40.57765625 14.59640625 40.625 12.75 C40.66367188 11.52796875 40.70234375 10.3059375 40.7421875 9.046875 C40.83642108 6.0314006 40.92203455 3.01593172 41 0 C42.32 0 43.64 0 45 0 C45 13.2 45 26.4 45 40 C30.15 40 15.3 40 0 40 C0 26.8 0 13.6 0 0 Z " fill="#DDB866" transform="translate(70,404)"/>
<path d="M0 0 C1.32 0 2.64 0 4 0 C4 13.2 4 26.4 4 40 C-10.85 40 -25.7 40 -41 40 C-41 38.35 -41 36.7 -41 35 C-39.67609253 34.970271 -39.67609253 34.970271 -38.32543945 34.93994141 C-35.03578043 34.86162134 -31.74656036 34.77492145 -28.45727539 34.68261719 C-27.0364627 34.64444851 -25.61555737 34.60957487 -24.19458008 34.578125 C-22.14631145 34.53220935 -20.09867392 34.47426195 -18.05078125 34.4140625 C-16.82012939 34.3826416 -15.58947754 34.3512207 -14.3215332 34.31884766 C-9.59504957 33.86513302 -6.94343592 33.04826214 -3.75 29.5 C-1.17495658 25.82136654 -0.8414888 23.80211174 -0.68359375 19.3359375 C-0.62075195 17.65371094 -0.62075195 17.65371094 -0.55664062 15.9375 C-0.51732422 14.761875 -0.47800781 13.58625 -0.4375 12.375 C-0.37272461 10.59996094 -0.37272461 10.59996094 -0.30664062 8.7890625 C-0.20032574 5.85949672 -0.09829358 2.92984412 0 0 Z " fill="#DDB864" transform="translate(446,295)"/>
<path d="M0 0 C1.32 0 2.64 0 4 0 C4 13.2 4 26.4 4 40 C-10.85 40 -25.7 40 -41 40 C-41 38.35 -41 36.7 -41 35 C-39.6385083 34.970271 -39.6385083 34.970271 -38.24951172 34.93994141 C-34.86106883 34.86154333 -31.47304498 34.7748408 -28.08496094 34.68261719 C-26.62247811 34.64448794 -25.15990662 34.60960786 -23.69726562 34.578125 C-21.58691868 34.53212289 -19.47717366 34.47419059 -17.3671875 34.4140625 C-16.09987793 34.3826416 -14.83256836 34.3512207 -13.52685547 34.31884766 C-10.01509797 34.00136494 -7.23428287 33.39455482 -4 32 C-2.61141128 29.57114212 -2.61141128 29.57114212 -2 27 C-1.67 26.34 -1.34 25.68 -1 25 C-0.84655791 23.11527141 -0.75040429 21.22572126 -0.68359375 19.3359375 C-0.62075195 17.65371094 -0.62075195 17.65371094 -0.55664062 15.9375 C-0.51732422 14.761875 -0.47800781 13.58625 -0.4375 12.375 C-0.37272461 10.59996094 -0.37272461 10.59996094 -0.30664062 8.7890625 C-0.20032574 5.85949672 -0.09829358 2.92984412 0 0 Z " fill="#E0BA63" transform="translate(446,193)"/>
<path d="M0 0 C1.32 0 2.64 0 4 0 C4 13.2 4 26.4 4 40 C-10.85 40 -25.7 40 -41 40 C-41 38.35 -41 36.7 -41 35 C-40.09233887 34.98541748 -39.18467773 34.97083496 -38.24951172 34.95581055 C-34.8609069 34.89451851 -31.47308311 34.82032424 -28.08496094 34.73754883 C-26.62250292 34.70442865 -25.15992105 34.67635695 -23.69726562 34.65356445 C-21.58670597 34.61977825 -19.47726814 34.5674562 -17.3671875 34.51171875 C-16.09987793 34.48553467 -14.83256836 34.45935059 -13.52685547 34.43237305 C-9.71656331 33.96525222 -7.26465812 32.98894588 -4 31 C0.19242411 25.54716694 -0.4425387 18.70867382 -0.3125 12.125 C-0.27833984 10.9596875 -0.24417969 9.794375 -0.20898438 8.59375 C-0.12680646 5.72926282 -0.05755579 2.86507015 0 0 Z " fill="#E1BB63" transform="translate(446,404)"/>
</svg>
