<?xml version="1.0" encoding="UTF-8"?>
<svg version="1.1" xmlns="http://www.w3.org/2000/svg" width="512" height="512">
<path d="M0 0 C11.54691715 9.67828676 19.88563098 21.68130699 24.66552734 36.02099609 C25.2401493 36.0219729 25.81477125 36.02294971 26.40680599 36.02395612 C60.46884266 36.08223695 94.5308077 36.15604038 128.5927645 36.24998238 C132.68326196 36.26125044 136.77375977 36.27238891 140.86425781 36.28344727 C142.08576684 36.28675279 142.08576684 36.28675279 143.33195281 36.29012509 C156.51501907 36.32549077 169.69808526 36.35035902 182.88118136 36.37134311 C196.4097664 36.39311098 209.93828992 36.42617077 223.46682262 36.46969765 C231.81364429 36.49619739 240.16038931 36.51390511 248.50725096 36.52034213 C254.23217312 36.52560115 259.95699886 36.54183538 265.68186933 36.56666175 C268.98410227 36.58065925 272.28612875 36.58822645 275.58839607 36.58600426 C279.17225124 36.58435395 282.75557338 36.60103132 286.33935547 36.62226868 C287.37828162 36.6174211 288.41720778 36.61257352 289.48761654 36.60757905 C298.02842766 36.69111087 304.81067368 38.40201207 311.18896484 44.37255859 C315.92585571 49.66083359 316.21442619 55.24055966 316.00927734 62.08740234 C315.19696312 69.01976579 311.9073671 73.31499456 306.73974609 77.79443359 C300.39097286 81.54869875 293.61206136 81.31275137 286.45960999 81.29946899 C284.77842383 81.3081576 284.77842383 81.3081576 283.06327432 81.31702173 C279.31225453 81.3340106 275.56135787 81.33689733 271.81030273 81.33984375 C269.11964215 81.34914269 266.42899511 81.35922437 263.73834229 81.37028503 C257.94787681 81.39252941 252.15742893 81.40755964 246.36693001 81.41765213 C237.99490802 81.43225455 229.62294732 81.45779575 221.25096136 81.48598342 C207.66707968 81.53142302 194.08318916 81.56804952 180.49926758 81.59912109 C167.30589242 81.62931824 154.11253887 81.66367386 140.91918945 81.70361328 C140.10557872 81.70607483 139.291968 81.70853638 138.4537024 81.71107252 C134.37194518 81.72344735 130.29018821 81.73590384 126.20843136 81.74840093 C92.36082607 81.85192632 58.51319673 81.94114355 24.66552734 82.02099609 C24.27155762 82.96998779 23.87758789 83.91897949 23.47167969 84.89672852 C22.94019402 86.16091352 22.40844152 87.42498637 21.87646484 88.68896484 C21.61857178 89.31218628 21.36067871 89.93540771 21.0949707 90.57751465 C18.65997423 96.33656445 15.54940703 101.1516544 11.66552734 106.02099609 C11.07126953 106.77896484 10.47701172 107.53693359 9.86474609 108.31787109 C-1.93150562 122.4831423 -19.00871788 131.92824015 -37.33447266 134.02099609 C-58.41284424 135.5259366 -77.21900837 130.86395221 -94.33447266 118.02099609 C-105.93219659 107.92195014 -114.19044264 95.83841969 -118.33447266 81.02099609 C-119.06839233 81.02765793 -119.80231201 81.03431976 -120.55847168 81.04118347 C-127.50194956 81.10149354 -134.44538787 81.14707118 -141.38906097 81.17643261 C-144.95821887 81.19203557 -148.52715887 81.21317428 -152.09619141 81.24731445 C-155.54566058 81.28010144 -158.99492123 81.29788942 -162.4445343 81.30562782 C-164.38981001 81.3138034 -166.33500278 81.33719155 -168.28015137 81.36088562 C-177.65048502 81.36265405 -184.81279818 80.26417311 -191.85791016 73.66943359 C-196.59480103 68.3811586 -196.8833715 62.80143253 -196.67822266 55.95458984 C-195.86590843 49.0222264 -192.57631241 44.72699763 -187.40869141 40.24755859 C-180.32413037 36.05819482 -172.48853284 36.76128243 -164.52587891 36.82568359 C-163.19067091 36.82941942 -161.85546015 36.8322637 -160.52024841 36.83425903 C-157.02678699 36.84185069 -153.5334951 36.86146003 -150.0401001 36.88366699 C-146.46702364 36.90422238 -142.89391947 36.91328136 -139.32080078 36.92333984 C-132.32528897 36.94471075 -125.32988898 36.9787919 -118.33447266 37.02099609 C-118.13712524 36.33854828 -117.93977783 35.65610046 -117.7364502 34.95297241 C-117.34121155 33.60678329 -117.34121155 33.60678329 -116.93798828 32.23339844 C-116.67876587 31.34470062 -116.41954346 30.45600281 -116.15246582 29.54037476 C-110.98108309 13.61277063 -96.19451076 -0.09113997 -81.81103516 -7.75244141 C-54.96092822 -21.0504439 -23.77154371 -18.86212986 0 0 Z M-71.33447266 39.02099609 C-77.46297725 47.06271405 -79.49285691 54.94914981 -78.33447266 65.02099609 C-75.89789408 74.20066422 -71.31666378 81.35690403 -63.14697266 86.36083984 C-54.62474771 90.76294501 -45.13649862 91.82208319 -35.92431641 88.96240234 C-26.91006534 84.75727131 -20.7381147 78.72125935 -17.05712891 69.43115234 C-14.52081983 60.97221885 -14.93952001 53.17383859 -18.33447266 45.02099609 C-22.35757047 37.79941058 -29.31280993 31.48175512 -37.09619141 28.49365234 C-50.85040102 25.58918574 -61.89971255 28.86523904 -71.33447266 39.02099609 Z " fill="#000000" transform="translate(196.33447265625,196.97900390625)"/>
<path d="M0 0 C1.05574219 -0.01611328 2.11148437 -0.03222656 3.19921875 -0.04882812 C13.90755505 -0.05538157 23.52376872 2.12305059 33 7.125 C33.6811084 7.4753833 34.3622168 7.8257666 35.06396484 8.18676758 C40.01508108 10.7892774 44.47646248 13.69318304 48.75 17.3125 C50.2040625 18.364375 50.2040625 18.364375 51.6875 19.4375 C61.04169749 27.4444897 69.54564021 41.15890651 71.75 53.3125 C72.50897583 53.30361755 73.26795166 53.29473511 74.04992676 53.2855835 C81.22887712 53.20518505 88.40760688 53.14440831 95.58689117 53.10525131 C99.27719955 53.0844429 102.96713358 53.05625081 106.65722656 53.01074219 C110.22342061 52.96704057 113.78925631 52.94331224 117.35569763 52.93299103 C119.36750112 52.92208506 121.37916196 52.89089809 123.39074707 52.85931396 C132.2686149 52.85715208 137.64966953 53.84999872 144.5625 59.6875 C149.5526639 65.67569668 150.30840194 70.4365879 150.08984375 78.12109375 C149.49924817 83.66726147 147.93142575 87.3110309 143.80859375 91.09375 C138.71122428 95.0740164 135.15408632 96.43905506 128.6262207 96.42602539 C127.36513992 96.42594986 126.10405914 96.42587433 124.80476379 96.42579651 C123.42843588 96.42068989 122.05210837 96.41547389 120.67578125 96.41015625 C119.26759389 96.40829086 117.85940589 96.40686753 116.45121765 96.40586853 C112.7473267 96.40205288 109.04347505 96.39223072 105.33959961 96.38116455 C101.55908744 96.37092997 97.77856891 96.36636652 93.99804688 96.36132812 C86.58201335 96.3506076 79.16601218 96.3335426 71.75 96.3125 C71.61658203 97.06321777 71.48316406 97.81393555 71.34570312 98.58740234 C67.4100722 116.59130084 52.83042738 130.96754843 37.9375 140.5625 C19.53696432 151.07709182 -0.99588929 152.82877887 -21.25 147.3125 C-31.07198415 144.27042352 -39.24639001 139.83790581 -47.25 133.3125 C-47.87003906 132.86648438 -48.49007813 132.42046875 -49.12890625 131.9609375 C-60.09187478 123.66876176 -67.62029918 109.23389606 -71.25 96.3125 C-71.83096986 96.31401888 -72.41193973 96.31553776 -73.01051474 96.31710267 C-107.44824834 96.40662704 -141.8859587 96.47525231 -176.32378396 96.51676132 C-180.45934576 96.52176411 -184.59490731 96.5269414 -188.73046875 96.53222656 C-189.55377994 96.5332758 -190.37709114 96.53432505 -191.22535115 96.53540608 C-204.55396085 96.55280837 -217.8825015 96.58434509 -231.21107024 96.62111118 C-244.88877466 96.6585255 -258.56644292 96.68073689 -272.24419641 96.68885398 C-280.68321935 96.69434074 -289.1220471 96.71166628 -297.56100994 96.74416587 C-303.34897874 96.76531983 -309.13684672 96.77169806 -314.92485136 96.76650551 C-318.26369151 96.76394501 -321.60191608 96.77004324 -324.94074249 96.7893219 C-328.56407928 96.80921839 -332.18658046 96.8044393 -335.80993652 96.79351807 C-336.86053552 96.80516943 -337.91113452 96.8168208 -338.99356985 96.82882524 C-346.27544417 96.7694867 -352.00943178 95.51617371 -357.30859375 90.27734375 C-357.99115234 89.27380859 -357.99115234 89.27380859 -358.6875 88.25 C-359.39712891 87.24259766 -359.39712891 87.24259766 -360.12109375 86.21484375 C-363.34853519 80.77621405 -362.85851447 74.41179622 -362.25 68.3125 C-360.27865634 61.99314603 -356.81974547 58.38270758 -351.1171875 55.1875 C-347.81140953 53.63834882 -345.18929654 53.18531524 -341.5860796 53.1738348 C-340.62217267 53.16836036 -339.65826574 53.16288591 -338.66514951 53.15724558 C-337.07324112 53.15577842 -337.07324112 53.15577842 -335.44917297 53.15428162 C-333.76086271 53.14687465 -333.76086271 53.14687465 -332.03844517 53.13931805 C-328.24739272 53.12389653 -324.45635726 53.11556983 -320.6652832 53.10717773 C-317.95551172 53.09815288 -315.24574651 53.08763663 -312.53598022 53.07717896 C-306.69197105 53.05540889 -300.84795958 53.03726634 -295.00393105 53.02157402 C-286.55440387 52.99888022 -278.10490179 52.97073671 -269.65539589 52.94125474 C-255.94727695 52.89357283 -242.23914777 52.85031026 -228.53100586 52.80981445 C-215.21328941 52.77046258 -201.89558207 52.72903709 -188.57788086 52.68481445 C-187.34692744 52.68072804 -187.34692744 52.68072804 -186.09110627 52.67655908 C-181.97429847 52.66287966 -177.8574908 52.64915937 -173.7406832 52.63541877 C-139.57714098 52.52144457 -105.41357961 52.4146373 -71.25 52.3125 C-70.78964355 51.22638428 -70.32928711 50.14026855 -69.85498047 49.02124023 C-69.23434119 47.57523283 -68.61339379 46.12935765 -67.9921875 44.68359375 C-67.69078857 43.97021851 -67.38938965 43.25684326 -67.07885742 42.52185059 C-59.83242407 25.73379883 -46.21045323 13.24428873 -29.7421875 5.70703125 C-19.59020081 1.69099011 -10.87641408 -0.03272086 0 0 Z M-24.7109375 55.37890625 C-30.06174167 62.10136326 -31.51589743 69.84809854 -31.25 78.3125 C-29.99796888 86.54701238 -26.20917346 93.93915546 -19.84765625 99.359375 C-11.23601689 105.62709448 -3.84812969 107.28732797 6.75 106.3125 C14.50543551 104.57193351 20.58881721 100.2880706 25.75 94.3125 C31.0502446 85.7739198 32.57717186 78.32011446 31.75 68.3125 C30.86570147 64.9824844 29.53615944 62.24849958 27.75 59.3125 C27.3375 58.61382812 26.925 57.91515625 26.5 57.1953125 C21.98401396 50.39567443 15.34807047 46.10248496 7.5 43.9375 C-5.44510468 41.77998255 -15.79845815 45.91702749 -24.7109375 55.37890625 Z " fill="#000000" transform="translate(362.25,351.6875)"/>
<path d="M0 0 C0.83144531 0.65613281 1.66289062 1.31226562 2.51953125 1.98828125 C12.95237081 10.75443062 20.26937331 22.27368663 25 35 C25 35.99 25 36.98 25 38 C25.77150391 37.99111755 26.54300781 37.98223511 27.33789062 37.9730835 C34.63457078 37.89269225 41.93103399 37.83191189 49.2280426 37.79275131 C52.97888189 37.77194103 56.72935302 37.74374533 60.47998047 37.69824219 C64.10452862 37.6545475 67.72872427 37.63081364 71.35351562 37.62049103 C72.73133894 37.61314168 74.10914455 37.59879054 75.48681641 37.57707977 C83.42613881 37.4570227 89.25888884 37.59575283 96 42 C98.05859375 44.03515625 98.05859375 44.03515625 99.4375 46.0625 C99.91058594 46.73410156 100.38367188 47.40570313 100.87109375 48.09765625 C104.09853519 53.53628595 103.60851447 59.90070378 103 66 C101.02865634 72.31935397 97.56974547 75.92979242 91.8671875 79.125 C88.07734887 80.90099132 85.10867388 81.12192429 80.96801758 81.11352539 C79.72695755 81.11344986 78.48589752 81.11337433 77.20722961 81.11329651 C75.85299642 81.10818991 74.49876363 81.10297391 73.14453125 81.09765625 C71.75876415 81.09579083 70.37299639 81.09436751 68.98722839 81.09336853 C65.3425209 81.0895531 61.69785335 81.07973113 58.05316162 81.06866455 C54.33297262 81.0584295 50.61277715 81.05386642 46.89257812 81.04882812 C39.59503389 81.03810798 32.29752254 81.02104325 25 81 C24.80133835 81.68416992 24.6026767 82.36833984 24.397995 83.07324219 C24.13348038 83.97204102 23.86896576 84.87083984 23.59643555 85.796875 C23.3358989 86.68729492 23.07536224 87.57771484 22.80693054 88.49511719 C17.71815627 104.2917472 4.3917772 117.78257695 -10.02416992 125.3215332 C-27.51773858 134.09372945 -47.39630343 137.59062785 -66.6875 132.4375 C-78.0145119 128.47652038 -88.06896887 123.06362882 -97 115 C-97.95132813 114.15308594 -97.95132813 114.15308594 -98.921875 113.2890625 C-106.13470702 106.4911279 -110.87148094 98.70411291 -114.71875 89.65234375 C-115.03682617 88.91431519 -115.35490234 88.17628662 -115.68261719 87.41589355 C-116.45920624 85.61236765 -117.23018318 83.80642694 -118 82 C-118.57885389 81.99940291 -119.15770779 81.99880582 -119.75410271 81.99819064 C-154.06666401 81.96229162 -188.37912369 81.9056449 -222.69160169 81.82207905 C-226.81214166 81.81206167 -230.93268202 81.80221753 -235.05322266 81.79248047 C-235.87354324 81.7905391 -236.69386381 81.78859772 -237.53904259 81.78659752 C-250.81911263 81.75558193 -264.0991654 81.7385981 -277.37926483 81.72680578 C-291.0073023 81.71439193 -304.63524913 81.68688526 -318.26322937 81.64538693 C-326.67149516 81.62025819 -335.07961063 81.60688226 -343.4879145 81.60857043 C-349.25490776 81.6086002 -355.02174796 81.59396105 -360.78868157 81.56783572 C-364.11533114 81.55319702 -367.4414031 81.54715529 -370.7681179 81.55419731 C-374.37838129 81.56082196 -377.98772918 81.54295123 -381.59790039 81.51898193 C-382.64460844 81.52674235 -383.69131649 81.53450277 -384.76974297 81.54249835 C-392.60810718 81.45035967 -397.81809984 79.68693791 -403.8125 74.625 C-408.8026639 68.63680332 -409.55840194 63.8759121 -409.33984375 56.19140625 C-408.74924817 50.64523853 -407.18142575 47.0014691 -403.05859375 43.21875 C-398.54132934 39.69145698 -395.13788593 37.87431388 -389.32046223 37.87695217 C-388.3530719 37.87496112 -387.38568158 37.87297007 -386.3889764 37.87091869 C-385.32381319 37.87383153 -384.25864998 37.87674437 -383.16120911 37.87974548 C-381.46677352 37.87846385 -381.46677352 37.87846385 -379.73810691 37.87715632 C-375.93321751 37.87550237 -372.1283717 37.88102154 -368.32348633 37.88647461 C-365.60386629 37.8873126 -362.88424712 37.88664275 -360.16462708 37.8860321 C-354.29932512 37.88550726 -348.43403428 37.88864998 -342.56873512 37.89426994 C-334.08845368 37.90239023 -325.60817761 37.90500071 -317.1278927 37.90625793 C-303.36984534 37.90844762 -289.61180391 37.91510545 -275.85375977 37.92456055 C-262.48754913 37.93373681 -249.1213401 37.9408166 -235.75512695 37.94506836 C-234.93150434 37.94533108 -234.10788174 37.94559381 -233.25930087 37.94586449 C-229.12750911 37.94716951 -224.99571735 37.94843322 -220.86392558 37.94967639 C-186.57594612 37.96004641 -152.2879737 37.97766247 -118 38 C-117.79544693 37.38058533 -117.59089386 36.76117065 -117.38014221 36.12298584 C-117.11104538 35.31121887 -116.84194855 34.4994519 -116.56469727 33.66308594 C-116.2982692 32.85804626 -116.03184113 32.05300659 -115.75733948 31.22357178 C-109.92810135 14.10875105 -96.78756157 0.49042982 -80.87890625 -7.65625 C-53.94689446 -20.22695835 -23.8095374 -19.08698453 0 0 Z M-62 32 C-62.69867188 32.4125 -63.39734375 32.825 -64.1171875 33.25 C-70.80837987 37.69396173 -75.0360944 44.24139279 -77.4375 51.875 C-79.04404109 60.17546232 -77.68829528 68.34743649 -73.57421875 75.6796875 C-68.13620555 83.6950221 -61.66631042 88.70101664 -52.11328125 90.5625 C-42.23178698 91.7771267 -34.21418783 89.64402217 -26.109375 83.8671875 C-19.55895824 78.06885563 -15.5345007 70.96434913 -14.75390625 62.25390625 C-14.35065548 52.66142576 -16.54995827 45.63987913 -22.625 38.1875 C-27.8413298 32.65799468 -35.13275289 28.41122171 -42.8203125 27.76171875 C-50.21377368 27.59567175 -55.64458785 28.13358956 -62 32 Z " fill="#000000" transform="translate(409,26)"/>
</svg>
