<?xml version="1.0" encoding="UTF-8"?>
<svg version="1.1" xmlns="http://www.w3.org/2000/svg" width="512" height="512">
<path d="M0 0 C1.58167969 -0.05607422 1.58167969 -0.05607422 3.1953125 -0.11328125 C11.90512 0.89454149 19.38718711 5.54195846 26.8125 9.9375 C28.66674681 11.01122756 30.52224137 12.0828029 32.37890625 13.15234375 C33.30203613 13.68456543 34.22516602 14.21678711 35.17626953 14.76513672 C59.16126082 28.51734178 92.2399388 46.49345957 120.875 42.3125 C123.2013505 40.56339692 124.19545299 39.00897464 125.60546875 36.484375 C127.02742279 34.05173977 128.47688879 32.67164938 130.6875 30.9375 C131.27144531 30.47601563 131.85539062 30.01453125 132.45703125 29.5390625 C138.77316037 26.33508101 146.2225781 25.9422169 153.1875 25.4609375 C154.04126221 25.39717926 154.89502441 25.33342102 155.7746582 25.26773071 C157.56601438 25.13531135 159.35760784 25.00606635 161.14941406 24.87988281 C163.86845295 24.68796212 166.58654447 24.48542976 169.3046875 24.28125 C171.05724601 24.15302036 172.80984894 24.02539596 174.5625 23.8984375 C175.36276611 23.83909027 176.16303223 23.77974304 176.98754883 23.71859741 C180.91184885 23.44578045 184.83682184 23.23767631 188.76953125 23.13916016 C189.4860083 23.11906891 190.20248535 23.09897766 190.94067383 23.07827759 C192.875 23.3125 192.875 23.3125 195.875 25.5 C198.86883285 29.71007744 198.99604377 33.88405561 199.37489319 38.94468689 C199.46040939 40.06723877 199.5459256 41.18979065 199.6340332 42.34635925 C199.72394531 43.56873795 199.81385742 44.79111664 199.90649414 46.05053711 C200.00417587 47.34551117 200.1018576 48.64048523 200.20249939 49.97470093 C200.46990798 53.5225317 200.73329946 57.07064982 200.99568486 60.61885524 C201.21573209 63.59032865 201.43760024 66.56166505 201.65941805 69.53300673 C202.18351962 76.55474711 202.70421775 83.57673438 203.22290039 90.59887695 C203.75580088 97.81259056 204.29478246 105.02583159 204.83675677 112.23886865 C205.30335859 118.45202459 205.76590545 124.66547384 206.22534078 130.8791638 C206.49909191 134.58084101 206.77434814 138.28238972 207.05360603 141.98365593 C207.36590056 146.12532148 207.66973492 150.2675683 207.97290039 154.40991211 C208.06483673 155.61407272 208.15677307 156.81823334 208.25149536 158.05888367 C209.8820975 180.69370262 209.8820975 180.69370262 206.81982422 185.6159668 C203.30354343 187.64172001 200.802722 188.13553149 196.7578125 188.45703125 C195.72892159 188.54670921 195.72892159 188.54670921 194.679245 188.63819885 C192.45398582 188.8245989 190.22807884 188.97641166 188 189.125 C186.46438067 189.24161278 184.92881751 189.35896762 183.39331055 189.47705078 C174.50194915 190.13219076 165.60394611 190.60037588 156.6875 190.6875 C155.78209473 190.70143799 154.87668945 190.71537598 153.94384766 190.72973633 C148.51071217 190.68967203 144.66273546 189.94118024 139.875 187.3125 C138.2578125 185.63671875 138.2578125 185.63671875 137 184 C134.29065323 181.57425968 132.99204693 181.3163209 129.28515625 181.1953125 C107.83984744 182.8882961 88.43957787 191.62110329 69.77026367 201.67700195 C64.01147612 204.77103659 58.19938823 207.47654211 52.1484375 209.9609375 C49.70148395 211.09888814 49.70148395 211.09888814 49.0390625 213.4765625 C48.95785156 214.38535156 48.95785156 214.38535156 48.875 215.3125 C49.81859375 215.35117187 49.81859375 215.35117187 50.78125 215.390625 C58.74996859 215.91867262 64.69035242 217.61460522 70.1875 223.625 C74.55774575 229.20986446 76.31142447 234.18423363 75.875 241.3125 C76.844375 241.23 77.81375 241.1475 78.8125 241.0625 C85.45364138 241.10274934 90.98288196 244.15959829 95.75 248.625 C101.7497634 255.25118882 102.4290839 260.96238803 102.3359375 269.74609375 C101.8502509 273.50399096 100.82365203 275.83409494 99 279.125 C97.52362147 281.68100573 97.52362147 281.68100573 96.875 284.3125 C97.95697359 287.14831788 99.32093064 289.0408251 101.2890625 291.33984375 C104.87730722 295.80305454 104.42323285 301.85366716 103.875 307.3125 C102.10332189 314.49526728 98.78246544 319.83828039 92.875 324.3125 C87.88714903 327.03314598 83.46550304 327.93348284 77.875 328.3125 C77.215 327.9825 76.555 327.6525 75.875 327.3125 C75.80023438 327.869375 75.72546875 328.42625 75.6484375 329 C74.31178432 336.7578302 71.03688896 341.8093379 64.875 346.6875 C57.48359922 350.69117542 50.37602893 351.55416315 42.25 349.3125 C41.46625 348.9825 40.6825 348.6525 39.875 348.3125 C36.57946247 357.67043156 37.0346913 364.09475933 39.86328125 373.48828125 C40.36905952 375.3023774 40.36905952 375.3023774 40.88505554 377.15312195 C41.77702448 380.33776628 42.69268815 383.51414911 43.62243652 386.68792725 C44.92913741 391.16737917 46.19444275 395.65860517 47.45780945 400.1504364 C48.13049195 402.5333479 48.81441798 404.91312213 49.51106262 407.28913879 C52.71337117 418.46541044 52.71337117 418.46541044 51.875 423.3125 C50.20117188 426.20849609 50.20117188 426.20849609 46.875 428.3125 C42.4685324 429.0525167 38.11580673 429.01269833 33.65625 428.9765625 C31.72029968 428.98373795 31.72029968 428.98373795 29.74523926 428.99105835 C27.0181677 428.9984143 24.2919172 428.98776785 21.56494141 428.96435547 C18.07747294 428.93586557 14.59192828 428.95227683 11.10453033 428.98221779 C7.76745123 429.004679 4.43088369 428.98893132 1.09375 428.9765625 C-0.15531128 428.98668365 -1.40437256 428.99680481 -2.69128418 429.00723267 C-11.18024808 428.89236022 -11.18024808 428.89236022 -15.45117188 426.27099609 C-18.71723634 420.49821762 -17.30175023 415.57989165 -15.70043945 409.48242188 C-15.05538292 407.2460834 -14.40081068 405.01247443 -13.73828125 402.78125 C-13.04022945 400.33746401 -12.3429883 397.89344635 -11.64648438 395.44921875 C-10.54334066 391.62154373 -9.43401266 387.79591252 -8.30737305 383.97509766 C-7.22112452 380.27047361 -6.16533644 376.5582057 -5.11328125 372.84375 C-4.7696907 371.70707886 -4.42610016 370.57040771 -4.07209778 369.39929199 C-2.15078604 362.52873142 -1.77308442 358.70486353 -5.125 352.3125 C-5.8675 352.6425 -6.61 352.9725 -7.375 353.3125 C-15.62054302 355.51131147 -23.47533214 355.07023158 -31.125 351.3125 C-34.50534061 349.08454823 -35.91463983 347.76828038 -37.625 344.0625 C-39.82669801 341.02306953 -39.82669801 341.02306953 -42.94921875 341.03515625 C-45.23368433 341.09618146 -47.51767701 341.17763371 -49.80078125 341.27734375 C-57.07703589 341.35429591 -62.25022054 338.75252242 -67.6171875 334.0078125 C-69.125 332.3125 -69.125 332.3125 -70.43359375 329.625 C-71.27083984 328.4803125 -71.27083984 328.4803125 -72.125 327.3125 C-75.05378993 326.81863491 -75.05378993 326.81863491 -78.3125 327.1875 C-86.87171198 327.49148977 -92.24014263 325.80493238 -98.58203125 320 C-101.27142347 317.05869003 -104.125 313.42486974 -104.125 309.3125 C-104.785 309.6425 -105.445 309.9725 -106.125 310.3125 C-114.99728311 311.17004409 -121.54228427 309.67693535 -128.4375 304 C-131.57692279 301.08878673 -133.61158038 298.37981523 -135.125 294.3125 C-135.125 293.6525 -135.125 292.9925 -135.125 292.3125 C-135.785 292.6425 -136.445 292.9725 -137.125 293.3125 C-145.58163192 294.22483373 -152.75095945 292.00687349 -159.515625 286.90234375 C-162.54017765 283.91449683 -164.59274587 280.25964313 -166.125 276.3125 C-166.125 274.9925 -166.125 273.6725 -166.125 272.3125 C-167.8265625 272.4053125 -167.8265625 272.4053125 -169.5625 272.5 C-177.03373817 272.4603998 -183.1756907 270.1061069 -188.62109375 264.9765625 C-193.18708836 259.92431911 -194.65495158 255.01068999 -195.125 248.3125 C-195.77726562 248.27511719 -196.42953125 248.23773438 -197.1015625 248.19921875 C-204.78763318 247.62106299 -210.47992139 245.81283301 -216.125 240.3125 C-220.23389936 234.03919449 -222.27706746 229.08616644 -222.1875 221.5625 C-222.17847656 220.57765625 -222.16945313 219.5928125 -222.16015625 218.578125 C-222.14855469 217.83046875 -222.13695312 217.0828125 -222.125 216.3125 C-223.300625 215.838125 -224.47625 215.36375 -225.6875 214.875 C-232.06165217 211.68226303 -235.89389754 206.30996686 -238.5625 199.8125 C-239.83973573 191.86525544 -239.09988595 185.80283785 -236.125 178.3125 C-237.05119141 177.88517578 -237.05119141 177.88517578 -237.99609375 177.44921875 C-242.27164631 175.16630903 -244.82457387 170.89338004 -246.5859375 166.4609375 C-248.69250754 158.06518734 -247.43302764 149.83773614 -243.03515625 142.4921875 C-242.10646281 141.07105519 -241.12147812 139.68695258 -240.125 138.3125 C-241.0840625 136.6109375 -241.0840625 136.6109375 -242.0625 134.875 C-245.36219816 128.20514748 -245.82471722 121.72052437 -243.99609375 114.51953125 C-242.43859483 110.5734017 -239.81379641 107.5419783 -237.125 104.3125 C-236.465 103.3225 -235.805 102.3325 -235.125 101.3125 C-235.85580294 99.38583771 -236.59288358 97.46109628 -237.375 95.5546875 C-239.34202727 89.67409556 -238.5098976 83.83227415 -236.08984375 78.22265625 C-232.54249781 71.19977299 -228.44692787 67.43402917 -221.125 64.3125 C-220.465 64.3125 -219.805 64.3125 -219.125 64.3125 C-219.33125 63.343125 -219.5375 62.37375 -219.75 61.375 C-220.77738542 53.75394695 -218.29506838 47.4907042 -213.91015625 41.328125 C-210.37637773 37.33812562 -206.13570966 34.98273655 -201.125 33.3125 C-198.81159086 33.39401745 -196.49903729 33.50129758 -194.1875 33.625 C-190.4598995 33.71725573 -190.4598995 33.71725573 -187.125 33.3125 C-184.56809572 30.81167005 -184.56809572 30.81167005 -183.125 27.3125 C-177.33346871 21.1780491 -172.35634138 18.33004455 -163.875 17.9375 C-157.28826331 18.04533198 -151.66991931 20.17077792 -146.0625 23.55859375 C-145.423125 23.80738281 -144.78375 24.05617188 -144.125 24.3125 C-140.80929679 22.7057832 -140.80929679 22.7057832 -138.80859375 21.35546875 C-133.79421004 18.2491104 -127.7852226 18.7188669 -122.125 19.3125 C-114.76618517 21.53677454 -109.36877503 25.94683746 -105.125 32.3125 C-104.43967377 33.97158113 -103.7706813 35.63759168 -103.125 37.3125 C-102.05290283 36.84448975 -100.98080566 36.37647949 -99.8762207 35.89428711 C-86.21603908 30.00110986 -72.3101928 24.9024903 -58.3125 19.875 C-44.41586406 14.88208161 -30.58508669 9.82957862 -16.96611023 4.11390686 C-16.12175919 3.76041672 -15.27740814 3.40692657 -14.4074707 3.04272461 C-13.67341507 2.73177353 -12.93935944 2.42082245 -12.18305969 2.10044861 C-8.08720609 0.53231035 -4.38556008 0.10039234 0 0 Z M-149.02734375 64.0546875 C-150.03474609 64.61542969 -150.03474609 64.61542969 -151.0625 65.1875 C-156.0906629 67.95831809 -159.27522094 68.33690724 -165 67.8125 C-168.19710118 67.66845391 -168.19710118 67.66845391 -171.125 68.3125 C-173.09592124 70.35015672 -174.16985446 72.40375491 -175.48046875 74.91015625 C-178.49134378 79.30846538 -183.38097742 81.15996307 -188.125 83.3125 C-188.09019531 84.01375 -188.05539063 84.715 -188.01953125 85.4375 C-187.73956054 95.24980679 -189.51747408 101.05241886 -196.11328125 108.35546875 C-196.61408203 109.32419922 -196.61408203 109.32419922 -197.125 110.3125 C-196.52529702 112.00441565 -195.84548306 113.66838128 -195.125 115.3125 C-194.14589087 125.47929599 -194.95862198 132.36053139 -200.875 140.8125 C-201.2875 141.3075 -201.7 141.8025 -202.125 142.3125 C-201.485625 143.364375 -200.84625 144.41625 -200.1875 145.5 C-196.84450294 151.40635524 -195.98289185 158.03673262 -197.75 164.65234375 C-197.976875 165.42707031 -198.20375 166.20179688 -198.4375 167 C-199.05789341 169.2143522 -199.05789341 169.2143522 -199.125 171.3125 C-197.04166667 174.22916667 -197.04166667 174.22916667 -194.125 176.3125 C-191.37674477 179.46790415 -190.07502157 182.22009938 -189.125 186.3125 C-189.28711821 188.31287383 -189.45423743 190.31284555 -189.625 192.3125 C-189.81073688 195.44941673 -189.81073688 195.44941673 -189.125 198.3125 C-186.82299628 200.36818037 -184.51560313 201.49246364 -181.7421875 202.83203125 C-176.78336996 205.63709371 -174.12997753 210.37074539 -172.3203125 215.66796875 C-171.83914026 217.53003942 -171.46903878 219.42028669 -171.125 221.3125 C-170.32835937 221.48265625 -169.53171875 221.6528125 -168.7109375 221.828125 C-159.55916096 223.92123204 -153.72068286 226.44829706 -148.125 234.3125 C-147.75103912 235.72407066 -147.39724552 237.14111901 -147.0625 238.5625 C-146.48932167 240.6679671 -146.48932167 240.6679671 -145.125 242.3125 C-142.14570109 243.25428446 -139.30305091 243.5770964 -136.19921875 243.9140625 C-129.76777523 244.74761681 -125.69616878 247.20904134 -121.75 252.3125 C-119.95370534 254.88150241 -118.47575775 257.48474546 -117.125 260.3125 C-116.44695312 260.26609375 -115.76890625 260.2196875 -115.0703125 260.171875 C-107.0978399 259.86269324 -100.17210436 260.72256854 -94.015625 266.18359375 C-90.80557904 269.6920944 -88.7499868 272.820349 -87.125 277.3125 C-86.29097656 277.26609375 -85.45695312 277.2196875 -84.59765625 277.171875 C-77.02586919 276.92902272 -71.72378862 277.59983454 -65.125 281.3125 C-64.40699219 281.64765625 -63.68898437 281.9828125 -62.94921875 282.328125 C-60.56981031 283.61208844 -60.1414275 284.84403322 -59.125 287.3125 C-58.46421346 288.64875722 -57.79833602 289.98252225 -57.125 291.3125 C-56.21878906 291.26609375 -55.31257812 291.2196875 -54.37890625 291.171875 C-44.97942495 290.89337185 -39.07629975 292.0116335 -31.3125 297.1875 C-28.77084889 299.6565325 -26.97413593 302.29909329 -25.125 305.3125 C-24.18140625 305.16941406 -24.18140625 305.16941406 -23.21875 305.0234375 C-13.53324571 303.76898965 -6.98085662 305.44238097 0.875 311.3125 C1.89551792 312.29155218 2.90229918 313.28592652 3.875 314.3125 C4.7825 313.8175 5.69 313.3225 6.625 312.8125 C13.40213882 309.88632193 21.81656073 310.74395794 28.875 312.3125 C31.21787418 309.64002366 31.21787418 309.64002366 31.875 306.3125 C43.57903587 300.3125 43.57903587 300.3125 49.6875 300.3125 C53.06793916 299.64079739 53.06793916 299.64079739 54.4140625 296.73046875 C56.42615843 292.08241474 57.875 288.41572474 57.875 283.3125 C56.82828917 280.92284197 56.82828917 280.92284197 55.4375 278.5 C53.23363038 274.29770623 52.1824799 271.02719175 51.875 266.3125 C51.22273437 266.20292969 50.57046875 266.09335937 49.8984375 265.98046875 C41.97498094 264.54302752 36.23022816 262.65421756 30.875 256.3125 C28.10092181 251.80695018 26.40663369 247.62883691 25.875 242.3125 C25.17375 242.22613281 24.4725 242.13976562 23.75 242.05078125 C15.6692831 240.85404464 9.98356505 238.73989223 4.4375 232.625 C2.875 230.3125 2.875 230.3125 1.875 228.3125 C-5.08838992 228.9228718 -11.94475317 229.85676288 -18.8359375 231.01953125 C-20.89346426 231.36073166 -22.95100042 231.70187539 -25.00854492 232.04296875 C-26.06979584 232.22005371 -27.13104675 232.39713867 -28.22445679 232.57958984 C-43.2385272 235.07958021 -58.2559601 237.58003764 -73.3125 239.8125 C-74.85333252 240.05190308 -74.85333252 240.05190308 -76.42529297 240.29614258 C-87.27640193 241.86115421 -98.44189197 243.26336082 -108.125 237.3125 C-109.0325 236.755625 -109.94 236.19875 -110.875 235.625 C-116.52013647 229.82305419 -118.75739053 223.14517241 -120.125 215.3125 C-120.95902344 215.28671875 -121.79304688 215.2609375 -122.65234375 215.234375 C-132.75851432 214.72501474 -139.53880345 213.43994915 -146.5625 205.875 C-150.89322481 200.84436007 -152.38524704 195.6501715 -154.125 189.3125 C-155.48431641 189.18294922 -155.48431641 189.18294922 -156.87109375 189.05078125 C-166.47629579 187.94287964 -173.760612 186.19963888 -180.5 179 C-186.32236252 171.44710196 -187.11801471 163.7010027 -186.125 154.3125 C-184.39214151 146.88596363 -180.80332945 142.23558367 -175.125 137.3125 C-174.135 136.3225 -174.135 136.3225 -173.125 135.3125 C-173.59550781 134.8278125 -174.06601563 134.343125 -174.55078125 133.84375 C-181.71234266 126.13358036 -183.76258814 120.14067306 -183.46875 109.5625 C-182.53458721 100.73041543 -178.9007538 94.88250339 -172.125 89.3125 C-167.88776498 86.51944555 -163.49355434 84.030975 -159.0625 81.5625 C-157.89200547 80.89814334 -156.72207929 80.23278429 -155.55273438 79.56640625 C-140.6467229 71.12451807 -140.6467229 71.12451807 -135.125 70.3125 C-136.38851118 67.78547764 -137.48500747 67.46143413 -140 66.25 C-140.69867188 65.90839844 -141.39734375 65.56679687 -142.1171875 65.21484375 C-145.4899165 63.52423634 -145.4899165 63.52423634 -149.02734375 64.0546875 Z M-113.75 65.1875 C-117.33696572 67.4459599 -120.05157197 68.33487727 -124.125 69.3125 C-122.1448783 71.2926217 -120.82018034 71.99822203 -118.3125 73.125 C-113.94341625 75.27010971 -110.43610072 77.78837303 -108.1328125 82.22265625 C-106.95014511 84.39375733 -106.09318633 85.79713103 -104.125 87.3125 C-98.35150996 87.84247266 -92.75699926 86.47202926 -87.125 85.3125 C-89.4460491 82.74276707 -91.8418428 81.26874513 -94.875 79.625 C-101.77143772 75.5777475 -106.22719346 70.24193385 -110.125 63.3125 C-111.52702308 63.21562697 -111.52702308 63.21562697 -113.75 65.1875 Z " fill="#010100" transform="translate(273.125,41.6875)"/>
<path d="M0 0 C1.28945367 0.6519916 2.57047923 1.32085036 3.84375 2.00390625 C4.535896 2.36226562 5.22804199 2.720625 5.94116211 3.08984375 C10.69470116 5.58732865 15.31758114 8.279824 19.90625 11.06640625 C34.86388724 20.13539272 49.66672326 26.56824696 66.16699219 32.43432617 C70.08373888 33.83011117 73.98774289 35.25957868 77.890625 36.69360352 C86.72355396 39.83629072 94.93577642 40.81935697 104.265625 41.1484375 C105.33216309 41.19021118 106.39870117 41.23198486 107.49755859 41.27502441 C110.112815 41.37679391 112.72815617 41.47378872 115.34375 41.56640625 C116.26180351 53.48444446 117.17490301 65.40285112 118.08181 77.32174301 C118.50314821 82.85709806 118.92614393 88.3923157 119.35302734 93.92724609 C119.7655029 99.27618236 120.17349423 104.62544403 120.57847595 109.9749527 C120.73317779 112.00823234 120.88945135 114.04139307 121.04737854 116.07442474 C122.63329689 136.51597755 122.63329689 136.51597755 122.34375 146.56640625 C119.81103777 147.83276236 117.42118624 147.87396447 114.63232422 148.10986328 C98.91089094 149.49099854 85.6001253 153.94732904 71.72851562 161.31542969 C66.86581292 163.86625777 61.94301719 166.29934333 57.03125 168.75390625 C56.04116943 169.252854 55.05108887 169.75180176 54.03100586 170.26586914 C52.09947612 171.23542196 50.16389256 172.19694565 48.22412109 173.14990234 C46.25426615 174.11863419 44.29394661 175.10693459 42.34228516 176.11181641 C41.37983887 176.58796387 40.41739258 177.06411133 39.42578125 177.5546875 C38.56831299 177.98950439 37.71084473 178.42432129 36.82739258 178.87231445 C33.62389532 179.76758062 32.25147367 179.05862009 29.34375 177.56640625 C24.76215714 175.40287629 20.33493703 174.97961999 15.34375 174.56640625 C15.23160156 173.73109375 15.23160156 173.73109375 15.1171875 172.87890625 C13.9262345 165.96670844 11.31556055 160.51464448 5.5703125 156.25 C2.31288692 154.32257133 -1.14379456 152.94737164 -4.65625 151.56640625 C-4.75421875 150.55320313 -4.8521875 149.54 -4.953125 148.49609375 C-5.10330923 147.1444357 -5.25439923 145.79287808 -5.40625 144.44140625 C-5.468125 143.77625 -5.53 143.11109375 -5.59375 142.42578125 C-6.2691606 136.68479112 -8.17166267 132.6641716 -12.61328125 128.9140625 C-13.22558594 128.48996094 -13.83789062 128.06585938 -14.46875 127.62890625 C-16.3046875 126.11328125 -16.3046875 126.11328125 -17.65625 124.56640625 C-17.59375 121.37890625 -17.59375 121.37890625 -16.65625 117.56640625 C-15.82806905 109.65667808 -16.72819541 103.94087687 -21.65625 97.56640625 C-24.06440347 95.10526163 -26.55655244 93.11625503 -29.65625 91.56640625 C-29.16125 89.89578125 -29.16125 89.89578125 -28.65625 88.19140625 C-26.59909137 79.6624566 -27.10925306 73.47865577 -31.26953125 65.6953125 C-32.57019742 63.53647743 -32.57019742 63.53647743 -34.32421875 61.90625 C-35.65625 60.56640625 -35.65625 60.56640625 -35.65625 58.56640625 C-33.0390625 58.546875 -33.0390625 58.546875 -29.65625 59.56640625 C-27.23647114 62.07554753 -25.42992432 64.96540307 -23.53125 67.87890625 C-15.27389841 79.88517616 -6.57507684 89.43413726 6.34375 96.56640625 C7.106875 97.01371094 7.87 97.46101563 8.65625 97.921875 C18.55370721 103.35544526 31.00936125 107.27008236 42.34375 107.56640625 C43.58640625 107.62828125 44.8290625 107.69015625 46.109375 107.75390625 C47.47906468 107.79880073 48.84886449 107.8404482 50.21875 107.87890625 C51.49492187 107.91628906 52.77109375 107.95367187 54.0859375 107.9921875 C57.3860273 107.88781192 57.3860273 107.88781192 59.2578125 105.734375 C60.76155021 102.73230871 60.8957468 100.87838703 60.34375 97.56640625 C57.54114942 94.64195348 55.8953015 93.64035729 51.84765625 93.09765625 C49.89666016 93.0821875 49.89666016 93.0821875 47.90625 93.06640625 C30.31985385 92.45699659 12.00575956 84.99194365 -0.65625 72.56640625 C-5.68723537 67.07113933 -10.22259079 61.29865422 -14.40625 55.12890625 C-18.07047515 49.770192 -22.12243936 45.19985891 -28.65625 43.56640625 C-36.29020591 42.17566577 -41.86212676 44.71723485 -48.62792969 47.84960938 C-60.05979661 53.12255128 -72.60499613 56.08582743 -85.06640625 52.6171875 C-91.53014949 50.07814586 -97.52642512 47.27044952 -101.09375 41.06640625 C-101.75792497 38.11451748 -101.570145 36.4437143 -100.65625 33.56640625 C-98.94604492 32.3347168 -98.94604492 32.3347168 -96.63671875 31.453125 C-95.73856445 31.10048584 -94.84041016 30.74784668 -93.91503906 30.38452148 C-92.90151367 30.01141846 -91.88798828 29.63831543 -90.84375 29.25390625 C-89.7722168 28.84148682 -88.70068359 28.42906738 -87.59667969 28.00415039 C-80.07753378 25.13998325 -72.50615991 22.41668752 -64.94140625 19.67578125 C-63.52464851 19.16208733 -63.52464851 19.16208733 -62.07926941 18.63801575 C-57.35183911 16.9257494 -52.62138472 15.22305472 -47.88354492 13.53979492 C-37.60820136 9.8661782 -27.53660839 5.95802995 -17.63153076 1.36277771 C-11.34349053 -1.46303768 -6.67306432 -2.6164686 0 0 Z " fill="#F4C99D" transform="translate(279.65625,59.43359375)"/>
<path d="M0 0 C1.28945367 0.6519916 2.57047923 1.32085036 3.84375 2.00390625 C4.535896 2.36226562 5.22804199 2.720625 5.94116211 3.08984375 C10.69470116 5.58732865 15.31758114 8.279824 19.90625 11.06640625 C38.49180496 22.33504071 57.69811755 29.7941128 78.34375 36.56640625 C76.32861247 42.39694071 74.29381235 48.22022781 72.23681641 54.03613281 C71.69889076 55.56020646 71.1638108 57.08529492 70.63427734 58.61230469 C65.99137463 71.96201554 60.4867196 80.97257276 48.34375 88.56640625 C47.49039063 89.11296875 46.63703125 89.65953125 45.7578125 90.22265625 C40.98297453 92.88049486 38.37007266 92.60750365 33.09375 91.12890625 C12.2754954 84.81837283 -2.22887715 73.08718577 -14.40625 55.12890625 C-18.07047515 49.770192 -22.12243936 45.19985891 -28.65625 43.56640625 C-36.29020591 42.17566577 -41.86212676 44.71723485 -48.62792969 47.84960938 C-60.05979661 53.12255128 -72.60499613 56.08582743 -85.06640625 52.6171875 C-91.53014949 50.07814586 -97.52642512 47.27044952 -101.09375 41.06640625 C-101.75792497 38.11451748 -101.570145 36.4437143 -100.65625 33.56640625 C-98.94604492 32.3347168 -98.94604492 32.3347168 -96.63671875 31.453125 C-95.73856445 31.10048584 -94.84041016 30.74784668 -93.91503906 30.38452148 C-92.90151367 30.01141846 -91.88798828 29.63831543 -90.84375 29.25390625 C-89.7722168 28.84148682 -88.70068359 28.42906738 -87.59667969 28.00415039 C-80.07753378 25.13998325 -72.50615991 22.41668752 -64.94140625 19.67578125 C-63.52464851 19.16208733 -63.52464851 19.16208733 -62.07926941 18.63801575 C-57.35183911 16.9257494 -52.62138472 15.22305472 -47.88354492 13.53979492 C-37.60820136 9.8661782 -27.53660839 5.95802995 -17.63153076 1.36277771 C-11.34349053 -1.46303768 -6.67306432 -2.6164686 0 0 Z " fill="#EBC086" transform="translate(279.65625,59.43359375)"/>
<path d="M0 0 C0.0501123 0.86987549 0.10022461 1.73975098 0.15185547 2.63598633 C0.34591729 5.96694079 0.54404183 9.29760819 0.74462891 12.62817383 C0.82950722 14.05028298 0.91291659 15.47248081 0.99462891 16.89477539 C1.45714237 24.92595045 2.05711967 32.91765596 2.94140625 40.9140625 C4.15673507 51.94804984 4.9904363 63.006578 5.80493164 74.07641602 C6.06037997 77.53380629 6.32387632 80.99052025 6.58789062 84.44726562 C7.7502959 99.95631857 8.51365564 115.45533527 9 131 C-0.36006235 132.60569405 -9.57309747 133.50496686 -19.0625 133.875 C-20.35349609 133.9471875 -21.64449219 134.019375 -22.97460938 134.09375 C-24.21146484 134.14273438 -25.44832031 134.19171875 -26.72265625 134.2421875 C-28.38953491 134.31735596 -28.38953491 134.31735596 -30.09008789 134.39404297 C-33.69847305 133.90541694 -34.77485978 132.81094311 -37 130 C-38.5053779 126.98924419 -38.41038909 123.80222777 -38.63256836 120.49047852 C-38.68802322 119.71425644 -38.74347809 118.93803436 -38.8006134 118.13829041 C-38.98437531 115.55209544 -39.16208545 112.96552024 -39.33984375 110.37890625 C-39.46775964 108.56311879 -39.5960671 106.74735887 -39.7247467 104.93162537 C-40.06471473 100.12042411 -40.39964648 95.30888515 -40.73345947 90.49725342 C-41.13172963 84.76885857 -41.53569419 79.0408634 -41.93885231 73.3128109 C-42.26477797 68.68068724 -42.58985639 64.04850855 -42.91268921 59.41616821 C-43.46759864 51.46580602 -44.02815615 43.51624447 -44.63720703 35.56982422 C-44.73191788 34.32853256 -44.82662872 33.08724091 -44.92420959 31.80833435 C-45.09460766 29.59639017 -45.26784311 27.38466145 -45.44480896 25.17323303 C-46.69663858 8.95539005 -46.69663858 8.95539005 -43.8125 5 C-37.88169076 0.78253565 -29.79916831 1.44639718 -22.75 0.9375 C-21.56019531 0.84662109 -20.37039063 0.75574219 -19.14453125 0.66210938 C-12.74283584 0.19170855 -6.41858459 -0.1033034 0 0 Z " fill="#45A275" transform="translate(456,82)"/>
<path d="M0 0 C2.71194094 2.32085726 4.34653713 3.92553514 5.125 7.48828125 C5.30276512 12.65892761 4.55987515 15.74196934 1.58984375 20.0390625 C-0.49365234 21.62207031 -0.49365234 21.62207031 -2.93359375 22.9921875 C-3.8575293 23.52021973 -4.78146484 24.04825195 -5.73339844 24.59228516 C-6.74047852 25.15222168 -7.74755859 25.7121582 -8.78515625 26.2890625 C-10.96526779 27.53050564 -13.14493582 28.77272786 -15.32421875 30.015625 C-16.48856873 30.67487188 -17.65295742 31.3340504 -18.81738281 31.99316406 C-24.34667601 35.1319833 -29.82623863 38.35606359 -35.30822754 41.57653809 C-37.15480692 42.66092117 -39.00257395 43.74325582 -40.85058594 44.82519531 C-49.11148901 49.66556389 -57.33700583 54.56285357 -65.51074219 59.54931641 C-66.25356445 59.99968262 -66.99638672 60.45004883 -67.76171875 60.9140625 C-68.39932129 61.30335938 -69.03692383 61.69265625 -69.69384766 62.09375 C-73.72294861 64.31290774 -77.91613594 64.80364062 -82.41015625 64.0390625 C-86.09253386 62.02463274 -89.17568992 59.1128014 -90.41015625 55.0390625 C-90.96829218 50.76002035 -90.34812654 48.16193184 -87.86523438 44.62304688 C-84.84007492 41.32988671 -80.84074153 39.3840424 -76.97265625 37.2265625 C-74.98158192 36.08366239 -72.99070676 34.94041524 -71 33.796875 C-69.40260986 32.88856934 -69.40260986 32.88856934 -67.77294922 31.96191406 C-62.44687001 28.91645161 -57.16500535 25.79660824 -51.87802124 22.68395996 C-50.03395499 21.60085695 -48.18707167 20.5227329 -46.33911133 19.44628906 C-40.371043 15.96794554 -34.43135523 12.45572472 -28.54296875 8.84375 C-27.46450684 8.19075928 -26.38604492 7.53776855 -25.27490234 6.86499023 C-23.26023151 5.643523 -21.25459027 4.40698147 -19.26025391 3.15258789 C-12.83309472 -0.71366955 -7.28072841 -2.9028512 0 0 Z " fill="#F2E2AB" transform="translate(192.41015625,149.9609375)"/>
<path d="M0 0 C5.28 0 10.56 0 16 0 C16.91805351 11.91803821 17.83115301 23.83644487 18.73806 35.75533676 C19.15939821 41.29069181 19.58239393 46.82590945 20.00927734 52.36083984 C20.4217529 57.70977611 20.82974423 63.05903778 21.23472595 68.40854645 C21.38942779 70.44182609 21.54570135 72.47498682 21.70362854 74.50801849 C23.28954689 94.9495713 23.28954689 94.9495713 23 105 C20.46728777 106.26635611 18.07743624 106.30755822 15.28857422 106.54345703 C-0.43285906 107.92459229 -13.7436247 112.38092279 -27.61523438 119.74902344 C-32.47793708 122.29985152 -37.40073281 124.73293708 -42.3125 127.1875 C-43.30258057 127.68644775 -44.29266113 128.18539551 -45.31274414 128.69946289 C-47.24427388 129.66901571 -49.17985744 130.6305394 -51.11962891 131.58349609 C-53.08948385 132.55222794 -55.04980339 133.54052834 -57.00146484 134.54541016 C-57.96391113 135.02155762 -58.92635742 135.49770508 -59.91796875 135.98828125 C-60.77543701 136.42309814 -61.63290527 136.85791504 -62.51635742 137.3059082 C-65.71985468 138.20117437 -67.09227633 137.49221384 -70 136 C-74.58159286 133.83647004 -79.00881297 133.41321374 -84 133 C-83 130 -83 130 -80.70800781 128.81762695 C-79.71639648 128.44081787 -78.72478516 128.06400879 -77.703125 127.67578125 C-71.23784449 125.11891766 -65.0039852 122.21973525 -58.75 119.1875 C-57.11865112 118.40246094 -57.11865112 118.40246094 -55.4543457 117.6015625 C-49.98910439 114.96392436 -44.55300184 112.2812483 -39.15551758 109.5078125 C-28.70561634 104.15646747 -18.6525344 100.8174348 -7.04907227 99.12573242 C-1.19529482 98.22828678 4.10700717 96.99531677 8.3125 92.5625 C11.57948133 87.60152835 12.3232754 84.08170627 12.25 78.125 C12.24311157 76.94719971 12.24311157 76.94719971 12.23608398 75.74560547 C12.1301771 68.57620055 11.49893833 61.48057024 10.78442383 54.34985352 C10.06469571 47.10747019 9.62485001 39.8799348 9.34204102 32.60791016 C9.20089464 29.19094667 8.98659208 25.9109474 8.4765625 22.5234375 C7.88850324 18.17565512 7.89161755 13.94250956 7.9375 9.5625 C7.94201172 8.73556641 7.94652344 7.90863281 7.95117188 7.05664062 C7.96284189 5.03772854 7.98077282 3.01885426 8 1 C5.36 1 2.72 1 0 1 C0 0.67 0 0.34 0 0 Z " fill="#E7BD84" transform="translate(379,101)"/>
<path d="M0 0 C3.7437925 1.66390778 5.82498424 3.56029812 8 7 C8.43359375 9.40234375 8.43359375 9.40234375 8.4375 11.9375 C8.45683594 12.77152344 8.47617188 13.60554687 8.49609375 14.46484375 C7.65547673 18.76059528 5.00271805 21.30296738 1.4765625 23.75415039 C0.53554687 24.28000732 -0.40546875 24.80586426 -1.375 25.34765625 C-2.96260132 26.24750244 -2.96260132 26.24750244 -4.58227539 27.16552734 C-5.71012451 27.79152832 -6.83797363 28.4175293 -8 29.0625 C-10.35525873 30.38509274 -12.70704674 31.71379046 -15.05859375 33.04296875 C-15.94109047 33.53987213 -15.94109047 33.53987213 -16.84141541 34.04681396 C-20.56500434 36.15318673 -24.2219404 38.3430437 -27.84765625 40.61328125 C-29.17700195 41.44170532 -29.17700195 41.44170532 -30.53320312 42.28686523 C-32.16892368 43.31392722 -33.79715431 44.35305876 -35.41601562 45.40649414 C-40.47598352 48.55906552 -44.96400625 50.21687095 -51 50 C-54.61749518 48.79416827 -56.40595586 47.6930515 -58.875 44.8125 C-60.70465907 40.23835232 -60.86539474 36.22166466 -59.0703125 31.61328125 C-55.92595171 27.64426735 -51.87613894 25.6419298 -47.5 23.1875 C-45.5174087 22.05351659 -43.53567828 20.9180271 -41.5546875 19.78125 C-40.49862305 19.17796875 -39.44255859 18.5746875 -38.35449219 17.953125 C-34.80726886 15.8877839 -31.31173097 13.75133888 -27.8203125 11.59375 C-26.01338095 10.4869096 -24.2054797 9.38167186 -22.3972168 8.27700806 C-21.22421126 7.5558779 -20.05469669 6.82903538 -18.88891602 6.09628296 C-7.34852072 -1.14423333 -7.34852072 -1.14423333 0 0 Z " fill="#F2D188" transform="translate(196,191)"/>
<path d="M0 0 C1.32 0.66 2.64 1.32 4 2 C3.67 2.763125 3.34 3.52625 3 4.3125 C0.99426059 11.70866408 1.06719932 18.91242153 4.51171875 25.8515625 C7.33496226 29.92711087 11.12314094 32.95981352 15 36 C14.84015625 36.52980469 14.6803125 37.05960938 14.515625 37.60546875 C12.88405256 45.18239226 12.97938303 53.29897172 17 60 C21.1100683 66.36178889 25.87782276 68.7338527 33 71 C33.08636719 71.99 33.17273438 72.98 33.26171875 74 C34.22462815 83.52063113 35.98697045 90.2118781 43 97 C36.68005824 98.9952959 30.28036956 100.10041324 23.75 101.1875 C22.66203125 101.37763672 21.5740625 101.56777344 20.453125 101.76367188 C19.4115625 101.93833984 18.37 102.11300781 17.296875 102.29296875 C16.35166992 102.4530542 15.40646484 102.61313965 14.43261719 102.77807617 C12 103 12 103 9 102 C9.28875 101.52433594 9.5775 101.04867187 9.875 100.55859375 C13.99172384 92.79685401 14.50646096 84.01642848 12.375 75.50390625 C10.00555159 70.07744627 5.59325198 66.56757435 1 63 C2.03509016 60.29284113 3.11187538 57.80386583 4.55078125 55.28125 C7.52490774 48.5473787 7.17219254 39.40870596 4.8125 32.4375 C2.01133076 27.12493765 -1.67559225 23.1642445 -6 19 C-5.38125 18.0925 -4.7625 17.185 -4.125 16.25 C-1.20172135 11.22237538 -0.70991206 5.6886374 0 0 Z " fill="#E3B981" transform="translate(213,159)"/>
<path d="M0 0 C3.64207936 1.61870194 6.16648143 3.42946383 8 7 C8.53333414 12.60000848 8.30327893 15.31848224 5 20 C-0.78862769 25.31790412 -8.33583408 29.06135197 -15.125 32.9375 C-16.39525024 33.68314209 -16.39525024 33.68314209 -17.69116211 34.44384766 C-23.09971051 37.45896706 -26.79656231 38.78891544 -33 38 C-36.20047388 36.49244087 -38.33083106 33.94291987 -40.375 31.0625 C-41.25688519 28.15227888 -41.36405994 26.03383286 -41 23 C-38.25772288 17.97249194 -35.03648677 15.34477129 -30.125 12.625 C-29.46878662 12.24996338 -28.81257324 11.87492676 -28.13647461 11.48852539 C-26.77223029 10.7094473 -25.40525073 9.9351403 -24.03564453 9.16552734 C-22.05679249 8.03251707 -20.11878122 6.85031351 -18.18359375 5.64453125 C-16.97663443 4.90873616 -15.76960607 4.17305432 -14.5625 3.4375 C-13.49128906 2.77621094 -12.42007813 2.11492187 -11.31640625 1.43359375 C-7.11668284 -0.38183439 -4.54312893 -0.3534592 0 0 Z " fill="#F1EDCE" transform="translate(146,128)"/>
<path d="M0 0 C3.70390021 2.02666238 5.65363011 3.48044516 8 7 C8.37109375 9.26953125 8.37109375 9.26953125 8.4375 11.8125 C8.49744141 13.05966797 8.49744141 13.05966797 8.55859375 14.33203125 C7.57620375 19.02414572 4.70020776 21.76250829 0.95288086 24.48999023 C-1.40922288 26.00918978 -3.81063454 27.42103097 -6.25 28.8125 C-7.05824219 29.30169922 -7.86648437 29.79089844 -8.69921875 30.29492188 C-13.939557 33.32593352 -18.8390066 35.38535052 -25 35 C-29.41662206 32.87347827 -32.0983726 30.54277658 -34 26 C-34.55431734 22.67409595 -34.79061365 20.31093698 -32.99951172 17.34106445 C-28.61351633 12.05726464 -23.5166283 8.88796619 -17.5625 5.5625 C-16.18868164 4.75135742 -16.18868164 4.75135742 -14.78710938 3.92382812 C-9.73054474 1.05251253 -5.97963144 -0.90461091 0 0 Z " fill="#F0C687" transform="translate(203,233)"/>
<path d="M0 0 C1.134375 0.020625 2.26875 0.04125 3.4375 0.0625 C5.75074696 5.88920031 7.43403953 11.6545785 8.875 17.75 C10.57510856 24.78152957 12.45250281 31.66487998 14.73828125 38.53125 C15.4375 41.0625 15.4375 41.0625 15.4375 45.0625 C5.2075 45.0625 -5.0225 45.0625 -15.5625 45.0625 C-14.91506246 41.17787474 -14.23953315 37.51468405 -13.29296875 33.71875 C-13.04571045 32.72560791 -12.79845215 31.73246582 -12.54370117 30.70922852 C-12.15081909 29.1515979 -12.15081909 29.1515979 -11.75 27.5625 C-11.48227783 26.49765381 -11.21455566 25.43280762 -10.9387207 24.33569336 C-4.79987361 0.08420831 -4.79987361 0.08420831 0 0 Z " fill="#804B00" transform="translate(290.5625,408.9375)"/>
<path d="M0 0 C0.66 0 1.32 0 2 0 C3.33203125 1.828125 3.33203125 1.828125 4.8125 4.25 C9.42345302 11.33864586 12.74965185 12.90611944 21 16 C21.66 21.94 22.32 27.88 23 34 C17.17075211 35.45731197 13.69142483 36.2371427 8 36 C7.88785156 34.44152344 7.88785156 34.44152344 7.7734375 32.8515625 C6.9408761 23.41246838 5.55440132 15.22317556 -1.703125 8.3984375 C-2.34507812 7.70621094 -2.34507812 7.70621094 -3 7 C-2.75546876 3.65807308 -2.39456443 2.39456443 0 0 Z " fill="#F1C79B" transform="translate(225,214)"/>
<path d="M0 0 C3.76706021 1.18592636 5.27969919 1.71001871 7.375 5.0625 C8.8148261 12.20225624 6.09665526 18.56211803 3.375 25.0625 C0.405 25.0625 -2.565 25.0625 -5.625 25.0625 C-8.69511733 18.62073595 -11.29202387 12.26506114 -9.625 5.0625 C-7.2321886 1.22385556 -4.5285958 0.07807924 0 0 Z " fill="#815B00" transform="translate(291.625,367.9375)"/>
<path d="M0 0 C2.75329021 1.79562405 4.52627461 3.05254922 6 6 C6.43023798 9.87214182 6.31669086 11.52496371 4.125 14.8125 C1.61855093 17.39266816 0.74538327 17.91717964 -2.8125 18.3125 C-6.91921721 17.90988067 -8.31730366 17.14258715 -11 14 C-12.03853159 10.92456944 -12.37905912 8.22774581 -12 5 C-8.74332998 0.01322403 -5.80748975 -0.93334657 0 0 Z " fill="#A95E00" transform="translate(327,274)"/>
<path d="M0 0 C2.69990662 1.79993774 4.5418865 3.083773 6 6 C6.43023798 9.87214182 6.31669086 11.52496371 4.125 14.8125 C1.61855093 17.39266816 0.74538327 17.91717964 -2.8125 18.3125 C-6.7307645 17.92835642 -8.21293267 16.70743683 -11 14 C-12.42662219 11.14675563 -12.31033868 9.16545451 -12 6 C-8.54235344 0.81353016 -6.24330406 -0.61208863 0 0 Z " fill="#A95E00" transform="translate(259,362)"/>
<path d="M0 0 C3.34638613 2.49198967 4.78809054 3.86981619 5.5625 8 C4.87642343 11.65907504 3.57265686 13.35167676 1 16 C-2.17878694 17.58939347 -4.4956772 17.41576711 -8 17 C-11.22980084 14.113795 -12.77566051 12.22140391 -13.5625 7.9375 C-12.87020639 4.32218892 -11.54408967 2.61891584 -9 0 C-5.77509551 -1.61245225 -3.43772273 -0.81573082 0 0 Z " fill="#BA5E00" transform="translate(83,92)"/>
<path d="M0 0 C4.86286021 0.93844671 6.40671701 1.82166584 9.5625 5.6875 C10.09977767 8.96956574 9.76390328 11.59157616 8.5625 14.6875 C5.72878507 17.3280071 3.78509502 18.44894487 0 19.1875 C-3.29921512 18.51073792 -5.01474692 16.97565568 -7.4375 14.6875 C-8.88897903 11.78454195 -8.80989025 9.91488221 -8.4375 6.6875 C-5.97360795 2.65567664 -4.69516396 0.93903279 0 0 Z " fill="#BA5E00" transform="translate(238.4375,163.3125)"/>
<path d="M0 0 C4.23300122 0.16280774 6.50968268 0.63487008 9.9375 3.1875 C12 6 12 6 12.5625 9 C11.87642343 12.65907504 10.57265686 14.35167676 8 17 C4.90826248 18.54586876 2.40570448 18.29359521 -1 18 C-4.30748965 15.38882396 -5.81680509 13.37396185 -6.375 9.1875 C-5.87954982 4.9761735 -4.15647263 3.69454981 -1 1 C-0.67 0.67 -0.34 0.34 0 0 Z " fill="#B95E00" transform="translate(142,77)"/>
<path d="M0 0 C4.26010225 0.49155026 5.52468168 2.18248426 8.25 5.375 C8.58 5.705 8.91 6.035 9.25 6.375 C9.68784542 10.22803968 9.55585252 11.91622122 7.375 15.1875 C4.86855093 17.76766816 3.99538327 18.29217964 0.4375 18.6875 C-3.4807645 18.30335642 -4.96293267 17.08243683 -7.75 14.375 C-9.19430855 11.48638291 -9.12688506 9.57852299 -8.75 6.375 C-6.3125 3.5625 -6.3125 3.5625 -3.75 1.375 C-2.75 0.375 -2.75 0.375 0 0 Z " fill="#A95E00" transform="translate(349.75,298.625)"/>
<path d="M0 0 C3.46145669 0.86536417 4.94931405 2.62635769 6.9375 5.484375 C7.55054266 9.16263095 7.19872201 10.95005726 5.5625 14.296875 C3.9375 16.484375 3.9375 16.484375 1.9375 17.484375 C-5.30337591 18.06831661 -5.30337591 18.06831661 -8.5 15.609375 C-11.09723593 12.07713413 -11.5805745 9.88800823 -11.0625 5.484375 C-7.96567477 1.03268873 -5.27078558 -0.35937174 0 0 Z " fill="#BA5E00" transform="translate(56.0625,155.515625)"/>
<path d="M0 0 C4.86286021 0.93844671 6.40671701 1.82166584 9.5625 5.6875 C10.09977767 8.96956574 9.76390328 11.59157616 8.5625 14.6875 C5.72878507 17.3280071 3.78509502 18.44894487 0 19.1875 C-3.50889815 18.46772602 -5.0371639 17.35454012 -7.4375 14.6875 C-8.50178873 11.93906208 -8.80742803 9.61329438 -8.4375 6.6875 C-6.65290771 2.65942026 -4.3732664 0.87465328 0 0 Z " fill="#BA5E00" transform="translate(227.4375,129.3125)"/>
<path d="M0 0 C4.29085983 0.87568568 6.18527073 2.33673797 9.0625 5.625 C9.86317607 8.68819255 9.58004166 10.36448754 9.0625 13.625 C6.48999516 16.96925629 4.43501107 18.44199852 0.25 19 C-2.9375 18.625 -2.9375 18.625 -5.8125 16.625 C-8.18016331 13.2824165 -8.69476358 11.56486585 -8.421875 7.5625 C-7.28464708 3.01358834 -4.4078842 0.9378477 0 0 Z " fill="#AA5F00" transform="translate(350.9375,334.375)"/>
<path d="M0 0 C3.5442914 0.80009747 4.97740702 2.51479019 6.97265625 5.4453125 C7.76046905 9.8570642 7.50240758 11.66724024 4.97265625 15.3828125 C1.65681934 17.66245038 -0.13637086 18.26198712 -4.0859375 17.9921875 C-7.84573142 16.93309062 -9.18130413 14.72054408 -11.02734375 11.4453125 C-11.09551948 7.49112045 -10.59386605 5.32908728 -8.46484375 2.0078125 C-5.62549856 0.18771943 -3.36656812 -0.18877952 0 0 Z " fill="#BC5F00" transform="translate(195.02734375,334.5546875)"/>
<path d="M0 0 C3.5442914 0.80009747 4.97740702 2.51479019 6.97265625 5.4453125 C7.76046905 9.8570642 7.50240758 11.66724024 4.97265625 15.3828125 C1.65681934 17.66245038 -0.13637086 18.26198712 -4.0859375 17.9921875 C-7.84573142 16.93309062 -9.18130413 14.72054408 -11.02734375 11.4453125 C-11.09551948 7.49112045 -10.59386605 5.32908728 -8.46484375 2.0078125 C-5.62549856 0.18771943 -3.36656812 -0.18877952 0 0 Z " fill="#BB5F00" transform="translate(164.02734375,317.5546875)"/>
<path d="M0 0 C3.5442914 0.80009747 4.97740702 2.51479019 6.97265625 5.4453125 C7.76046905 9.8570642 7.50240758 11.66724024 4.97265625 15.3828125 C1.65681934 17.66245038 -0.13637086 18.26198712 -4.0859375 17.9921875 C-7.84573142 16.93309062 -9.18130413 14.72054408 -11.02734375 11.4453125 C-11.09551948 7.49112045 -10.59386605 5.32908728 -8.46484375 2.0078125 C-5.62549856 0.18771943 -3.36656812 -0.18877952 0 0 Z " fill="#BC5F00" transform="translate(105.02734375,279.5546875)"/>
<path d="M0 0 C3.61037563 0.94436385 4.97328707 2.39691444 6.94140625 5.5078125 C7.34986239 9.6726064 6.93254491 13.19950947 4.37890625 16.5703125 C0.83174888 17.9346038 -2.31368837 18.18450998 -6.05859375 17.5078125 C-9.35151219 15.39696735 -9.94635327 13.86434108 -11.12109375 10.1328125 C-11.05859375 6.5078125 -11.05859375 6.5078125 -9.12109375 3.0703125 C-5.74411725 0.24467911 -4.27082475 -0.37278546 0 0 Z " fill="#AA5F00" transform="translate(299.05859375,249.4921875)"/>
<path d="M0 0 C4.63235294 2.26470588 4.63235294 2.26470588 6 5 C6.34560019 8.01165884 6.58340289 10.094098 6 13 C3.12277073 16.28826203 1.22835983 17.74931432 -3.0625 18.625 C-7.16102524 17.75297335 -8.58610696 16.407849 -11 13 C-11.70862744 10.16549024 -11.70862744 7.83450976 -11 5 C-7.82657109 0.51986507 -5.46202272 -0.91033712 0 0 Z " fill="#AA5F00" transform="translate(253,197)"/>
<path d="M0 0 C2.9375 2.0625 2.9375 2.0625 5 5 C5.66350721 9.12848931 5.43514338 11.19933618 3.4375 14.875 C0.18423621 17.71117869 -1.69555461 18.14842915 -6 18 C-10.29725465 15.65604292 -10.29725465 15.65604292 -12 13 C-12.78888598 9.82755138 -12.78149882 7.17335886 -12 4 C-8.57473068 -0.25563764 -5.29763755 -0.85140604 0 0 Z " fill="#BB5F00" transform="translate(55,191)"/>
<path d="M0 0 C3.75979392 1.05909688 5.09536663 3.27164342 6.94140625 6.546875 C7.00958198 10.50106705 6.50792855 12.66310022 4.37890625 15.984375 C1.53956106 17.80446807 -0.71936938 18.18096702 -4.0859375 17.9921875 C-7.6302289 17.19209003 -9.06334452 15.47739731 -11.05859375 12.546875 C-11.84640655 8.1351233 -11.58834508 6.32494726 -9.05859375 2.609375 C-5.74275684 0.32973712 -3.94956664 -0.26979962 0 0 Z " fill="#BB5F00" transform="translate(112.05859375,76.453125)"/>
<path d="M0 0 C2.12890625 0.40625 2.12890625 0.40625 4.69140625 1.84375 C6.84349095 5.68007489 6.87721897 9.11329811 6.12890625 13.40625 C4.69140625 15.96875 4.69140625 15.96875 2.12890625 17.40625 C-1.00334657 18.0039643 -3.74475031 18.06020074 -6.87109375 17.40625 C-10.19765005 14.72877786 -10.76962492 13.11653182 -11.37109375 8.90625 C-10.32870175 1.60950599 -7.00319497 -0.46149555 0 0 Z " fill="#BD6000" transform="translate(133.87109375,300.59375)"/>
<path d="M0 0 C2.5625 1.5 2.5625 1.5 4 4 C4.70476018 8.93332128 4.77041398 10.84437903 2 15 C-2.17528818 17.78352545 -4.04621883 17.78631447 -9 17 C-11.6483191 14.88134472 -12.73807669 13.37782575 -13.375 10.02734375 C-13.57348726 6.70888486 -13.21962523 4.38195691 -11.5625 1.5 C-7.74317604 -0.73570183 -4.31481639 -0.76004105 0 0 Z " fill="#BC5F00" transform="translate(229,349)"/>
<path d="M0 0 C2.5 1.4375 2.5 1.4375 4 4 C4.76004105 8.31481639 4.73570183 11.74317604 2.5 15.5625 C-1.00246578 17.57641782 -4.12143713 17.87555677 -8 17 C-11 14.9375 -11 14.9375 -13 12 C-13.7878128 7.5882483 -13.52975133 5.77807226 -11 2.0625 C-6.84919686 -0.79117716 -4.9698922 -0.7099846 0 0 Z " fill="#AD6000" transform="translate(328,358)"/>
<path d="M0 0 C2.12890625 0.40625 2.12890625 0.40625 4.69140625 1.84375 C6.83798363 5.67025751 7.02378294 9.12811143 6.12890625 13.40625 C3.4601071 16.72203076 1.81283061 17.29633359 -2.37109375 17.96875 C-5.87109375 17.40625 -5.87109375 17.40625 -8.80859375 15.34375 C-11.40436484 11.6467427 -11.58362963 9.83980658 -10.87109375 5.40625 C-8.32650687 0.20644202 -5.41716213 -0.35697938 0 0 Z " fill="#BD6000" transform="translate(78.87109375,255.59375)"/>
<path d="M0 0 C2.5625 1.5 2.5625 1.5 4 4 C4.7099846 8.9698922 4.79117716 10.84919686 1.9375 15 C-1.77807226 17.52975133 -3.5882483 17.7878128 -8 17 C-10.93052231 15.00475077 -12.64521503 13.57163515 -13.4453125 10.02734375 C-13.63099028 6.71609006 -13.21285614 4.37018459 -11.5625 1.5 C-7.74317604 -0.73570183 -4.31481639 -0.76004105 0 0 Z " fill="#AC6000" transform="translate(275,227)"/>
<path d="M0 0 C2.9375 1.4375 2.9375 1.4375 5 4 C5.89487669 8.27813857 5.70907738 11.73599249 3.5625 15.5625 C-0.26400751 17.70907738 -3.72186143 17.89487669 -8 17 C-11.31578076 14.33120085 -11.89008359 12.68392436 -12.5625 8.5 C-12 5 -12 5 -9.9375 2.0625 C-6.2404927 -0.53327109 -4.43355658 -0.71253588 0 0 Z " fill="#BD6000" transform="translate(63,225)"/>
<path d="M0 0 C2.9375 1.4375 2.9375 1.4375 5 4 C5.89487669 8.27813857 5.70907738 11.73599249 3.5625 15.5625 C-0.26400751 17.70907738 -3.72186143 17.89487669 -8 17 C-11.31578076 14.33120085 -11.89008359 12.68392436 -12.5625 8.5 C-12 5 -12 5 -9.9375 2.0625 C-6.2404927 -0.53327109 -4.43355658 -0.71253588 0 0 Z " fill="#BD6000" transform="translate(64,122)"/>
<path d="M0 0 C1.5778125 0.26490234 1.5778125 0.26490234 3.1875 0.53515625 C4.115625 0.70917969 5.04375 0.88320312 6 1.0625 C6.94875 1.23910156 7.8975 1.41570312 8.875 1.59765625 C9.57625 1.73042969 10.2775 1.86320313 11 2 C10.34 4.97 9.68 7.94 9 11 C4 9 4 9 1.78125 7.94921875 C-6.4761856 5.13102093 -16.26234452 6.21012793 -24 10 C-24.33 7.36 -24.66 4.72 -25 2 C-22.33559769 1.46409181 -19.66963352 0.94610738 -17 0.4375 C-16.25621094 0.28603516 -15.51242188 0.13457031 -14.74609375 -0.02148438 C-9.48191302 -1.00565729 -5.28199025 -0.90919504 0 0 Z " fill="#E5BB83" transform="translate(194,127)"/>
<path d="M0 0 C1.32 0.66 2.64 1.32 4 2 C3.67 2.763125 3.34 3.52625 3 4.3125 C0.54745971 13.35624233 1.95826556 20.68196617 6 29 C1.7402665 28.19242552 0.58199668 26.46955803 -2 23 C-3.31494512 21.64852862 -4.64264858 20.30887458 -6 19 C-5.38125 18.0925 -4.7625 17.185 -4.125 16.25 C-1.20172135 11.22237538 -0.70991206 5.6886374 0 0 Z " fill="#E1B880" transform="translate(213,159)"/>
<path d="M0 0 C1.32 0.66 2.64 1.32 4 2 C2.68 5.3 1.36 8.6 0 12 C-1.15866723 7.36533108 -0.70010994 4.66739961 0 0 Z " fill="#C5A170" transform="translate(213,159)"/>
<path d="M0 0 C-0.33 0.66 -0.66 1.32 -1 2 C-5.62 2 -10.24 2 -15 2 C-15 1.67 -15 1.34 -15 1 C-13.44033408 0.63355422 -11.87707349 0.28239138 -10.3125 -0.0625 C-9.44238281 -0.25972656 -8.57226562 -0.45695312 -7.67578125 -0.66015625 C-4.83998724 -1.02032279 -2.75210018 -0.70909969 0 0 Z " fill="#EAC194" transform="translate(191,127)"/>
<path d="M0 0 C2.97 0 5.94 0 9 0 C8.67 0.99 8.34 1.98 8 3 C2.25 2.25 2.25 2.25 0 0 Z " fill="#F2C89B" transform="translate(196,129)"/>
</svg>
